<svg width="1047" height="339" viewBox="0 0 1047 339" fill="none" xmlns="http://www.w3.org/2000/svg">
<g filter="url(#filter0_d_1622_2)">
<path d="M4.76734 158.235C2.35866 149.119 9.23358 140.191 18.6631 140.191L1026.52 140.191C1035.4 140.191 1042.16 148.176 1040.69 156.94L1017.23 296.884C1016.09 303.686 1010.28 308.719 1003.38 308.876L61.6535 330.406C55.009 330.558 49.1269 326.135 47.4292 319.709L4.76734 158.235Z" fill="#FFDD41"/>
</g>
<path d="M247.284 207.473C249.208 209.345 250.586 211.659 251.418 214.415C252.25 217.119 252.536 219.953 252.276 222.917C252.068 225.829 251.314 228.715 250.014 231.575C248.714 234.383 246.894 236.853 244.554 238.985C242.786 240.493 240.706 241.819 238.314 242.963C235.974 244.055 233.244 244.705 230.124 244.913C229.24 244.913 228.564 244.861 228.096 244.757C227.68 244.601 227.394 244.523 227.238 244.523C227.082 244.523 226.744 244.601 226.224 244.757C225.756 244.861 225.314 244.913 224.898 244.913C224.586 244.913 224.326 244.965 224.118 245.069C224.014 245.121 223.936 245.147 223.884 245.147C223.52 247.331 223.182 249.281 222.87 250.997C222.61 252.505 222.324 253.935 222.012 255.287C221.752 256.639 221.57 257.523 221.466 257.939C221.414 258.251 221.232 258.433 220.92 258.485C220.608 258.485 220.244 258.459 219.828 258.407C219.412 258.303 218.97 258.173 218.502 258.017C218.086 257.861 217.722 257.731 217.41 257.627C216.838 257.627 216.11 257.705 215.226 257.861C214.342 257.965 213.536 258.121 212.808 258.329C211.872 258.589 211.274 258.589 211.014 258.329C210.806 258.069 210.52 257.523 210.156 256.691C210.052 256.483 210.078 255.443 210.234 253.571C210.39 251.647 210.702 249.281 211.17 246.473C211.638 243.665 212.236 240.597 212.964 237.269C213.744 233.889 214.68 230.587 215.772 227.363C216.5 225.491 217.046 223.775 217.41 222.215C217.774 220.603 218.138 218.705 218.502 216.521C218.866 215.117 219.178 213.791 219.438 212.543C219.698 211.295 219.932 210.229 220.14 209.345C220.348 208.305 220.53 207.343 220.686 206.459C220.79 206.303 220.842 206.069 220.842 205.757C220.894 205.445 221.076 205.289 221.388 205.289C221.648 205.029 221.908 204.873 222.168 204.821C222.48 204.717 222.766 204.613 223.026 204.509C223.286 204.457 223.52 204.405 223.728 204.353C224.404 204.457 224.924 204.483 225.288 204.431C225.704 204.327 226.094 204.223 226.458 204.119C226.874 204.015 227.316 203.937 227.784 203.885C228.252 203.833 228.876 203.885 229.656 204.041C229.812 203.885 230.15 203.885 230.67 204.041C231.19 204.145 232.23 204.041 233.79 203.729H237.768C239.848 204.041 241.642 204.483 243.15 205.055C244.658 205.575 246.036 206.381 247.284 207.473ZM240.264 223.931C240.68 221.955 240.784 220.005 240.576 218.081C240.42 216.417 239.926 214.701 239.094 212.933C238.314 211.165 236.91 209.657 234.882 208.409C234.362 208.097 233.946 207.967 233.634 208.019C233.322 208.019 233.088 207.941 232.932 207.785C232.932 207.941 232.906 208.123 232.854 208.331C232.802 208.487 232.75 208.669 232.698 208.877C232.646 209.033 232.594 209.163 232.542 209.267C232.542 209.423 232.49 209.735 232.386 210.203C232.334 210.619 232.23 211.087 232.074 211.607C231.918 212.127 231.762 212.621 231.606 213.089C231.45 213.557 231.32 213.947 231.216 214.259C231.164 214.571 231.06 215.013 230.904 215.585C230.8 216.157 230.67 216.781 230.514 217.457C230.358 218.081 230.202 218.679 230.046 219.251C229.942 219.823 229.89 220.265 229.89 220.577C229.942 220.889 229.916 221.305 229.812 221.825C229.76 222.293 229.656 222.787 229.5 223.307C229.396 223.827 229.266 224.321 229.11 224.789C228.954 225.257 228.824 225.595 228.72 225.803C228.616 225.959 228.434 226.453 228.174 227.285C227.966 228.117 227.706 229.105 227.394 230.249C227.134 231.393 226.848 232.615 226.536 233.915C226.224 235.215 225.938 236.437 225.678 237.581C225.47 238.725 225.314 239.687 225.21 240.467C225.106 241.247 225.08 241.689 225.132 241.793C225.34 241.793 226.068 241.533 227.316 241.013C228.616 240.493 230.072 239.583 231.684 238.283C233.296 236.931 234.908 235.111 236.52 232.823C238.132 230.483 239.38 227.519 240.264 223.931ZM263.203 205.133C263.567 205.081 263.931 205.029 264.295 204.977C264.815 204.925 265.413 204.795 266.089 204.587C266.557 204.327 267.467 204.119 268.819 203.963C270.171 203.807 271.757 203.703 273.577 203.651C275.397 203.547 277.321 203.495 279.349 203.495C281.429 203.443 283.405 203.443 285.277 203.495C287.201 203.547 288.917 203.625 290.425 203.729C291.985 203.833 293.129 203.963 293.857 204.119C293.909 204.223 293.935 204.405 293.935 204.665C293.935 204.925 293.883 205.263 293.779 205.679C293.727 206.043 293.649 206.563 293.545 207.239C293.389 207.967 293.259 208.513 293.155 208.877C293.103 209.241 293.051 209.527 292.999 209.735C292.947 209.943 292.895 210.125 292.843 210.281C292.791 210.385 292.687 210.541 292.531 210.749C292.427 210.749 292.375 210.853 292.375 211.061C292.427 211.217 292.453 211.399 292.453 211.607C292.453 211.867 292.479 212.153 292.531 212.465V212.777C292.531 212.881 292.505 212.985 292.453 213.089C292.401 213.193 292.349 213.297 292.297 213.401C292.037 213.401 291.881 213.427 291.829 213.479C291.829 213.479 291.829 213.557 291.829 213.713C291.725 213.869 291.621 213.999 291.517 214.103C291.465 214.207 291.075 214.285 290.347 214.337C289.619 214.337 288.423 214.337 286.759 214.337C285.095 214.285 282.651 214.181 279.427 214.025C278.855 214.025 278.179 214.025 277.399 214.025C276.619 214.025 275.839 214.051 275.059 214.103C274.279 214.103 273.603 214.129 273.031 214.181C272.459 214.181 272.147 214.207 272.095 214.259C272.095 214.363 272.017 214.935 271.861 215.975C271.705 217.015 271.523 218.133 271.315 219.329L270.535 224.165L274.123 224.009C274.539 224.113 275.189 224.165 276.073 224.165C276.957 224.113 277.867 224.087 278.803 224.087C279.739 224.087 280.623 224.113 281.455 224.165C282.339 224.165 282.963 224.243 283.327 224.399C284.367 224.659 284.965 224.919 285.121 225.179C285.277 225.387 285.355 225.569 285.355 225.725C285.251 225.829 285.173 226.063 285.121 226.427C285.121 226.739 285.095 227.129 285.043 227.597C284.991 228.013 284.965 228.429 284.965 228.845C284.965 229.209 284.965 229.469 284.965 229.625C284.965 229.885 284.861 230.119 284.653 230.327C284.497 230.535 284.341 230.743 284.185 230.951C284.029 230.951 283.925 231.081 283.873 231.341C283.873 231.601 283.873 231.887 283.873 232.199C283.873 232.511 283.743 232.979 283.483 233.603C283.275 234.227 282.781 234.591 282.001 234.695C281.689 234.799 281.117 234.877 280.285 234.929C279.505 234.981 278.595 235.007 277.555 235.007C276.515 235.007 275.449 235.007 274.357 235.007C273.265 234.955 272.251 234.955 271.315 235.007C270.379 235.007 269.599 235.033 268.975 235.085C268.351 235.137 268.013 235.241 267.961 235.397C267.857 235.657 267.649 236.437 267.337 237.737C267.077 238.985 266.765 240.337 266.401 241.793C265.985 243.509 265.543 245.407 265.075 247.487C265.127 247.487 265.439 247.513 266.011 247.565C266.583 247.565 267.259 247.591 268.039 247.643C268.819 247.695 269.625 247.747 270.457 247.799C271.341 247.799 272.095 247.799 272.719 247.799C273.291 247.903 274.123 247.981 275.215 248.033C276.359 248.085 277.477 248.163 278.569 248.267C279.713 248.319 280.727 248.371 281.611 248.423C282.547 248.423 283.093 248.423 283.249 248.423C283.405 248.423 283.327 248.631 283.015 249.047C282.755 249.411 282.625 249.749 282.625 250.061C282.625 250.321 282.573 250.841 282.469 251.621C282.365 252.401 282.209 253.051 282.001 253.571C281.845 254.039 281.741 254.403 281.689 254.663C281.637 254.923 281.533 255.313 281.377 255.833C281.117 256.301 280.987 256.717 280.987 257.081C280.987 257.445 280.883 257.757 280.675 258.017C280.519 258.277 280.155 258.485 279.583 258.641C279.063 258.745 278.153 258.745 276.853 258.641C275.449 258.641 273.993 258.615 272.485 258.563C271.185 258.511 269.729 258.485 268.117 258.485C266.557 258.433 265.023 258.407 263.515 258.407C261.123 258.199 259.095 258.147 257.431 258.251C255.819 258.355 254.883 258.407 254.623 258.407C254.415 258.407 254.207 258.355 253.999 258.251C253.843 258.147 253.687 258.043 253.531 257.939C253.427 257.835 253.375 257.653 253.375 257.393C253.479 257.237 253.427 257.081 253.219 256.925C253.011 256.769 252.803 256.691 252.595 256.691C252.491 256.691 252.387 256.509 252.283 256.145C252.179 255.781 252.205 255.339 252.361 254.819C252.517 254.611 252.595 254.403 252.595 254.195V253.571C252.595 253.415 252.647 253.311 252.751 253.259C252.907 253.155 252.985 252.921 252.985 252.557C253.453 250.789 253.921 248.709 254.389 246.317C254.909 243.873 255.429 241.299 255.949 238.595C256.365 236.827 256.781 235.007 257.197 233.135C257.665 231.263 258.081 229.365 258.445 227.441C258.757 225.673 259.043 223.879 259.303 222.059C259.615 220.239 259.979 218.523 260.395 216.911C260.603 215.143 260.811 213.531 261.019 212.075C261.227 210.567 261.435 209.293 261.643 208.253C261.851 207.213 262.085 206.433 262.345 205.913C262.605 205.341 262.891 205.081 263.203 205.133ZM310.064 247.331C310.168 247.227 310.142 247.045 309.986 246.785C309.882 246.525 309.804 246.291 309.752 246.083C309.7 245.927 309.674 245.771 309.674 245.615C309.674 245.407 309.674 245.251 309.674 245.147C309.674 244.991 309.7 244.835 309.752 244.679C310.272 242.495 310.844 240.259 311.468 237.971C312.092 235.683 312.69 233.629 313.262 231.809C314.354 228.533 315.03 225.647 315.29 223.151C315.55 220.603 315.602 218.471 315.446 216.755C315.29 214.987 315.03 213.635 314.666 212.699C314.354 211.711 314.198 211.165 314.198 211.061C314.146 210.801 314.068 210.619 313.964 210.515C313.912 210.463 313.834 210.437 313.73 210.437C312.69 214.233 311.832 217.717 311.156 220.889C310.48 224.009 309.778 226.817 309.05 229.313C307.49 235.137 306.346 239.713 305.618 243.041C304.89 246.369 304.396 248.891 304.136 250.607C303.876 252.271 303.772 253.337 303.824 253.805C303.876 254.221 303.902 254.481 303.902 254.585C303.902 254.741 304.084 255.001 304.448 255.365C304.864 255.729 305.358 255.911 305.93 255.911C307.646 255.651 309.414 255.495 311.234 255.443C313.106 255.339 314.822 255.287 316.382 255.287C317.942 255.287 319.268 255.313 320.36 255.365C321.452 255.365 322.128 255.365 322.388 255.365C323.064 255.365 323.22 255.599 322.856 256.067C322.804 256.119 322.778 256.197 322.778 256.301C322.778 256.509 322.882 256.639 323.09 256.691L323.246 257.393C323.038 257.601 323.012 257.913 323.168 258.329C322.96 258.225 322.466 258.173 321.686 258.173C320.906 258.121 320.048 258.095 319.112 258.095C318.228 258.095 317.37 258.121 316.538 258.173C315.706 258.173 315.186 258.173 314.978 258.173C313.782 258.173 312.846 258.199 312.17 258.251C311.494 258.251 310.922 258.277 310.454 258.329C310.038 258.329 309.622 258.355 309.206 258.407C308.842 258.407 308.322 258.433 307.646 258.485C307.022 258.485 306.164 258.511 305.072 258.563C303.98 258.563 302.498 258.563 300.626 258.563C299.118 258.563 297.922 258.511 297.038 258.407C296.154 258.303 295.452 258.199 294.932 258.095C294.36 257.939 293.944 257.783 293.684 257.627C293.424 257.419 293.06 256.925 292.592 256.145C292.176 255.365 291.89 253.987 291.734 252.011C291.734 251.491 291.838 250.555 292.046 249.203C292.306 247.799 292.618 246.161 292.982 244.289C293.398 242.417 293.866 240.363 294.386 238.127C294.906 235.891 295.452 233.655 296.024 231.419C297.324 226.167 298.78 220.369 300.392 214.025C300.392 213.817 300.444 213.479 300.548 213.011C300.652 212.491 300.756 211.971 300.86 211.451C301.016 210.931 301.146 210.463 301.25 210.047C301.406 209.579 301.51 209.241 301.562 209.033C301.718 208.877 301.848 208.591 301.952 208.175C302.108 207.759 302.238 207.343 302.342 206.927C302.446 206.459 302.55 206.043 302.654 205.679C302.758 205.315 302.862 205.133 302.966 205.133C302.862 204.977 302.862 204.795 302.966 204.587C303.122 204.327 303.668 204.197 304.604 204.197C306.372 204.301 307.854 204.327 309.05 204.275C310.298 204.171 311.338 204.093 312.17 204.041C313.054 203.937 313.782 203.833 314.354 203.729C314.978 203.625 315.55 203.573 316.07 203.573C318.514 203.781 320.49 204.457 321.998 205.601C323.506 206.693 324.676 208.045 325.508 209.657C326.34 211.269 326.886 213.011 327.146 214.883C327.406 216.703 327.51 218.419 327.458 220.031C327.458 221.643 327.354 223.073 327.146 224.321C326.99 225.517 326.86 226.271 326.756 226.583C326.704 226.947 326.548 227.701 326.288 228.845C326.028 229.937 325.716 231.211 325.352 232.667C324.988 234.123 324.572 235.657 324.104 237.269C323.636 238.881 323.194 240.389 322.778 241.793C322.414 243.197 322.076 244.393 321.764 245.381C321.452 246.317 321.244 246.863 321.14 247.019C320.828 246.967 320.178 246.941 319.19 246.941C318.254 246.941 317.24 246.993 316.148 247.097C315.108 247.149 314.146 247.201 313.262 247.253C312.378 247.305 311.858 247.331 311.702 247.331C311.338 247.487 310.974 247.565 310.61 247.565C310.246 247.565 310.064 247.487 310.064 247.331ZM327.459 256.925C327.459 256.821 327.589 256.249 327.849 255.209C328.161 254.117 328.473 252.609 328.785 250.685C329.097 249.281 329.409 247.721 329.721 246.005C330.085 244.237 330.423 242.391 330.735 240.467C331.099 238.491 331.437 236.489 331.749 234.461C332.113 232.433 332.451 230.405 332.763 228.377C333.283 225.101 333.777 221.981 334.245 219.017C334.713 216.053 335.077 213.479 335.337 211.295C335.389 210.827 335.441 210.307 335.493 209.735C335.545 209.111 335.597 208.539 335.649 208.019C335.701 207.447 335.753 206.849 335.805 206.225C335.857 206.069 335.935 205.991 336.039 205.991C336.143 205.939 336.273 205.887 336.429 205.835C336.637 205.783 336.897 205.731 337.209 205.679C337.521 205.575 337.937 205.367 338.457 205.055C338.509 205.003 338.535 204.977 338.535 204.977C338.587 204.925 338.665 204.925 338.769 204.977C338.925 204.977 339.159 205.003 339.471 205.055C339.783 205.055 340.277 205.055 340.953 205.055C341.369 205.003 341.837 204.951 342.357 204.899C342.929 204.795 343.501 204.717 344.073 204.665C344.645 204.613 345.165 204.613 345.633 204.665C346.153 204.665 346.569 204.691 346.881 204.743C347.505 204.743 348.025 204.847 348.441 205.055C348.857 205.211 349.299 205.289 349.767 205.289C349.975 205.393 350.079 205.627 350.079 205.991C350.131 206.355 350.105 206.771 350.001 207.239C349.949 207.707 349.871 208.201 349.767 208.721C349.663 209.241 349.611 209.657 349.611 209.969C349.559 210.385 349.455 211.113 349.299 212.153C349.143 213.141 348.961 214.181 348.753 215.273C348.545 216.365 348.363 217.379 348.207 218.315C348.051 219.251 347.947 219.797 347.895 219.953C347.843 220.109 347.739 220.551 347.583 221.279C347.479 222.007 347.375 222.813 347.271 223.697C347.167 224.529 347.037 225.309 346.881 226.037C346.777 226.713 346.699 227.129 346.647 227.285C346.751 227.233 347.063 227.155 347.583 227.051C348.155 226.947 348.727 226.843 349.299 226.739C349.975 226.635 350.703 226.531 351.483 226.427C351.535 226.427 351.639 225.933 351.795 224.945C352.003 223.957 352.237 222.735 352.497 221.279C352.757 219.771 353.043 218.133 353.355 216.365C353.667 214.545 353.953 212.855 354.213 211.295C354.473 209.735 354.707 208.409 354.915 207.317C355.123 206.173 355.279 205.497 355.383 205.289C355.331 205.029 355.461 204.925 355.773 204.977C356.085 204.977 356.319 204.899 356.475 204.743C356.735 204.587 357.073 204.431 357.489 204.275C357.905 204.119 358.243 204.041 358.503 204.041C358.659 204.041 358.997 204.067 359.517 204.119C360.037 204.119 360.609 204.119 361.233 204.119C361.909 204.119 362.559 204.093 363.183 204.041C363.807 203.989 364.301 203.885 364.665 203.729C365.601 203.573 366.459 203.547 367.239 203.651C368.019 203.755 368.617 203.885 369.033 204.041C369.657 204.405 369.969 204.899 369.969 205.523C369.969 205.835 369.917 206.173 369.813 206.537C369.813 206.693 369.605 207.707 369.189 209.579C368.773 211.451 368.279 213.843 367.707 216.755C367.551 217.795 367.343 218.913 367.083 220.109C366.823 221.253 366.589 222.423 366.381 223.619C366.121 224.555 365.887 225.491 365.679 226.427C365.523 227.311 365.367 228.247 365.211 229.235C364.639 232.511 364.067 235.761 363.495 238.985C362.975 242.157 362.481 245.043 362.013 247.643C361.597 250.191 361.233 252.297 360.921 253.961C360.661 255.625 360.505 256.535 360.453 256.691C360.557 257.107 360.427 257.315 360.063 257.315C359.751 257.263 359.439 257.237 359.127 257.237H354.369C354.057 257.237 353.615 257.263 353.043 257.315C352.471 257.315 351.899 257.341 351.327 257.393C350.651 257.445 349.923 257.497 349.143 257.549C348.831 257.549 348.441 257.601 347.973 257.705C347.557 257.809 347.323 257.757 347.271 257.549C347.011 257.133 346.881 256.665 346.881 256.145C346.829 255.885 346.829 255.625 346.881 255.365C347.037 255.209 347.219 254.533 347.427 253.337C347.635 252.089 347.843 250.685 348.051 249.125C348.207 248.085 348.363 247.071 348.519 246.083C348.727 245.095 348.883 244.211 348.987 243.431C349.143 242.495 349.273 241.611 349.377 240.779C349.273 240.779 348.935 240.805 348.363 240.857C347.791 240.857 347.167 240.883 346.491 240.935L343.839 241.091C343.787 241.507 343.709 241.975 343.605 242.495C343.501 242.911 343.371 243.405 343.215 243.977C343.111 244.549 343.007 245.147 342.903 245.771C342.643 247.019 342.435 248.267 342.279 249.515C342.175 250.711 341.993 251.933 341.733 253.181C341.369 254.273 341.109 255.235 340.953 256.067C340.849 256.899 340.797 257.393 340.797 257.549C340.745 257.705 340.563 257.809 340.251 257.861C339.939 257.913 339.575 257.965 339.159 258.017C338.743 258.017 338.275 258.017 337.755 258.017C337.287 257.965 336.871 257.939 336.507 257.939C335.675 257.731 335.025 257.627 334.557 257.627C334.089 257.627 333.491 257.731 332.763 257.939C332.347 257.991 332.035 258.043 331.827 258.095C331.671 258.095 331.515 258.121 331.359 258.173C331.255 258.173 331.151 258.173 331.047 258.173C330.943 258.173 330.787 258.173 330.579 258.173C330.163 258.173 329.695 258.225 329.175 258.329C328.967 258.381 328.733 258.433 328.473 258.485C327.901 258.485 327.563 258.225 327.459 257.705C327.407 257.497 327.407 257.237 327.459 256.925ZM368.222 258.251C367.702 257.731 367.65 256.535 368.066 254.663C368.534 252.739 369.054 250.373 369.626 247.565C370.094 245.017 370.64 242.313 371.264 239.453C371.888 236.541 372.486 233.863 373.058 231.419C373.63 228.975 374.098 226.921 374.462 225.257C374.878 223.541 375.112 222.605 375.164 222.449C375.216 222.241 375.346 221.721 375.554 220.889C375.762 220.005 375.944 219.043 376.1 218.003C376.308 216.963 376.464 215.949 376.568 214.961C376.724 213.973 376.776 213.245 376.724 212.777C376.672 212.309 376.672 211.737 376.724 211.061C376.776 210.385 376.854 209.761 376.958 209.189C377.062 208.513 377.14 207.811 377.192 207.083C377.66 206.251 377.998 205.523 378.206 204.899C378.414 204.223 378.752 203.885 379.22 203.885C379.376 203.885 379.636 203.885 380 203.885C380.416 203.833 380.858 203.807 381.326 203.807C381.794 203.755 382.262 203.729 382.73 203.729C383.198 203.677 383.588 203.651 383.9 203.651C385.252 203.547 386.266 203.521 386.942 203.573C387.67 203.573 388.242 203.599 388.658 203.651C389.074 203.703 389.36 203.781 389.516 203.885C389.568 204.353 389.646 204.639 389.75 204.743C389.906 204.795 390.036 204.847 390.14 204.899C390.244 204.951 390.296 205.107 390.296 205.367C390.348 205.575 390.296 206.043 390.14 206.771C390.14 207.083 390.088 207.343 389.984 207.551C389.88 207.707 389.828 207.863 389.828 208.019C389.828 208.227 389.828 208.461 389.828 208.721C389.88 208.981 389.854 209.293 389.75 209.657C389.49 211.321 388.97 213.375 388.19 215.819C387.878 217.431 387.54 219.147 387.176 220.967C386.864 222.735 386.422 224.607 385.85 226.583C385.07 230.015 384.29 233.473 383.51 236.957C382.73 240.389 382.028 243.483 381.404 246.239C380.78 248.995 380.286 251.283 379.922 253.103C379.558 254.923 379.376 255.911 379.376 256.067C379.428 256.483 379.324 256.925 379.064 257.393C378.856 257.809 378.7 258.095 378.596 258.251C378.596 258.303 378.57 258.355 378.518 258.407C378.466 258.459 378.258 258.485 377.894 258.485C376.906 258.329 375.918 258.251 374.93 258.251C373.942 258.251 373.032 258.277 372.2 258.329C371.42 258.329 370.718 258.355 370.094 258.407C369.522 258.459 369.132 258.485 368.924 258.485C368.612 258.589 368.404 258.589 368.3 258.485C368.248 258.433 368.222 258.355 368.222 258.251ZM388.473 257.237C388.473 257.029 388.525 256.197 388.629 254.741C388.785 253.233 388.993 251.335 389.253 249.047C389.513 246.759 389.799 244.185 390.111 241.325C390.475 238.465 390.865 235.501 391.281 232.433C391.801 229.261 392.321 226.141 392.841 223.073C393.413 219.953 393.933 217.171 394.401 214.727C394.869 212.283 395.259 210.281 395.571 208.721C395.883 207.161 396.091 206.329 396.195 206.225C396.143 205.913 396.195 205.705 396.351 205.601C396.559 205.445 396.793 205.367 397.053 205.367C397.365 205.315 397.703 205.263 398.067 205.211C398.483 205.159 398.873 205.055 399.237 204.899C399.341 204.743 399.705 204.639 400.329 204.587C400.953 204.535 401.629 204.457 402.357 204.353C402.825 204.249 403.371 204.067 403.995 203.807C404.619 203.495 405.165 203.469 405.633 203.729C405.841 203.885 406.023 204.587 406.179 205.835C406.387 207.083 406.543 208.487 406.647 210.047C406.803 211.555 406.933 213.037 407.037 214.493C407.141 215.897 407.219 216.833 407.271 217.301C407.271 217.561 407.323 218.081 407.427 218.861C407.583 219.641 407.739 220.603 407.895 221.747C408.051 222.839 408.233 224.061 408.441 225.413C408.649 226.765 408.857 228.117 409.065 229.469C409.585 232.693 410.157 236.255 410.781 240.155C410.781 240.051 410.833 239.453 410.937 238.361C411.093 237.217 411.327 235.735 411.639 233.915C411.899 230.795 412.289 227.545 412.809 224.165C413.329 220.785 413.875 217.691 414.447 214.883C415.071 211.607 415.773 208.383 416.553 205.211C416.657 204.795 416.891 204.639 417.255 204.743C417.619 204.795 418.035 204.743 418.503 204.587C418.607 204.587 418.841 204.561 419.205 204.509C419.621 204.457 420.063 204.483 420.531 204.587C420.999 204.587 421.519 204.535 422.091 204.431C422.715 204.327 423.339 204.223 423.963 204.119C424.223 204.119 424.431 204.197 424.587 204.353C424.795 204.457 424.951 204.561 425.055 204.665C425.159 204.873 425.211 205.055 425.211 205.211C425.055 206.095 424.795 207.057 424.431 208.097C424.119 209.085 423.807 210.333 423.495 211.841C423.027 214.233 422.533 216.989 422.013 220.109C421.493 223.177 420.973 226.349 420.453 229.625C419.985 232.849 419.517 236.073 419.049 239.297C418.581 242.469 418.165 245.381 417.801 248.033C417.489 250.633 417.229 252.817 417.021 254.585C416.813 256.353 416.709 257.471 416.709 257.939C416.605 258.407 416.319 258.693 415.851 258.797C415.435 258.953 415.097 259.031 414.837 259.031C414.577 258.979 414.135 258.953 413.511 258.953C412.887 259.005 412.237 259.031 411.561 259.031C410.937 259.031 410.339 258.979 409.767 258.875C409.195 258.823 408.883 258.693 408.831 258.485C408.779 258.225 408.519 258.121 408.051 258.173C407.583 258.173 407.219 258.173 406.959 258.173C406.647 258.173 406.413 258.121 406.257 258.017C406.153 257.861 405.971 257.601 405.711 257.237C405.607 256.977 405.451 256.353 405.243 255.365C405.035 254.325 404.801 253.077 404.541 251.621C404.281 250.113 403.995 248.475 403.683 246.707C403.423 244.887 403.137 243.067 402.825 241.247C402.149 236.931 401.395 232.121 400.563 226.817C400.459 227.181 400.277 228.013 400.017 229.313C399.757 230.561 399.471 232.069 399.159 233.837C398.847 235.553 398.535 237.451 398.223 239.531C397.911 241.611 397.625 243.613 397.365 245.537C397.209 246.993 397.079 248.371 396.975 249.671C396.923 250.971 396.845 252.141 396.741 253.181C396.689 254.169 396.637 255.001 396.585 255.677C396.585 256.301 396.585 256.665 396.585 256.769C396.533 256.873 396.481 257.029 396.429 257.237C396.377 257.445 396.299 257.627 396.195 257.783C396.143 257.939 396.013 258.069 395.805 258.173C395.649 258.277 395.415 258.277 395.103 258.173C394.895 258.277 394.531 258.355 394.011 258.407C393.543 258.459 393.049 258.485 392.529 258.485C391.905 258.537 391.229 258.537 390.501 258.485C389.929 258.589 389.487 258.589 389.175 258.485C388.915 258.381 388.733 258.225 388.629 258.017C388.473 257.809 388.421 257.549 388.473 257.237ZM441.537 247.331C441.641 247.227 441.615 247.045 441.459 246.785C441.355 246.525 441.277 246.291 441.225 246.083C441.173 245.927 441.147 245.771 441.147 245.615C441.147 245.407 441.147 245.251 441.147 245.147C441.147 244.991 441.173 244.835 441.225 244.679C441.745 242.495 442.317 240.259 442.941 237.971C443.565 235.683 444.163 233.629 444.735 231.809C445.827 228.533 446.503 225.647 446.763 223.151C447.023 220.603 447.075 218.471 446.919 216.755C446.763 214.987 446.503 213.635 446.139 212.699C445.827 211.711 445.671 211.165 445.671 211.061C445.619 210.801 445.541 210.619 445.437 210.515C445.385 210.463 445.307 210.437 445.203 210.437C444.163 214.233 443.305 217.717 442.629 220.889C441.953 224.009 441.251 226.817 440.523 229.313C438.963 235.137 437.819 239.713 437.091 243.041C436.363 246.369 435.869 248.891 435.609 250.607C435.349 252.271 435.245 253.337 435.297 253.805C435.349 254.221 435.375 254.481 435.375 254.585C435.375 254.741 435.557 255.001 435.921 255.365C436.337 255.729 436.831 255.911 437.403 255.911C439.119 255.651 440.887 255.495 442.707 255.443C444.579 255.339 446.295 255.287 447.855 255.287C449.415 255.287 450.741 255.313 451.833 255.365C452.925 255.365 453.601 255.365 453.861 255.365C454.537 255.365 454.693 255.599 454.329 256.067C454.277 256.119 454.251 256.197 454.251 256.301C454.251 256.509 454.355 256.639 454.563 256.691L454.719 257.393C454.511 257.601 454.485 257.913 454.641 258.329C454.433 258.225 453.939 258.173 453.159 258.173C452.379 258.121 451.521 258.095 450.585 258.095C449.701 258.095 448.843 258.121 448.011 258.173C447.179 258.173 446.659 258.173 446.451 258.173C445.255 258.173 444.319 258.199 443.643 258.251C442.967 258.251 442.395 258.277 441.927 258.329C441.511 258.329 441.095 258.355 440.679 258.407C440.315 258.407 439.795 258.433 439.119 258.485C438.495 258.485 437.637 258.511 436.545 258.563C435.453 258.563 433.971 258.563 432.099 258.563C430.591 258.563 429.395 258.511 428.511 258.407C427.627 258.303 426.925 258.199 426.405 258.095C425.833 257.939 425.417 257.783 425.157 257.627C424.897 257.419 424.533 256.925 424.065 256.145C423.649 255.365 423.363 253.987 423.207 252.011C423.207 251.491 423.311 250.555 423.519 249.203C423.779 247.799 424.091 246.161 424.455 244.289C424.871 242.417 425.339 240.363 425.859 238.127C426.379 235.891 426.925 233.655 427.497 231.419C428.797 226.167 430.253 220.369 431.865 214.025C431.865 213.817 431.917 213.479 432.021 213.011C432.125 212.491 432.229 211.971 432.333 211.451C432.489 210.931 432.619 210.463 432.723 210.047C432.879 209.579 432.983 209.241 433.035 209.033C433.191 208.877 433.321 208.591 433.425 208.175C433.581 207.759 433.711 207.343 433.815 206.927C433.919 206.459 434.023 206.043 434.127 205.679C434.231 205.315 434.335 205.133 434.439 205.133C434.335 204.977 434.335 204.795 434.439 204.587C434.595 204.327 435.141 204.197 436.077 204.197C437.845 204.301 439.327 204.327 440.523 204.275C441.771 204.171 442.811 204.093 443.643 204.041C444.527 203.937 445.255 203.833 445.827 203.729C446.451 203.625 447.023 203.573 447.543 203.573C449.987 203.781 451.963 204.457 453.471 205.601C454.979 206.693 456.149 208.045 456.981 209.657C457.813 211.269 458.359 213.011 458.619 214.883C458.879 216.703 458.983 218.419 458.931 220.031C458.931 221.643 458.827 223.073 458.619 224.321C458.463 225.517 458.333 226.271 458.229 226.583C458.177 226.947 458.021 227.701 457.761 228.845C457.501 229.937 457.189 231.211 456.825 232.667C456.461 234.123 456.045 235.657 455.577 237.269C455.109 238.881 454.667 240.389 454.251 241.793C453.887 243.197 453.549 244.393 453.237 245.381C452.925 246.317 452.717 246.863 452.613 247.019C452.301 246.967 451.651 246.941 450.663 246.941C449.727 246.941 448.713 246.993 447.621 247.097C446.581 247.149 445.619 247.201 444.735 247.253C443.851 247.305 443.331 247.331 443.175 247.331C442.811 247.487 442.447 247.565 442.083 247.565C441.719 247.565 441.537 247.487 441.537 247.331ZM458.932 256.925C458.932 256.821 459.062 256.249 459.322 255.209C459.634 254.117 459.946 252.609 460.258 250.685C460.57 249.281 460.882 247.721 461.194 246.005C461.558 244.237 461.896 242.391 462.208 240.467C462.572 238.491 462.91 236.489 463.222 234.461C463.586 232.433 463.924 230.405 464.236 228.377C464.756 225.101 465.25 221.981 465.718 219.017C466.186 216.053 466.55 213.479 466.81 211.295C466.862 210.827 466.914 210.307 466.966 209.735C467.018 209.111 467.07 208.539 467.122 208.019C467.174 207.447 467.226 206.849 467.278 206.225C467.33 206.069 467.408 205.991 467.512 205.991C467.616 205.939 467.746 205.887 467.902 205.835C468.11 205.783 468.37 205.731 468.682 205.679C468.994 205.575 469.41 205.367 469.93 205.055C469.982 205.003 470.008 204.977 470.008 204.977C470.06 204.925 470.138 204.925 470.242 204.977C470.398 204.977 470.632 205.003 470.944 205.055C471.256 205.055 471.75 205.055 472.426 205.055C472.842 205.003 473.31 204.951 473.83 204.899C474.402 204.795 474.974 204.717 475.546 204.665C476.118 204.613 476.638 204.613 477.106 204.665C477.626 204.665 478.042 204.691 478.354 204.743C478.978 204.743 479.498 204.847 479.914 205.055C480.33 205.211 480.772 205.289 481.24 205.289C481.448 205.393 481.552 205.627 481.552 205.991C481.604 206.355 481.578 206.771 481.474 207.239C481.422 207.707 481.344 208.201 481.24 208.721C481.136 209.241 481.084 209.657 481.084 209.969C481.032 210.385 480.928 211.113 480.772 212.153C480.616 213.141 480.434 214.181 480.226 215.273C480.018 216.365 479.836 217.379 479.68 218.315C479.524 219.251 479.42 219.797 479.368 219.953C479.316 220.109 479.212 220.551 479.056 221.279C478.952 222.007 478.848 222.813 478.744 223.697C478.64 224.529 478.51 225.309 478.354 226.037C478.25 226.713 478.172 227.129 478.12 227.285C478.224 227.233 478.536 227.155 479.056 227.051C479.628 226.947 480.2 226.843 480.772 226.739C481.448 226.635 482.176 226.531 482.956 226.427C483.008 226.427 483.112 225.933 483.268 224.945C483.476 223.957 483.71 222.735 483.97 221.279C484.23 219.771 484.516 218.133 484.828 216.365C485.14 214.545 485.426 212.855 485.686 211.295C485.946 209.735 486.18 208.409 486.388 207.317C486.596 206.173 486.752 205.497 486.856 205.289C486.804 205.029 486.934 204.925 487.246 204.977C487.558 204.977 487.792 204.899 487.948 204.743C488.208 204.587 488.546 204.431 488.962 204.275C489.378 204.119 489.716 204.041 489.976 204.041C490.132 204.041 490.47 204.067 490.99 204.119C491.51 204.119 492.082 204.119 492.706 204.119C493.382 204.119 494.032 204.093 494.656 204.041C495.28 203.989 495.774 203.885 496.138 203.729C497.074 203.573 497.932 203.547 498.712 203.651C499.492 203.755 500.09 203.885 500.506 204.041C501.13 204.405 501.442 204.899 501.442 205.523C501.442 205.835 501.39 206.173 501.286 206.537C501.286 206.693 501.078 207.707 500.662 209.579C500.246 211.451 499.752 213.843 499.18 216.755C499.024 217.795 498.816 218.913 498.556 220.109C498.296 221.253 498.062 222.423 497.854 223.619C497.594 224.555 497.36 225.491 497.152 226.427C496.996 227.311 496.84 228.247 496.684 229.235C496.112 232.511 495.54 235.761 494.968 238.985C494.448 242.157 493.954 245.043 493.486 247.643C493.07 250.191 492.706 252.297 492.394 253.961C492.134 255.625 491.978 256.535 491.926 256.691C492.03 257.107 491.9 257.315 491.536 257.315C491.224 257.263 490.912 257.237 490.6 257.237H485.842C485.53 257.237 485.088 257.263 484.516 257.315C483.944 257.315 483.372 257.341 482.8 257.393C482.124 257.445 481.396 257.497 480.616 257.549C480.304 257.549 479.914 257.601 479.446 257.705C479.03 257.809 478.796 257.757 478.744 257.549C478.484 257.133 478.354 256.665 478.354 256.145C478.302 255.885 478.302 255.625 478.354 255.365C478.51 255.209 478.692 254.533 478.9 253.337C479.108 252.089 479.316 250.685 479.524 249.125C479.68 248.085 479.836 247.071 479.992 246.083C480.2 245.095 480.356 244.211 480.46 243.431C480.616 242.495 480.746 241.611 480.85 240.779C480.746 240.779 480.408 240.805 479.836 240.857C479.264 240.857 478.64 240.883 477.964 240.935L475.312 241.091C475.26 241.507 475.182 241.975 475.078 242.495C474.974 242.911 474.844 243.405 474.688 243.977C474.584 244.549 474.48 245.147 474.376 245.771C474.116 247.019 473.908 248.267 473.752 249.515C473.648 250.711 473.466 251.933 473.206 253.181C472.842 254.273 472.582 255.235 472.426 256.067C472.322 256.899 472.27 257.393 472.27 257.549C472.218 257.705 472.036 257.809 471.724 257.861C471.412 257.913 471.048 257.965 470.632 258.017C470.216 258.017 469.748 258.017 469.228 258.017C468.76 257.965 468.344 257.939 467.98 257.939C467.148 257.731 466.498 257.627 466.03 257.627C465.562 257.627 464.964 257.731 464.236 257.939C463.82 257.991 463.508 258.043 463.3 258.095C463.144 258.095 462.988 258.121 462.832 258.173C462.728 258.173 462.624 258.173 462.52 258.173C462.416 258.173 462.26 258.173 462.052 258.173C461.636 258.173 461.168 258.225 460.648 258.329C460.44 258.381 460.206 258.433 459.946 258.485C459.374 258.485 459.036 258.225 458.932 257.705C458.88 257.497 458.88 257.237 458.932 256.925ZM536.198 206.849C536.614 207.057 536.77 207.213 536.666 207.317C536.614 207.369 536.51 207.421 536.354 207.473C536.302 207.525 536.25 207.551 536.198 207.551C536.094 207.655 536.042 207.733 536.042 207.785C536.458 208.097 536.588 208.461 536.432 208.877C536.328 209.241 536.224 209.553 536.12 209.813C535.86 210.593 535.756 211.113 535.808 211.373C535.912 211.581 535.808 211.945 535.496 212.465C535.496 212.777 535.34 212.985 535.028 213.089C534.872 213.141 534.742 213.167 534.638 213.167C534.69 213.323 534.794 214.181 534.95 215.741C535.106 217.301 535.288 219.251 535.496 221.591C535.704 223.931 535.912 226.531 536.12 229.391C536.328 232.199 536.51 234.981 536.666 237.737C536.77 240.181 536.822 242.547 536.822 244.835C536.874 247.123 536.874 249.151 536.822 250.919C536.77 252.635 536.692 254.039 536.588 255.131C536.536 256.223 536.484 256.795 536.432 256.847C536.38 257.887 536.276 258.485 536.12 258.641C535.964 258.849 535.834 258.953 535.73 258.953C535.574 258.953 535.236 258.901 534.716 258.797C534.248 258.745 533.936 258.797 533.78 258.953C533.676 258.953 533.494 258.927 533.234 258.875C533.026 258.875 532.506 258.797 531.674 258.641C531.154 258.589 530.582 258.589 529.958 258.641C529.386 258.641 528.84 258.667 528.32 258.719C527.696 258.771 527.072 258.849 526.448 258.953C525.98 258.953 525.694 258.901 525.59 258.797C525.538 258.745 525.46 258.511 525.356 258.095C525.096 257.783 524.94 257.549 524.888 257.393C524.888 257.185 524.862 257.003 524.81 256.847C524.81 256.743 524.81 256.613 524.81 256.457C524.81 256.301 524.862 256.015 524.966 255.599C524.914 255.547 524.888 255.417 524.888 255.209C524.888 255.001 524.888 254.767 524.888 254.507V253.571C524.004 253.571 523.094 253.545 522.158 253.493C521.378 253.441 520.494 253.415 519.506 253.415C518.518 253.363 517.582 253.337 516.698 253.337C515.97 253.233 515.346 253.207 514.826 253.259C514.358 253.259 513.942 253.259 513.578 253.259C513.162 253.311 512.798 253.337 512.486 253.337C512.174 253.337 511.966 253.467 511.862 253.727C511.81 253.935 511.654 254.481 511.394 255.365C511.238 255.833 511.108 256.249 511.004 256.613C510.9 256.977 510.796 257.289 510.692 257.549C510.588 257.861 510.51 258.147 510.458 258.407C510.198 258.667 509.912 258.719 509.6 258.563C509.288 258.407 508.69 258.251 507.806 258.095C506.922 258.095 506.194 258.043 505.622 257.939C505.05 257.835 504.244 257.783 503.204 257.783C502.788 257.679 502.346 257.627 501.878 257.627C501.462 257.627 501.098 257.601 500.786 257.549C500.37 257.549 500.006 257.523 499.694 257.471C499.434 257.471 499.33 257.419 499.382 257.315C499.434 257.159 499.434 257.003 499.382 256.847C499.226 256.691 499.148 256.431 499.148 256.067C499.148 255.911 499.174 255.755 499.226 255.599C499.226 255.547 499.434 254.741 499.85 253.181C500.318 251.569 500.916 249.515 501.644 247.019C502.424 244.523 503.256 241.715 504.14 238.595C505.076 235.475 506.012 232.303 506.948 229.079C507.78 226.219 508.56 223.437 509.288 220.733C510.068 217.977 510.744 215.507 511.316 213.323C511.888 211.139 512.33 209.345 512.642 207.941C513.006 206.485 513.188 205.601 513.188 205.289C513.396 204.561 513.604 204.197 513.812 204.197C514.02 204.197 514.358 204.197 514.826 204.197H516.854C516.802 204.145 516.828 204.067 516.932 203.963C516.984 203.963 517.036 203.937 517.088 203.885C517.972 203.729 518.96 203.651 520.052 203.651C521.196 203.599 522.288 203.573 523.328 203.573C524.056 203.469 524.784 203.469 525.512 203.573C526.24 203.677 527.124 203.833 528.164 204.041C528.424 204.093 528.658 204.119 528.866 204.119C529.074 204.119 529.672 204.223 530.66 204.431C531.232 204.587 531.778 204.717 532.298 204.821C532.818 204.873 533.286 204.925 533.702 204.977C534.17 205.029 534.612 205.055 535.028 205.055C535.288 205.055 535.418 205.159 535.418 205.367C535.418 205.471 535.392 205.549 535.34 205.601L535.184 205.991C535.444 206.095 535.6 206.173 535.652 206.225C535.704 206.277 535.756 206.303 535.808 206.303C535.808 206.355 535.834 206.407 535.886 206.459C535.938 206.511 535.964 206.563 535.964 206.615C536.016 206.667 536.094 206.745 536.198 206.849ZM523.796 242.807C523.692 239.219 523.562 236.099 523.406 233.447C523.302 230.743 523.146 228.377 522.938 226.349C522.782 224.269 522.574 222.449 522.314 220.889C522.054 219.329 521.768 217.847 521.456 216.443C521.404 216.339 521.378 216.443 521.378 216.755C521.378 216.911 521.352 217.093 521.3 217.301C520.988 218.653 520.624 220.031 520.208 221.435C519.844 222.631 519.428 224.009 518.96 225.569C518.544 227.129 518.102 228.689 517.634 230.249C517.218 231.861 516.776 233.395 516.308 234.851C515.892 236.307 515.502 237.607 515.138 238.751C514.722 240.103 514.306 241.351 513.89 242.495H514.202C515.294 242.599 516.386 242.677 517.478 242.729C518.414 242.833 519.428 242.911 520.52 242.963C521.664 242.963 522.704 243.015 523.64 243.119C523.848 243.275 523.9 243.171 523.796 242.807ZM583.217 247.331C583.321 247.227 583.295 247.045 583.139 246.785C583.035 246.525 582.957 246.291 582.905 246.083C582.853 245.927 582.827 245.771 582.827 245.615C582.827 245.407 582.827 245.251 582.827 245.147C582.827 244.991 582.853 244.835 582.905 244.679C583.425 242.495 583.997 240.259 584.621 237.971C585.245 235.683 585.843 233.629 586.415 231.809C587.507 228.533 588.183 225.647 588.443 223.151C588.703 220.603 588.755 218.471 588.599 216.755C588.443 214.987 588.183 213.635 587.819 212.699C587.507 211.711 587.351 211.165 587.351 211.061C587.299 210.801 587.221 210.619 587.117 210.515C587.065 210.463 586.987 210.437 586.883 210.437C585.843 214.233 584.985 217.717 584.309 220.889C583.633 224.009 582.931 226.817 582.203 229.313C580.643 235.137 579.499 239.713 578.771 243.041C578.043 246.369 577.549 248.891 577.289 250.607C577.029 252.271 576.925 253.337 576.977 253.805C577.029 254.221 577.055 254.481 577.055 254.585C577.055 254.741 577.237 255.001 577.601 255.365C578.017 255.729 578.511 255.911 579.083 255.911C580.799 255.651 582.567 255.495 584.387 255.443C586.259 255.339 587.975 255.287 589.535 255.287C591.095 255.287 592.421 255.313 593.513 255.365C594.605 255.365 595.281 255.365 595.541 255.365C596.217 255.365 596.373 255.599 596.009 256.067C595.957 256.119 595.931 256.197 595.931 256.301C595.931 256.509 596.035 256.639 596.243 256.691L596.399 257.393C596.191 257.601 596.165 257.913 596.321 258.329C596.113 258.225 595.619 258.173 594.839 258.173C594.059 258.121 593.201 258.095 592.265 258.095C591.381 258.095 590.523 258.121 589.691 258.173C588.859 258.173 588.339 258.173 588.131 258.173C586.935 258.173 585.999 258.199 585.323 258.251C584.647 258.251 584.075 258.277 583.607 258.329C583.191 258.329 582.775 258.355 582.359 258.407C581.995 258.407 581.475 258.433 580.799 258.485C580.175 258.485 579.317 258.511 578.225 258.563C577.133 258.563 575.651 258.563 573.779 258.563C572.271 258.563 571.075 258.511 570.191 258.407C569.307 258.303 568.605 258.199 568.085 258.095C567.513 257.939 567.097 257.783 566.837 257.627C566.577 257.419 566.213 256.925 565.745 256.145C565.329 255.365 565.043 253.987 564.887 252.011C564.887 251.491 564.991 250.555 565.199 249.203C565.459 247.799 565.771 246.161 566.135 244.289C566.551 242.417 567.019 240.363 567.539 238.127C568.059 235.891 568.605 233.655 569.177 231.419C570.477 226.167 571.933 220.369 573.545 214.025C573.545 213.817 573.597 213.479 573.701 213.011C573.805 212.491 573.909 211.971 574.013 211.451C574.169 210.931 574.299 210.463 574.403 210.047C574.559 209.579 574.663 209.241 574.715 209.033C574.871 208.877 575.001 208.591 575.105 208.175C575.261 207.759 575.391 207.343 575.495 206.927C575.599 206.459 575.703 206.043 575.807 205.679C575.911 205.315 576.015 205.133 576.119 205.133C576.015 204.977 576.015 204.795 576.119 204.587C576.275 204.327 576.821 204.197 577.757 204.197C579.525 204.301 581.007 204.327 582.203 204.275C583.451 204.171 584.491 204.093 585.323 204.041C586.207 203.937 586.935 203.833 587.507 203.729C588.131 203.625 588.703 203.573 589.223 203.573C591.667 203.781 593.643 204.457 595.151 205.601C596.659 206.693 597.829 208.045 598.661 209.657C599.493 211.269 600.039 213.011 600.299 214.883C600.559 216.703 600.663 218.419 600.611 220.031C600.611 221.643 600.507 223.073 600.299 224.321C600.143 225.517 600.013 226.271 599.909 226.583C599.857 226.947 599.701 227.701 599.441 228.845C599.181 229.937 598.869 231.211 598.505 232.667C598.141 234.123 597.725 235.657 597.257 237.269C596.789 238.881 596.347 240.389 595.931 241.793C595.567 243.197 595.229 244.393 594.917 245.381C594.605 246.317 594.397 246.863 594.293 247.019C593.981 246.967 593.331 246.941 592.343 246.941C591.407 246.941 590.393 246.993 589.301 247.097C588.261 247.149 587.299 247.201 586.415 247.253C585.531 247.305 585.011 247.331 584.855 247.331C584.491 247.487 584.127 247.565 583.763 247.565C583.399 247.565 583.217 247.487 583.217 247.331ZM600.611 256.925C600.611 256.821 600.741 256.249 601.001 255.209C601.313 254.117 601.625 252.609 601.937 250.685C602.249 249.281 602.561 247.721 602.873 246.005C603.237 244.237 603.575 242.391 603.887 240.467C604.251 238.491 604.589 236.489 604.901 234.461C605.265 232.433 605.603 230.405 605.915 228.377C606.435 225.101 606.929 221.981 607.397 219.017C607.865 216.053 608.229 213.479 608.489 211.295C608.541 210.827 608.593 210.307 608.645 209.735C608.697 209.111 608.749 208.539 608.801 208.019C608.853 207.447 608.905 206.849 608.957 206.225C609.009 206.069 609.087 205.991 609.191 205.991C609.295 205.939 609.425 205.887 609.581 205.835C609.789 205.783 610.049 205.731 610.361 205.679C610.673 205.575 611.089 205.367 611.609 205.055C611.661 205.003 611.687 204.977 611.687 204.977C611.739 204.925 611.817 204.925 611.921 204.977C612.077 204.977 612.311 205.003 612.623 205.055C612.935 205.055 613.429 205.055 614.105 205.055C614.521 205.003 614.989 204.951 615.509 204.899C616.081 204.795 616.653 204.717 617.225 204.665C617.797 204.613 618.317 204.613 618.785 204.665C619.305 204.665 619.721 204.691 620.033 204.743C620.657 204.743 621.177 204.847 621.593 205.055C622.009 205.211 622.451 205.289 622.919 205.289C623.127 205.393 623.231 205.627 623.231 205.991C623.283 206.355 623.257 206.771 623.153 207.239C623.101 207.707 623.023 208.201 622.919 208.721C622.815 209.241 622.763 209.657 622.763 209.969C622.711 210.385 622.607 211.113 622.451 212.153C622.295 213.141 622.113 214.181 621.905 215.273C621.697 216.365 621.515 217.379 621.359 218.315C621.203 219.251 621.099 219.797 621.047 219.953C620.995 220.109 620.891 220.551 620.735 221.279C620.631 222.007 620.527 222.813 620.423 223.697C620.319 224.529 620.189 225.309 620.033 226.037C619.929 226.713 619.851 227.129 619.799 227.285C619.903 227.233 620.215 227.155 620.735 227.051C621.307 226.947 621.879 226.843 622.451 226.739C623.127 226.635 623.855 226.531 624.635 226.427C624.687 226.427 624.791 225.933 624.947 224.945C625.155 223.957 625.389 222.735 625.649 221.279C625.909 219.771 626.195 218.133 626.507 216.365C626.819 214.545 627.105 212.855 627.365 211.295C627.625 209.735 627.859 208.409 628.067 207.317C628.275 206.173 628.431 205.497 628.535 205.289C628.483 205.029 628.613 204.925 628.925 204.977C629.237 204.977 629.471 204.899 629.627 204.743C629.887 204.587 630.225 204.431 630.641 204.275C631.057 204.119 631.395 204.041 631.655 204.041C631.811 204.041 632.149 204.067 632.669 204.119C633.189 204.119 633.761 204.119 634.385 204.119C635.061 204.119 635.711 204.093 636.335 204.041C636.959 203.989 637.453 203.885 637.817 203.729C638.753 203.573 639.611 203.547 640.391 203.651C641.171 203.755 641.769 203.885 642.185 204.041C642.809 204.405 643.121 204.899 643.121 205.523C643.121 205.835 643.069 206.173 642.965 206.537C642.965 206.693 642.757 207.707 642.341 209.579C641.925 211.451 641.431 213.843 640.859 216.755C640.703 217.795 640.495 218.913 640.235 220.109C639.975 221.253 639.741 222.423 639.533 223.619C639.273 224.555 639.039 225.491 638.831 226.427C638.675 227.311 638.519 228.247 638.363 229.235C637.791 232.511 637.219 235.761 636.647 238.985C636.127 242.157 635.633 245.043 635.165 247.643C634.749 250.191 634.385 252.297 634.073 253.961C633.813 255.625 633.657 256.535 633.605 256.691C633.709 257.107 633.579 257.315 633.215 257.315C632.903 257.263 632.591 257.237 632.279 257.237H627.521C627.209 257.237 626.767 257.263 626.195 257.315C625.623 257.315 625.051 257.341 624.479 257.393C623.803 257.445 623.075 257.497 622.295 257.549C621.983 257.549 621.593 257.601 621.125 257.705C620.709 257.809 620.475 257.757 620.423 257.549C620.163 257.133 620.033 256.665 620.033 256.145C619.981 255.885 619.981 255.625 620.033 255.365C620.189 255.209 620.371 254.533 620.579 253.337C620.787 252.089 620.995 250.685 621.203 249.125C621.359 248.085 621.515 247.071 621.671 246.083C621.879 245.095 622.035 244.211 622.139 243.431C622.295 242.495 622.425 241.611 622.529 240.779C622.425 240.779 622.087 240.805 621.515 240.857C620.943 240.857 620.319 240.883 619.643 240.935L616.991 241.091C616.939 241.507 616.861 241.975 616.757 242.495C616.653 242.911 616.523 243.405 616.367 243.977C616.263 244.549 616.159 245.147 616.055 245.771C615.795 247.019 615.587 248.267 615.431 249.515C615.327 250.711 615.145 251.933 614.885 253.181C614.521 254.273 614.261 255.235 614.105 256.067C614.001 256.899 613.949 257.393 613.949 257.549C613.897 257.705 613.715 257.809 613.403 257.861C613.091 257.913 612.727 257.965 612.311 258.017C611.895 258.017 611.427 258.017 610.907 258.017C610.439 257.965 610.023 257.939 609.659 257.939C608.827 257.731 608.177 257.627 607.709 257.627C607.241 257.627 606.643 257.731 605.915 257.939C605.499 257.991 605.187 258.043 604.979 258.095C604.823 258.095 604.667 258.121 604.511 258.173C604.407 258.173 604.303 258.173 604.199 258.173C604.095 258.173 603.939 258.173 603.731 258.173C603.315 258.173 602.847 258.225 602.327 258.329C602.119 258.381 601.885 258.433 601.625 258.485C601.053 258.485 600.715 258.225 600.611 257.705C600.559 257.497 600.559 257.237 600.611 256.925ZM652.06 205.133C652.424 205.081 652.788 205.029 653.152 204.977C653.672 204.925 654.27 204.795 654.946 204.587C655.414 204.327 656.324 204.119 657.676 203.963C659.028 203.807 660.614 203.703 662.434 203.651C664.254 203.547 666.178 203.495 668.206 203.495C670.286 203.443 672.262 203.443 674.134 203.495C676.058 203.547 677.774 203.625 679.282 203.729C680.842 203.833 681.986 203.963 682.714 204.119C682.766 204.223 682.792 204.405 682.792 204.665C682.792 204.925 682.74 205.263 682.636 205.679C682.584 206.043 682.506 206.563 682.402 207.239C682.246 207.967 682.116 208.513 682.012 208.877C681.96 209.241 681.908 209.527 681.856 209.735C681.804 209.943 681.752 210.125 681.7 210.281C681.648 210.385 681.544 210.541 681.388 210.749C681.284 210.749 681.232 210.853 681.232 211.061C681.284 211.217 681.31 211.399 681.31 211.607C681.31 211.867 681.336 212.153 681.388 212.465V212.777C681.388 212.881 681.362 212.985 681.31 213.089C681.258 213.193 681.206 213.297 681.154 213.401C680.894 213.401 680.738 213.427 680.686 213.479C680.686 213.479 680.686 213.557 680.686 213.713C680.582 213.869 680.478 213.999 680.374 214.103C680.322 214.207 679.932 214.285 679.204 214.337C678.476 214.337 677.28 214.337 675.616 214.337C673.952 214.285 671.508 214.181 668.284 214.025C667.712 214.025 667.036 214.025 666.256 214.025C665.476 214.025 664.696 214.051 663.916 214.103C663.136 214.103 662.46 214.129 661.888 214.181C661.316 214.181 661.004 214.207 660.952 214.259C660.952 214.363 660.874 214.935 660.718 215.975C660.562 217.015 660.38 218.133 660.172 219.329L659.392 224.165L662.98 224.009C663.396 224.113 664.046 224.165 664.93 224.165C665.814 224.113 666.724 224.087 667.66 224.087C668.596 224.087 669.48 224.113 670.312 224.165C671.196 224.165 671.82 224.243 672.184 224.399C673.224 224.659 673.822 224.919 673.978 225.179C674.134 225.387 674.212 225.569 674.212 225.725C674.108 225.829 674.03 226.063 673.978 226.427C673.978 226.739 673.952 227.129 673.9 227.597C673.848 228.013 673.822 228.429 673.822 228.845C673.822 229.209 673.822 229.469 673.822 229.625C673.822 229.885 673.718 230.119 673.51 230.327C673.354 230.535 673.198 230.743 673.042 230.951C672.886 230.951 672.782 231.081 672.73 231.341C672.73 231.601 672.73 231.887 672.73 232.199C672.73 232.511 672.6 232.979 672.34 233.603C672.132 234.227 671.638 234.591 670.858 234.695C670.546 234.799 669.974 234.877 669.142 234.929C668.362 234.981 667.452 235.007 666.412 235.007C665.372 235.007 664.306 235.007 663.214 235.007C662.122 234.955 661.108 234.955 660.172 235.007C659.236 235.007 658.456 235.033 657.832 235.085C657.208 235.137 656.87 235.241 656.818 235.397C656.714 235.657 656.506 236.437 656.194 237.737C655.934 238.985 655.622 240.337 655.258 241.793C654.842 243.509 654.4 245.407 653.932 247.487C653.984 247.487 654.296 247.513 654.868 247.565C655.44 247.565 656.116 247.591 656.896 247.643C657.676 247.695 658.482 247.747 659.314 247.799C660.198 247.799 660.952 247.799 661.576 247.799C662.148 247.903 662.98 247.981 664.072 248.033C665.216 248.085 666.334 248.163 667.426 248.267C668.57 248.319 669.584 248.371 670.468 248.423C671.404 248.423 671.95 248.423 672.106 248.423C672.262 248.423 672.184 248.631 671.872 249.047C671.612 249.411 671.482 249.749 671.482 250.061C671.482 250.321 671.43 250.841 671.326 251.621C671.222 252.401 671.066 253.051 670.858 253.571C670.702 254.039 670.598 254.403 670.546 254.663C670.494 254.923 670.39 255.313 670.234 255.833C669.974 256.301 669.844 256.717 669.844 257.081C669.844 257.445 669.74 257.757 669.532 258.017C669.376 258.277 669.012 258.485 668.44 258.641C667.92 258.745 667.01 258.745 665.71 258.641C664.306 258.641 662.85 258.615 661.342 258.563C660.042 258.511 658.586 258.485 656.974 258.485C655.414 258.433 653.88 258.407 652.372 258.407C649.98 258.199 647.952 258.147 646.288 258.251C644.676 258.355 643.74 258.407 643.48 258.407C643.272 258.407 643.064 258.355 642.856 258.251C642.7 258.147 642.544 258.043 642.388 257.939C642.284 257.835 642.232 257.653 642.232 257.393C642.336 257.237 642.284 257.081 642.076 256.925C641.868 256.769 641.66 256.691 641.452 256.691C641.348 256.691 641.244 256.509 641.14 256.145C641.036 255.781 641.062 255.339 641.218 254.819C641.374 254.611 641.452 254.403 641.452 254.195V253.571C641.452 253.415 641.504 253.311 641.608 253.259C641.764 253.155 641.842 252.921 641.842 252.557C642.31 250.789 642.778 248.709 643.246 246.317C643.766 243.873 644.286 241.299 644.806 238.595C645.222 236.827 645.638 235.007 646.054 233.135C646.522 231.263 646.938 229.365 647.302 227.441C647.614 225.673 647.9 223.879 648.16 222.059C648.472 220.239 648.836 218.523 649.252 216.911C649.46 215.143 649.668 213.531 649.876 212.075C650.084 210.567 650.292 209.293 650.5 208.253C650.708 207.213 650.942 206.433 651.202 205.913C651.462 205.341 651.748 205.081 652.06 205.133ZM680.67 248.267C680.514 244.991 680.774 241.767 681.45 238.595C682.178 235.423 683.114 232.407 684.258 229.547C685.402 226.687 686.65 224.061 688.002 221.669C689.406 219.277 690.706 217.197 691.902 215.429C693.098 213.661 694.086 212.257 694.866 211.217C695.698 210.177 696.14 209.631 696.192 209.579C696.348 209.371 696.582 209.111 696.894 208.799C697.206 208.435 697.518 208.071 697.83 207.707C698.142 207.343 698.428 207.005 698.688 206.693C698.948 206.329 699.13 206.069 699.234 205.913C699.13 205.497 699.26 205.159 699.624 204.899C700.04 204.639 700.534 204.457 701.106 204.353C701.73 204.197 702.458 204.119 703.29 204.119C703.29 204.067 703.316 204.015 703.368 203.963C703.472 203.859 703.654 203.807 703.914 203.807H706.41C707.086 203.651 707.684 203.573 708.204 203.573C708.776 203.573 709.244 203.599 709.608 203.651C710.024 203.703 710.362 203.781 710.622 203.885C710.882 203.937 711.064 203.911 711.168 203.807C711.272 203.651 711.896 203.573 713.04 203.573C714.236 203.573 715.77 203.651 717.642 203.807C718.526 203.807 719.254 203.833 719.826 203.885C720.398 203.885 720.892 203.911 721.308 203.963C721.776 204.015 722.166 204.067 722.478 204.119C724.246 204.639 725.52 205.575 726.3 206.927C727.08 208.279 727.522 209.839 727.626 211.607C727.73 213.375 727.574 215.247 727.158 217.223C726.794 219.199 726.326 221.123 725.754 222.995C725.182 224.815 724.636 226.479 724.116 227.987C723.596 229.495 723.258 230.639 723.102 231.419C722.322 231.315 721.75 231.289 721.386 231.341C721.074 231.393 720.814 231.419 720.606 231.419C720.034 231.315 719.072 231.315 717.72 231.419C716.368 231.471 715.068 231.601 713.82 231.809C713.248 231.913 712.754 231.913 712.338 231.809C711.974 231.653 711.662 231.471 711.402 231.263C711.142 231.055 710.934 230.769 710.778 230.405C710.882 230.093 711.168 229.183 711.636 227.675C712.156 226.115 712.65 224.295 713.118 222.215C713.638 220.135 714.028 217.977 714.288 215.741C714.548 213.453 714.522 211.399 714.21 209.579C714.106 208.955 713.924 208.461 713.664 208.097C713.456 207.733 713.222 207.473 712.962 207.317C712.702 207.109 712.39 207.005 712.026 207.005C708.75 210.541 705.968 213.869 703.68 216.989C701.444 220.057 699.598 222.943 698.142 225.647C696.686 228.351 695.568 230.847 694.788 233.135C694.008 235.371 693.462 237.425 693.15 239.297C692.422 243.665 692.682 247.435 693.93 250.607C694.294 251.543 694.736 252.297 695.256 252.869C695.828 253.441 696.452 253.883 697.128 254.195C697.856 254.455 698.636 254.637 699.468 254.741C700.352 254.793 701.288 254.819 702.276 254.819C703.316 254.819 704.304 254.793 705.24 254.741C706.228 254.637 707.112 254.533 707.892 254.429C708.828 254.325 709.712 254.195 710.544 254.039C710.752 253.259 711.064 252.141 711.48 250.685C711.948 249.229 712.39 247.747 712.806 246.239C713.326 244.523 713.872 242.703 714.444 240.779C713.664 240.727 712.468 240.753 710.856 240.857C709.296 240.909 707.684 240.987 706.02 241.091C704.408 241.143 702.926 241.169 701.574 241.169C700.274 241.169 699.52 241.039 699.312 240.779C699.104 240.623 698.948 240.467 698.844 240.311C698.792 240.103 698.662 239.895 698.454 239.687C698.246 239.687 698.012 239.635 697.752 239.531C697.544 239.375 697.648 239.297 698.064 239.297C698.376 239.193 698.61 239.063 698.766 238.907L699 238.673C699 238.725 699.026 238.777 699.078 238.829C699.13 238.881 699.234 238.829 699.39 238.673C699.546 238.673 699.858 238.543 700.326 238.283C700.794 238.023 701.21 237.893 701.574 237.893C701.678 237.893 701.912 237.893 702.276 237.893C702.692 237.893 703.16 237.893 703.68 237.893C704.2 237.841 704.694 237.815 705.162 237.815C705.682 237.763 706.072 237.711 706.332 237.659C707.06 237.503 707.632 237.451 708.048 237.503C708.308 237.555 708.542 237.607 708.75 237.659C709.218 237.711 710.076 237.737 711.324 237.737C712.572 237.685 713.924 237.633 715.38 237.581C716.888 237.477 718.422 237.399 719.982 237.347C721.542 237.295 722.868 237.269 723.96 237.269C725.52 237.269 726.586 237.503 727.158 237.971C727.782 238.387 727.886 238.959 727.47 239.687C727.366 240.051 727.132 240.935 726.768 242.339C726.404 243.691 726.014 245.147 725.598 246.707C725.182 248.267 724.792 249.697 724.428 250.997C724.116 252.245 723.96 252.921 723.96 253.025C723.7 253.545 723.518 254.065 723.414 254.585C723.362 255.053 723.284 255.469 723.18 255.833C723.128 256.197 722.998 256.509 722.79 256.769C722.582 256.977 722.244 257.081 721.776 257.081C721.256 256.977 720.086 256.951 718.266 257.003C716.498 257.055 714.314 257.159 711.714 257.315C709.166 257.471 706.306 257.653 703.134 257.861C700.014 258.069 696.868 258.277 693.696 258.485C690.42 258.745 687.898 258.355 686.13 257.315C684.362 256.275 683.062 255.079 682.23 253.727C681.294 252.167 680.774 250.347 680.67 248.267ZM761.303 204.119C762.551 204.795 763.487 205.757 764.111 207.005C764.787 208.201 765.229 209.605 765.437 211.217C765.697 212.777 765.775 214.493 765.671 216.365C765.567 218.185 765.411 220.057 765.203 221.981C764.943 225.101 764.449 228.455 763.721 232.043C763.045 235.579 762.031 238.985 760.679 242.261C759.379 245.537 757.715 248.553 755.687 251.309C753.659 254.013 751.241 256.093 748.433 257.549C747.809 257.861 747.029 258.121 746.093 258.329C745.209 258.485 744.299 258.589 743.363 258.641C742.479 258.745 741.647 258.797 740.867 258.797C740.139 258.797 739.645 258.797 739.385 258.797C739.229 258.901 739.021 258.953 738.761 258.953C738.501 259.005 738.319 259.031 738.215 259.031C737.539 259.031 736.915 258.901 736.343 258.641C735.823 258.329 735.381 257.965 735.017 257.549C733.197 256.145 731.923 254.247 731.195 251.855C730.467 249.411 730.129 246.733 730.181 243.821C730.233 240.909 730.597 237.867 731.273 234.695C732.001 231.523 732.911 228.481 734.003 225.569C734.679 223.177 735.537 220.863 736.577 218.627C737.669 216.339 738.839 214.259 740.087 212.387C741.335 210.515 742.609 208.903 743.909 207.551C745.261 206.199 746.535 205.263 747.731 204.743H748.277C748.589 204.743 749.057 204.691 749.681 204.587C750.305 204.431 750.903 204.275 751.475 204.119C752.099 204.119 752.671 204.119 753.191 204.119C753.763 204.067 754.257 203.989 754.673 203.885H756.155C756.623 203.885 757.013 203.833 757.325 203.729C757.689 203.625 758.001 203.573 758.261 203.573C759.197 203.573 759.899 203.651 760.367 203.807C760.835 203.911 761.147 204.015 761.303 204.119ZM742.349 253.337C743.441 252.245 744.507 250.945 745.547 249.437C746.431 248.137 747.367 246.525 748.355 244.601C749.395 242.677 750.331 240.415 751.163 237.815C752.359 234.227 753.347 230.691 754.127 227.207C754.439 225.751 754.725 224.217 754.985 222.605C755.245 220.993 755.427 219.407 755.531 217.847C755.687 216.287 755.713 214.779 755.609 213.323C755.557 211.867 755.349 210.515 754.985 209.267C754.829 209.319 754.673 209.397 754.517 209.501C754.413 209.605 754.283 209.683 754.127 209.735C754.023 209.787 753.945 209.839 753.893 209.891C753.165 210.463 752.151 211.581 750.851 213.245C749.603 214.909 748.303 216.963 746.951 219.407C745.599 221.799 744.325 224.477 743.129 227.441C741.933 230.353 741.023 233.343 740.399 236.411C739.827 239.427 739.645 242.417 739.853 245.381C740.061 248.293 740.893 250.945 742.349 253.337ZM800.81 204.431C801.226 204.795 801.408 205.523 801.356 206.615C801.356 207.707 801.226 208.955 800.966 210.359C800.758 211.711 800.498 213.115 800.186 214.571C799.926 216.027 799.744 217.249 799.64 218.237C799.172 222.189 798.626 226.271 798.002 230.483C797.43 234.695 796.65 238.647 795.662 242.339C794.674 245.979 793.426 249.125 791.918 251.777C790.41 254.429 788.538 256.145 786.302 256.925C785.47 257.705 783.806 258.095 781.31 258.095H780.374C780.114 258.251 779.646 258.355 778.97 258.407C778.294 258.407 777.722 258.407 777.254 258.407H777.956C777.02 258.407 776.136 258.199 775.304 257.783C774.472 257.367 773.692 256.847 772.964 256.223C772.288 255.547 771.69 254.793 771.17 253.961C770.65 253.129 770.234 252.271 769.922 251.387C768.934 249.099 768.284 246.499 767.972 243.587C767.66 240.623 767.556 237.607 767.66 234.539C767.764 231.419 768.024 228.351 768.44 225.335C768.856 222.319 769.298 219.589 769.766 217.145C770.286 214.649 770.754 212.569 771.17 210.905C771.638 209.241 771.95 208.201 772.106 207.785C772.418 206.745 772.782 206.017 773.198 205.601C773.666 205.185 774.186 204.925 774.758 204.821C775.382 204.665 776.058 204.587 776.786 204.587C777.514 204.535 778.32 204.379 779.204 204.119H779.828C779.984 203.963 780.14 203.885 780.296 203.885C780.452 203.833 780.686 203.807 780.998 203.807C781.31 203.807 781.596 203.885 781.856 204.041C782.116 204.145 782.246 204.275 782.246 204.431C782.558 204.847 782.714 205.341 782.714 205.913C782.714 206.433 782.558 207.161 782.246 208.097C780.166 215.793 778.84 222.293 778.268 227.597C777.696 232.901 777.514 237.269 777.722 240.701C777.93 244.133 778.346 246.759 778.97 248.579C779.646 250.347 780.218 251.569 780.686 252.245C781.726 251.309 782.636 250.009 783.416 248.345C784.248 246.681 784.976 244.783 785.6 242.651C786.224 240.519 786.77 238.231 787.238 235.787C787.706 233.343 788.096 230.925 788.408 228.533C788.772 226.089 789.084 223.723 789.344 221.435C789.604 219.147 789.838 217.067 790.046 215.195C790.15 213.011 790.28 211.165 790.436 209.657C790.592 208.097 790.748 206.849 790.904 205.913C791.06 205.029 791.58 204.509 792.464 204.353C793.348 204.197 794.206 204.119 795.038 204.119C795.298 204.119 795.636 204.119 796.052 204.119C796.52 204.067 796.988 203.963 797.456 203.807C797.716 203.807 797.976 203.755 798.236 203.651C798.548 203.547 798.808 203.495 799.016 203.495C799.9 203.495 800.498 203.807 800.81 204.431ZM800.672 254.117C800.932 253.545 801.088 253.051 801.14 252.635C801.244 252.219 801.322 251.881 801.374 251.621C801.426 251.361 801.504 251.205 801.608 251.153C801.712 251.049 801.92 251.049 802.232 251.153C802.492 251.153 802.856 251.127 803.324 251.075C803.844 251.023 804.39 250.997 804.962 250.997C805.586 250.945 806.158 250.893 806.678 250.841C807.25 250.789 807.744 250.763 808.16 250.763C808.524 250.763 808.758 250.841 808.862 250.997C808.966 251.153 808.992 251.361 808.94 251.621C808.94 251.881 808.888 252.167 808.784 252.479C808.68 252.791 808.576 253.077 808.472 253.337C808.056 254.065 807.744 254.845 807.536 255.677C807.328 256.509 807.12 257.211 806.912 257.783C806.756 258.043 806.574 258.199 806.366 258.251C806.21 258.303 805.976 258.303 805.664 258.251C805.404 258.199 805.014 258.147 804.494 258.095C804.026 258.043 803.376 258.069 802.544 258.173C801.712 258.173 801.088 258.147 800.672 258.095C800.256 257.991 799.944 257.887 799.736 257.783C799.58 257.627 799.502 257.497 799.502 257.393C799.502 257.289 799.502 257.185 799.502 257.081C799.606 256.977 799.71 256.769 799.814 256.457C799.97 256.145 800.1 255.807 800.204 255.443C800.36 255.027 800.516 254.585 800.672 254.117ZM802.544 246.317C802.648 246.213 802.778 245.745 802.934 244.913C803.09 244.029 803.272 243.015 803.48 241.871C803.688 240.675 803.896 239.453 804.104 238.205C804.312 236.905 804.52 235.787 804.728 234.851C804.832 234.279 804.988 233.473 805.196 232.433C805.456 231.341 805.716 230.119 805.976 228.767C806.288 227.415 806.6 226.011 806.912 224.555C807.276 223.099 807.588 221.747 807.848 220.499C808.16 219.199 808.42 218.055 808.628 217.067C808.888 216.027 809.07 215.299 809.174 214.883C809.278 214.207 809.434 213.375 809.642 212.387C809.902 211.399 810.162 210.411 810.422 209.423C810.734 208.435 810.994 207.525 811.202 206.693C811.462 205.809 811.644 205.185 811.748 204.821C811.956 204.249 812.216 203.989 812.528 204.041C812.84 204.041 813.204 204.041 813.62 204.041C813.88 204.041 814.4 204.041 815.18 204.041C816.012 203.989 817.104 203.885 818.456 203.729C819.184 203.729 819.678 203.807 819.938 203.963C820.25 204.119 820.432 204.301 820.484 204.509C820.536 204.717 820.484 204.951 820.328 205.211C819.704 206.511 819.002 208.409 818.222 210.905C817.494 213.401 816.74 216.157 815.96 219.173C815.18 222.189 814.426 225.309 813.698 228.533C812.97 231.705 812.32 234.617 811.748 237.269C811.176 239.921 810.708 242.157 810.344 243.977C810.032 245.745 809.876 246.759 809.876 247.019C809.72 247.747 809.486 248.189 809.174 248.345C808.914 248.449 808.68 248.501 808.472 248.501C808.056 248.345 807.354 248.267 806.366 248.267C805.43 248.215 804.52 248.189 803.636 248.189C803.272 248.189 803.012 248.111 802.856 247.955C802.7 247.799 802.596 247.617 802.544 247.409C802.492 247.201 802.466 246.993 802.466 246.785C802.518 246.577 802.544 246.421 802.544 246.317Z" fill="#112D81"/>
<g filter="url(#filter1_d_1622_2)">
<path d="M57.2714 33.6286C54.8091 25.2 61.2384 16.805 70.0174 16.9858L881.739 33.6964C885.702 33.778 889.412 35.6639 891.814 38.8182L966.419 136.798C972.892 145.3 966.915 157.546 956.23 157.673L106.36 167.766C100.527 167.835 95.3626 164.011 93.7269 158.412L57.2714 33.6286Z" fill="#343BCC"/>
</g>
<path d="M119.311 107.903C116.499 107.903 113.979 107.446 111.751 106.533C109.523 105.62 107.734 104.269 106.383 102.48C105.068 100.69 104.374 98.5352 104.301 96.0152L114.271 96.0152C114.417 97.4396 114.91 98.5352 115.75 99.3022C116.59 100.033 117.686 100.398 119.037 100.398C120.425 100.398 121.521 100.087 122.324 99.4665C123.128 98.8091 123.529 97.9144 123.529 96.7822C123.529 95.8326 123.201 95.0474 122.543 94.4265C121.923 93.8057 121.137 93.2944 120.188 92.8926C119.275 92.4909 117.96 92.0344 116.243 91.5231C113.76 90.7561 111.733 89.9892 110.163 89.2222C108.592 88.4553 107.241 87.3231 106.109 85.8257C104.977 84.3283 104.41 82.3744 104.41 79.964C104.41 76.3849 105.707 73.591 108.3 71.5823C110.893 69.5371 114.271 68.5145 118.435 68.5145C122.671 68.5145 126.086 69.5371 128.679 71.5823C131.272 73.591 132.66 76.4031 132.842 80.0188L122.708 80.0188C122.635 78.777 122.178 77.8092 121.338 77.1153C120.498 76.3849 119.421 76.0197 118.106 76.0197C116.974 76.0197 116.061 76.3301 115.367 76.951C114.673 77.5353 114.326 78.3936 114.326 79.5257C114.326 80.7675 114.91 81.7353 116.079 82.4292C117.248 83.1231 119.074 83.8718 121.557 84.6753C124.041 85.5153 126.049 86.3187 127.583 87.0857C129.154 87.8527 130.505 88.9666 131.637 90.4274C132.769 91.8883 133.336 93.7692 133.336 96.07C133.336 98.2613 132.769 100.252 131.637 102.041C130.542 103.831 128.935 105.255 126.816 106.314C124.698 107.373 122.196 107.903 119.311 107.903ZM148.468 76.5675L148.468 84.3466L161.013 84.3466L161.013 91.5779L148.468 91.5779L148.468 100.014L162.657 100.014L162.657 107.52L139.101 107.52L139.101 69.0623L162.657 69.0623L162.657 76.5675L148.468 76.5675ZM177.942 69.0623L177.942 92.0709C177.942 94.3718 178.508 96.1431 179.64 97.3848C180.773 98.6265 182.434 99.2474 184.626 99.2474C186.817 99.2474 188.497 98.6265 189.666 97.3848C190.834 96.1431 191.419 94.3718 191.419 92.0709L191.419 69.0623L200.786 69.0623L200.786 92.0161C200.786 95.4491 200.056 98.3526 198.595 100.727C197.134 103.1 195.162 104.89 192.679 106.095C190.232 107.3 187.492 107.903 184.461 107.903C181.43 107.903 178.709 107.319 176.299 106.15C173.925 104.945 172.044 103.155 170.656 100.781C169.268 98.3709 168.574 95.4491 168.574 92.0161L168.574 69.0623L177.942 69.0623ZM248.282 81.4431C248.282 83.6709 247.771 85.7161 246.748 87.5787C245.726 89.4048 244.155 90.8839 242.037 92.0161C239.919 93.1483 237.289 93.7144 234.148 93.7144L228.341 93.7144L228.341 107.52L218.974 107.52L218.974 69.0623L234.148 69.0623C237.216 69.0623 239.809 69.5919 241.927 70.651C244.046 71.7101 245.634 73.171 246.694 75.0336C247.753 76.8962 248.282 79.0327 248.282 81.4431ZM233.436 86.264C235.226 86.264 236.559 85.844 237.435 85.004C238.312 84.164 238.75 82.977 238.75 81.4431C238.75 79.9092 238.312 78.7223 237.435 77.8823C236.559 77.0423 235.226 76.6223 233.436 76.6223L228.341 76.6223L228.341 86.264L233.436 86.264ZM272.771 107.52L264.773 93.0022L262.527 93.0022L262.527 107.52L253.159 107.52L253.159 69.0623L268.882 69.0623C271.913 69.0623 274.488 69.5919 276.606 70.651C278.761 71.7101 280.368 73.171 281.427 75.0336C282.486 76.8597 283.016 78.9049 283.016 81.1692C283.016 83.7257 282.285 86.0083 280.824 88.017C279.4 90.0257 277.282 91.45 274.47 92.29L283.344 107.52L272.771 107.52ZM262.527 86.3735L268.334 86.3735C270.05 86.3735 271.329 85.9535 272.169 85.1135C273.045 84.2735 273.483 83.0866 273.483 81.5527C273.483 80.0918 273.045 78.9414 272.169 78.1014C271.329 77.2614 270.05 76.8414 268.334 76.8414L262.527 76.8414L262.527 86.3735ZM307.084 107.903C303.468 107.903 300.145 107.063 297.113 105.383C294.119 103.703 291.727 101.366 289.937 98.3709C288.184 95.3396 287.307 91.9431 287.307 88.1813C287.307 84.4196 288.184 81.0414 289.937 78.0466C291.727 75.0518 294.119 72.7145 297.113 71.0345C300.145 69.3545 303.468 68.5145 307.084 68.5145C310.7 68.5145 314.005 69.3545 316.999 71.0345C320.031 72.7145 322.405 75.0518 324.121 78.0466C325.874 81.0414 326.751 84.4196 326.751 88.1813C326.751 91.9431 325.874 95.3396 324.121 98.3709C322.368 101.366 319.994 103.703 316.999 105.383C314.005 107.063 310.7 107.903 307.084 107.903ZM307.084 99.357C310.152 99.357 312.599 98.3343 314.425 96.2891C316.287 94.2439 317.219 91.5413 317.219 88.1813C317.219 84.7848 316.287 82.0822 314.425 80.0736C312.599 78.0283 310.152 77.0057 307.084 77.0057C303.98 77.0057 301.496 78.0101 299.633 80.0188C297.807 82.0275 296.894 84.7483 296.894 88.1813C296.894 91.5779 297.807 94.2987 299.633 96.3439C301.496 98.3526 303.98 99.357 307.084 99.357ZM346.37 69.0623C350.424 69.0623 353.967 69.8658 356.998 71.4727C360.029 73.0797 362.367 75.344 364.01 78.2657C365.69 81.1509 366.53 84.4927 366.53 88.2909C366.53 92.0526 365.69 95.3944 364.01 98.3161C362.367 101.238 360.011 103.502 356.943 105.109C353.912 106.716 350.387 107.52 346.37 107.52L331.962 107.52L331.962 69.0623L346.37 69.0623ZM345.768 99.4117C349.31 99.4117 352.067 98.4439 354.04 96.5083C356.012 94.5726 356.998 91.8335 356.998 88.2909C356.998 84.7483 356.012 81.9909 354.04 80.0188C352.067 78.0466 349.31 77.0605 345.768 77.0605L341.33 77.0605L341.33 99.4117L345.768 99.4117ZM380.969 69.0623L380.969 92.0709C380.969 94.3718 381.535 96.1431 382.667 97.3848C383.799 98.6265 385.461 99.2474 387.652 99.2474C389.843 99.2474 391.523 98.6265 392.692 97.3848C393.861 96.1431 394.445 94.3718 394.445 92.0709L394.445 69.0623L403.813 69.0623L403.813 92.0161C403.813 95.4491 403.082 98.3526 401.622 100.727C400.161 103.1 398.189 104.89 395.705 106.095C393.258 107.3 390.519 107.903 387.488 107.903C384.456 107.903 381.736 107.319 379.325 106.15C376.951 104.945 375.07 103.155 373.683 100.781C372.295 98.3709 371.601 95.4491 371.601 92.0161L371.601 69.0623L380.969 69.0623ZM438.056 69.0623L438.056 76.5675L427.867 76.5675L427.867 107.52L418.499 107.52L418.499 76.5675L408.309 76.5675L408.309 69.0623L438.056 69.0623ZM460.945 107.903C457.33 107.903 454.006 107.063 450.975 105.383C447.98 103.703 445.588 101.366 443.798 98.3709C442.045 95.3396 441.169 91.9431 441.169 88.1813C441.169 84.4196 442.045 81.0414 443.798 78.0466C445.588 75.0518 447.98 72.7145 450.975 71.0345C454.006 69.3545 457.33 68.5145 460.945 68.5145C464.561 68.5145 467.866 69.3545 470.861 71.0345C473.892 72.7145 476.266 75.0518 477.983 78.0466C479.736 81.0414 480.612 84.4196 480.612 88.1813C480.612 91.9431 479.736 95.3396 477.983 98.3709C476.23 101.366 473.856 103.703 470.861 105.383C467.866 107.063 464.561 107.903 460.945 107.903ZM460.945 99.357C464.013 99.357 466.46 98.3343 468.286 96.2891C470.149 94.2439 471.08 91.5413 471.08 88.1813C471.08 84.7848 470.149 82.0822 468.286 80.0736C466.46 78.0283 464.013 77.0057 460.945 77.0057C457.841 77.0057 455.358 78.0101 453.495 80.0188C451.669 82.0275 450.756 84.7483 450.756 88.1813C450.756 91.5779 451.669 94.2987 453.495 96.3439C455.358 98.3526 457.841 99.357 460.945 99.357ZM531.836 107.52L522.469 107.52L506.801 83.7988L506.801 107.52L497.433 107.52L497.433 69.0623L506.801 69.0623L522.469 92.8926L522.469 69.0623L531.836 69.0623L531.836 107.52ZM562.567 100.727L548.214 100.727L545.913 107.52L536.107 107.52L550.022 69.0623L560.868 69.0623L574.783 107.52L564.868 107.52L562.567 100.727ZM560.156 93.4952L555.39 79.4162L550.679 93.4952L560.156 93.4952ZM544.489 66.378C545.365 60.9728 547.885 58.2702 552.048 58.2702C552.852 58.2702 553.546 58.398 554.13 58.6536C554.751 58.8728 555.5 59.2197 556.376 59.6945C557.034 60.0597 557.563 60.3336 557.965 60.5162C558.367 60.6623 558.787 60.7354 559.225 60.7354C560.576 60.7354 561.361 59.9136 561.581 58.2702L566.401 58.2702C565.525 63.6754 563.005 66.378 558.841 66.378C558.038 66.378 557.326 66.2684 556.705 66.0493C556.121 65.7936 555.39 65.4284 554.514 64.9536C553.856 64.5884 553.327 64.3327 552.925 64.1867C552.523 64.004 552.103 63.9127 551.665 63.9127C550.314 63.9127 549.51 64.7345 549.255 66.378L544.489 66.378ZM597.206 107.903C593.59 107.903 590.267 107.063 587.235 105.383C584.241 103.703 581.849 101.366 580.059 98.3709C578.306 95.3396 577.429 91.9431 577.429 88.1813C577.429 84.4196 578.306 81.0414 580.059 78.0466C581.849 75.0518 584.241 72.7145 587.235 71.0345C590.267 69.3545 593.59 68.5145 597.206 68.5145C600.821 68.5145 604.127 69.3545 607.121 71.0345C610.153 72.7145 612.527 75.0518 614.243 78.0466C615.996 81.0414 616.873 84.4196 616.873 88.1813C616.873 91.9431 615.996 95.3396 614.243 98.3709C612.49 101.366 610.116 103.703 607.121 105.383C604.127 107.063 600.821 107.903 597.206 107.903ZM597.206 99.357C600.274 99.357 602.721 98.3343 604.547 96.2891C606.409 94.2439 607.341 91.5413 607.341 88.1813C607.341 84.7848 606.409 82.0822 604.547 80.0736C602.721 78.0283 600.274 77.0057 597.206 77.0057C594.102 77.0057 591.618 78.0101 589.755 80.0188C587.929 82.0275 587.016 84.7483 587.016 88.1813C587.016 91.5779 587.929 94.2987 589.755 96.3439C591.618 98.3526 594.102 99.357 597.206 99.357ZM669.795 69.0623L656.154 107.52L644.431 107.52L630.79 69.0623L640.76 69.0623L650.293 98.097L659.879 69.0623L669.795 69.0623ZM683.078 76.5675L683.078 84.3466L695.623 84.3466L695.623 91.5779L683.078 91.5779L683.078 100.014L697.267 100.014L697.267 107.52L673.71 107.52L673.71 69.0623L697.267 69.0623L697.267 76.5675L683.078 76.5675ZM737.752 107.52L728.384 107.52L712.716 83.7988L712.716 107.52L703.348 107.52L703.348 69.0623L712.716 69.0623L728.384 92.8926L728.384 69.0623L737.752 69.0623L737.752 107.52ZM758.95 69.0623C763.004 69.0623 766.547 69.8658 769.578 71.4727C772.609 73.0797 774.946 75.344 776.59 78.2657C778.27 81.1509 779.11 84.4927 779.11 88.2909C779.11 92.0526 778.27 95.3944 776.59 98.3161C774.946 101.238 772.591 103.502 769.523 105.109C766.492 106.716 762.967 107.52 758.95 107.52L744.542 107.52L744.542 69.0623L758.95 69.0623ZM758.347 99.4117C761.89 99.4117 764.647 98.4439 766.62 96.5083C768.592 94.5726 769.578 91.8335 769.578 88.2909C769.578 84.7483 768.592 81.9909 766.62 80.0188C764.647 78.0466 761.89 77.0605 758.347 77.0605L753.91 77.0605L753.91 99.4117L758.347 99.4117ZM793.713 76.5675L793.713 84.3466L806.258 84.3466L806.258 91.5779L793.713 91.5779L793.713 100.014L807.901 100.014L807.901 107.52L784.345 107.52L784.345 69.0623L807.901 69.0623L807.901 76.5675L793.713 76.5675ZM823.187 69.0623L823.187 92.0709C823.187 94.3718 823.753 96.1431 824.885 97.3848C826.017 98.6265 827.679 99.2474 829.87 99.2474C832.061 99.2474 833.741 98.6265 834.91 97.3848C836.079 96.1431 836.663 94.3718 836.663 92.0709L836.663 69.0623L846.031 69.0623L846.031 92.0161C846.031 95.4491 845.3 98.3526 843.84 100.727C842.379 103.1 840.407 104.89 837.923 106.095C835.476 107.3 832.737 107.903 829.706 107.903C826.674 107.903 823.954 107.319 821.543 106.15C819.169 104.945 817.288 103.155 815.901 100.781C814.513 98.3709 813.819 95.4491 813.819 92.0161L813.819 69.0623L823.187 69.0623ZM863.839 66.9258C867.747 66.9258 870.87 67.9484 873.207 69.9936C875.581 72.0388 876.768 74.924 876.768 78.6492C876.768 82.0822 875.636 84.7666 873.372 86.7022C871.144 88.6013 868.185 89.5692 864.497 89.6057L864.223 93.7144L856.006 93.7144L855.732 83.5248L859.019 83.5248C861.831 83.5248 863.967 83.1779 865.428 82.484C866.925 81.7901 867.674 80.5301 867.674 78.704C867.674 77.4257 867.327 76.4214 866.633 75.691C865.939 74.9605 864.972 74.5953 863.73 74.5953C862.415 74.5953 861.392 74.9788 860.662 75.7457C859.932 76.4762 859.566 77.4805 859.566 78.7588L850.746 78.7588C850.673 76.531 851.13 74.5223 852.116 72.7327C853.139 70.9432 854.636 69.5371 856.608 68.5145C858.617 67.4553 861.027 66.9258 863.839 66.9258ZM860.224 107.958C858.58 107.958 857.229 107.483 856.17 106.533C855.147 105.547 854.636 104.342 854.636 102.918C854.636 101.457 855.147 100.233 856.17 99.2474C857.229 98.2613 858.58 97.7683 860.224 97.7683C861.831 97.7683 863.146 98.2613 864.168 99.2474C865.227 100.233 865.757 101.457 865.757 102.918C865.757 104.342 865.227 105.547 864.168 106.533C863.146 107.483 861.831 107.958 860.224 107.958Z" fill="#FAF7E0"/>
<defs>
<filter id="filter0_d_1622_2" x="0.283203" y="140.191" width="1044.61" height="198.219" filterUnits="userSpaceOnUse" color-interpolation-filters="sRGB">
<feFlood flood-opacity="0" result="BackgroundImageFix"/>
<feColorMatrix in="SourceAlpha" type="matrix" values="0 0 0 0 0 0 0 0 0 0 0 0 0 0 0 0 0 0 127 0" result="hardAlpha"/>
<feOffset dy="4"/>
<feGaussianBlur stdDeviation="2"/>
<feComposite in2="hardAlpha" operator="out"/>
<feColorMatrix type="matrix" values="0 0 0 0 0 0 0 0 0 0 0 0 0 0 0 0 0 0 0.25 0"/>
<feBlend mode="normal" in2="BackgroundImageFix" result="effect1_dropShadow_1622_2"/>
<feBlend mode="normal" in="SourceGraphic" in2="effect1_dropShadow_1622_2" result="shape"/>
</filter>
<filter id="filter1_d_1622_2" x="52.7412" y="16.9824" width="920.357" height="158.785" filterUnits="userSpaceOnUse" color-interpolation-filters="sRGB">
<feFlood flood-opacity="0" result="BackgroundImageFix"/>
<feColorMatrix in="SourceAlpha" type="matrix" values="0 0 0 0 0 0 0 0 0 0 0 0 0 0 0 0 0 0 127 0" result="hardAlpha"/>
<feOffset dy="4"/>
<feGaussianBlur stdDeviation="2"/>
<feComposite in2="hardAlpha" operator="out"/>
<feColorMatrix type="matrix" values="0 0 0 0 0 0 0 0 0 0 0 0 0 0 0 0 0 0 0.25 0"/>
<feBlend mode="normal" in2="BackgroundImageFix" result="effect1_dropShadow_1622_2"/>
<feBlend mode="normal" in="SourceGraphic" in2="effect1_dropShadow_1622_2" result="shape"/>
</filter>
</defs>
</svg>
