<svg width="1250" height="388" viewBox="0 0 1250 388" fill="none" xmlns="http://www.w3.org/2000/svg">
<g filter="url(#filter0_d_916_3)">
<path d="M4.44366 168.554C2.19853 159.396 9.23212 150.593 18.6602 150.762L1231.48 172.472C1240.36 172.631 1246.98 180.735 1245.35 189.472L1213.25 361.979C1211.98 368.759 1206.08 373.688 1199.19 373.722L67.4614 379.335C60.8153 379.368 55.0133 374.84 53.4309 368.385L4.44366 168.554Z" fill="#FFDD41"/>
</g>
<path d="M263.213 242.12C265.803 244.64 267.658 247.755 268.778 251.465C269.898 255.105 270.283 258.92 269.933 262.91C269.653 266.83 268.638 270.715 266.888 274.565C265.138 278.345 262.688 281.67 259.538 284.54C257.158 286.57 254.358 288.355 251.138 289.895C247.988 291.365 244.313 292.24 240.113 292.52C238.923 292.52 238.013 292.45 237.383 292.31C236.823 292.1 236.438 291.995 236.228 291.995C236.018 291.995 235.563 292.1 234.863 292.31C234.233 292.45 233.638 292.52 233.078 292.52C232.658 292.52 232.308 292.59 232.028 292.73C231.888 292.8 231.783 292.835 231.713 292.835C231.223 295.775 230.768 298.4 230.348 300.71C229.998 302.74 229.613 304.665 229.193 306.485C228.843 308.305 228.598 309.495 228.458 310.055C228.388 310.475 228.143 310.72 227.723 310.79C227.303 310.79 226.813 310.755 226.253 310.685C225.693 310.545 225.098 310.37 224.468 310.16C223.908 309.95 223.418 309.775 222.998 309.635C222.228 309.635 221.248 309.74 220.058 309.95C218.868 310.09 217.783 310.3 216.803 310.58C215.543 310.93 214.738 310.93 214.388 310.58C214.108 310.23 213.723 309.495 213.233 308.375C213.093 308.095 213.128 306.695 213.338 304.175C213.548 301.585 213.968 298.4 214.598 294.62C215.228 290.84 216.033 286.71 217.013 282.23C218.063 277.68 219.323 273.235 220.793 268.895C221.773 266.375 222.508 264.065 222.998 261.965C223.488 259.795 223.978 257.24 224.468 254.3C224.958 252.41 225.378 250.625 225.728 248.945C226.078 247.265 226.393 245.83 226.673 244.64C226.953 243.24 227.198 241.945 227.408 240.755C227.548 240.545 227.618 240.23 227.618 239.81C227.688 239.39 227.933 239.18 228.353 239.18C228.703 238.83 229.053 238.62 229.403 238.55C229.823 238.41 230.208 238.27 230.558 238.13C230.908 238.06 231.223 237.99 231.503 237.92C232.413 238.06 233.113 238.095 233.603 238.025C234.163 237.885 234.688 237.745 235.178 237.605C235.738 237.465 236.333 237.36 236.963 237.29C237.593 237.22 238.433 237.29 239.483 237.5C239.693 237.29 240.148 237.29 240.848 237.5C241.548 237.64 242.948 237.5 245.048 237.08H250.403C253.203 237.5 255.618 238.095 257.648 238.865C259.678 239.565 261.533 240.65 263.213 242.12ZM253.763 264.275C254.323 261.615 254.463 258.99 254.183 256.4C253.973 254.16 253.308 251.85 252.188 249.47C251.138 247.09 249.248 245.06 246.518 243.38C245.818 242.96 245.258 242.785 244.838 242.855C244.418 242.855 244.103 242.75 243.893 242.54C243.893 242.75 243.858 242.995 243.788 243.275C243.718 243.485 243.648 243.73 243.578 244.01C243.508 244.22 243.438 244.395 243.368 244.535C243.368 244.745 243.298 245.165 243.158 245.795C243.088 246.355 242.948 246.985 242.738 247.685C242.528 248.385 242.318 249.05 242.108 249.68C241.898 250.31 241.723 250.835 241.583 251.255C241.513 251.675 241.373 252.27 241.163 253.04C241.023 253.81 240.848 254.65 240.638 255.56C240.428 256.4 240.218 257.205 240.008 257.975C239.868 258.745 239.798 259.34 239.798 259.76C239.868 260.18 239.833 260.74 239.693 261.44C239.623 262.07 239.483 262.735 239.273 263.435C239.133 264.135 238.958 264.8 238.748 265.43C238.538 266.06 238.363 266.515 238.223 266.795C238.083 267.005 237.838 267.67 237.488 268.79C237.208 269.91 236.858 271.24 236.438 272.78C236.088 274.32 235.703 275.965 235.283 277.715C234.863 279.465 234.478 281.11 234.128 282.65C233.848 284.19 233.638 285.485 233.498 286.535C233.358 287.585 233.323 288.18 233.393 288.32C233.673 288.32 234.653 287.97 236.333 287.27C238.083 286.57 240.043 285.345 242.213 283.595C244.383 281.775 246.553 279.325 248.723 276.245C250.893 273.095 252.573 269.105 253.763 264.275ZM284.642 238.97C285.132 238.9 285.622 238.83 286.112 238.76C286.812 238.69 287.617 238.515 288.527 238.235C289.157 237.885 290.382 237.605 292.202 237.395C294.022 237.185 296.157 237.045 298.607 236.975C301.057 236.835 303.647 236.765 306.377 236.765C309.177 236.695 311.837 236.695 314.357 236.765C316.947 236.835 319.257 236.94 321.287 237.08C323.387 237.22 324.927 237.395 325.907 237.605C325.977 237.745 326.012 237.99 326.012 238.34C326.012 238.69 325.942 239.145 325.802 239.705C325.732 240.195 325.627 240.895 325.487 241.805C325.277 242.785 325.102 243.52 324.962 244.01C324.892 244.5 324.822 244.885 324.752 245.165C324.682 245.445 324.612 245.69 324.542 245.9C324.472 246.04 324.332 246.25 324.122 246.53C323.982 246.53 323.912 246.67 323.912 246.95C323.982 247.16 324.017 247.405 324.017 247.685C324.017 248.035 324.052 248.42 324.122 248.84V249.26C324.122 249.4 324.087 249.54 324.017 249.68C323.947 249.82 323.877 249.96 323.807 250.1C323.457 250.1 323.247 250.135 323.177 250.205C323.177 250.205 323.177 250.31 323.177 250.52C323.037 250.73 322.897 250.905 322.757 251.045C322.687 251.185 322.162 251.29 321.182 251.36C320.202 251.36 318.592 251.36 316.352 251.36C314.112 251.29 310.822 251.15 306.482 250.94C305.712 250.94 304.802 250.94 303.752 250.94C302.702 250.94 301.652 250.975 300.602 251.045C299.552 251.045 298.642 251.08 297.872 251.15C297.102 251.15 296.682 251.185 296.612 251.255C296.612 251.395 296.507 252.165 296.297 253.565C296.087 254.965 295.842 256.47 295.562 258.08L294.512 264.59L299.342 264.38C299.902 264.52 300.777 264.59 301.967 264.59C303.157 264.52 304.382 264.485 305.642 264.485C306.902 264.485 308.092 264.52 309.212 264.59C310.402 264.59 311.242 264.695 311.732 264.905C313.132 265.255 313.937 265.605 314.147 265.955C314.357 266.235 314.462 266.48 314.462 266.69C314.322 266.83 314.217 267.145 314.147 267.635C314.147 268.055 314.112 268.58 314.042 269.21C313.972 269.77 313.937 270.33 313.937 270.89C313.937 271.38 313.937 271.73 313.937 271.94C313.937 272.29 313.797 272.605 313.517 272.885C313.307 273.165 313.097 273.445 312.887 273.725C312.677 273.725 312.537 273.9 312.467 274.25C312.467 274.6 312.467 274.985 312.467 275.405C312.467 275.825 312.292 276.455 311.942 277.295C311.662 278.135 310.997 278.625 309.947 278.765C309.527 278.905 308.757 279.01 307.637 279.08C306.587 279.15 305.362 279.185 303.962 279.185C302.562 279.185 301.127 279.185 299.657 279.185C298.187 279.115 296.822 279.115 295.562 279.185C294.302 279.185 293.252 279.22 292.412 279.29C291.572 279.36 291.117 279.5 291.047 279.71C290.907 280.06 290.627 281.11 290.207 282.86C289.857 284.54 289.437 286.36 288.947 288.32C288.387 290.63 287.792 293.185 287.162 295.985C287.232 295.985 287.652 296.02 288.422 296.09C289.192 296.09 290.102 296.125 291.152 296.195C292.202 296.265 293.287 296.335 294.407 296.405C295.597 296.405 296.612 296.405 297.452 296.405C298.222 296.545 299.342 296.65 300.812 296.72C302.352 296.79 303.857 296.895 305.327 297.035C306.867 297.105 308.232 297.175 309.422 297.245C310.682 297.245 311.417 297.245 311.627 297.245C311.837 297.245 311.732 297.525 311.312 298.085C310.962 298.575 310.787 299.03 310.787 299.45C310.787 299.8 310.717 300.5 310.577 301.55C310.437 302.6 310.227 303.475 309.947 304.175C309.737 304.805 309.597 305.295 309.527 305.645C309.457 305.995 309.317 306.52 309.107 307.22C308.757 307.85 308.582 308.41 308.582 308.9C308.582 309.39 308.442 309.81 308.162 310.16C307.952 310.51 307.462 310.79 306.692 311C305.992 311.14 304.767 311.14 303.017 311C301.127 311 299.167 310.965 297.137 310.895C295.387 310.825 293.427 310.79 291.257 310.79C289.157 310.72 287.092 310.685 285.062 310.685C281.842 310.405 279.112 310.335 276.872 310.475C274.702 310.615 273.442 310.685 273.092 310.685C272.812 310.685 272.532 310.615 272.252 310.475C272.042 310.335 271.832 310.195 271.622 310.055C271.482 309.915 271.412 309.67 271.412 309.32C271.552 309.11 271.482 308.9 271.202 308.69C270.922 308.48 270.642 308.375 270.362 308.375C270.222 308.375 270.082 308.13 269.942 307.64C269.802 307.15 269.837 306.555 270.047 305.855C270.257 305.575 270.362 305.295 270.362 305.015V304.175C270.362 303.965 270.432 303.825 270.572 303.755C270.782 303.615 270.887 303.3 270.887 302.81C271.517 300.43 272.147 297.63 272.777 294.41C273.477 291.12 274.177 287.655 274.877 284.015C275.437 281.635 275.997 279.185 276.557 276.665C277.187 274.145 277.747 271.59 278.237 269C278.657 266.62 279.042 264.205 279.392 261.755C279.812 259.305 280.302 256.995 280.862 254.825C281.142 252.445 281.422 250.275 281.702 248.315C281.982 246.285 282.262 244.57 282.542 243.17C282.822 241.77 283.137 240.72 283.487 240.02C283.837 239.25 284.222 238.9 284.642 238.97ZM347.725 295.775C347.865 295.635 347.83 295.39 347.62 295.04C347.48 294.69 347.375 294.375 347.305 294.095C347.235 293.885 347.2 293.675 347.2 293.465C347.2 293.185 347.2 292.975 347.2 292.835C347.2 292.625 347.235 292.415 347.305 292.205C348.005 289.265 348.775 286.255 349.615 283.175C350.455 280.095 351.26 277.33 352.03 274.88C353.5 270.47 354.41 266.585 354.76 263.225C355.11 259.795 355.18 256.925 354.97 254.615C354.76 252.235 354.41 250.415 353.92 249.155C353.5 247.825 353.29 247.09 353.29 246.95C353.22 246.6 353.115 246.355 352.975 246.215C352.905 246.145 352.8 246.11 352.66 246.11C351.26 251.22 350.105 255.91 349.195 260.18C348.285 264.38 347.34 268.16 346.36 271.52C344.26 279.36 342.72 285.52 341.74 290C340.76 294.48 340.095 297.875 339.745 300.185C339.395 302.425 339.255 303.86 339.325 304.49C339.395 305.05 339.43 305.4 339.43 305.54C339.43 305.75 339.675 306.1 340.165 306.59C340.725 307.08 341.39 307.325 342.16 307.325C344.47 306.975 346.85 306.765 349.3 306.695C351.82 306.555 354.13 306.485 356.23 306.485C358.33 306.485 360.115 306.52 361.585 306.59C363.055 306.59 363.965 306.59 364.315 306.59C365.225 306.59 365.435 306.905 364.945 307.535C364.875 307.605 364.84 307.71 364.84 307.85C364.84 308.13 364.98 308.305 365.26 308.375L365.47 309.32C365.19 309.6 365.155 310.02 365.365 310.58C365.085 310.44 364.42 310.37 363.37 310.37C362.32 310.3 361.165 310.265 359.905 310.265C358.715 310.265 357.56 310.3 356.44 310.37C355.32 310.37 354.62 310.37 354.34 310.37C352.73 310.37 351.47 310.405 350.56 310.475C349.65 310.475 348.88 310.51 348.25 310.58C347.69 310.58 347.13 310.615 346.57 310.685C346.08 310.685 345.38 310.72 344.47 310.79C343.63 310.79 342.475 310.825 341.005 310.895C339.535 310.895 337.54 310.895 335.02 310.895C332.99 310.895 331.38 310.825 330.19 310.685C329 310.545 328.055 310.405 327.355 310.265C326.585 310.055 326.025 309.845 325.675 309.635C325.325 309.355 324.835 308.69 324.205 307.64C323.645 306.59 323.26 304.735 323.05 302.075C323.05 301.375 323.19 300.115 323.47 298.295C323.82 296.405 324.24 294.2 324.73 291.68C325.29 289.16 325.92 286.395 326.62 283.385C327.32 280.375 328.055 277.365 328.825 274.355C330.575 267.285 332.535 259.48 334.705 250.94C334.705 250.66 334.775 250.205 334.915 249.575C335.055 248.875 335.195 248.175 335.335 247.475C335.545 246.775 335.72 246.145 335.86 245.585C336.07 244.955 336.21 244.5 336.28 244.22C336.49 244.01 336.665 243.625 336.805 243.065C337.015 242.505 337.19 241.945 337.33 241.385C337.47 240.755 337.61 240.195 337.75 239.705C337.89 239.215 338.03 238.97 338.17 238.97C338.03 238.76 338.03 238.515 338.17 238.235C338.38 237.885 339.115 237.71 340.375 237.71C342.755 237.85 344.75 237.885 346.36 237.815C348.04 237.675 349.44 237.57 350.56 237.5C351.75 237.36 352.73 237.22 353.5 237.08C354.34 236.94 355.11 236.87 355.81 236.87C359.1 237.15 361.76 238.06 363.79 239.6C365.82 241.07 367.395 242.89 368.515 245.06C369.635 247.23 370.37 249.575 370.72 252.095C371.07 254.545 371.21 256.855 371.14 259.025C371.14 261.195 371 263.12 370.72 264.8C370.51 266.41 370.335 267.425 370.195 267.845C370.125 268.335 369.915 269.35 369.565 270.89C369.215 272.36 368.795 274.075 368.305 276.035C367.815 277.995 367.255 280.06 366.625 282.23C365.995 284.4 365.4 286.43 364.84 288.32C364.35 290.21 363.895 291.82 363.475 293.15C363.055 294.41 362.775 295.145 362.635 295.355C362.215 295.285 361.34 295.25 360.01 295.25C358.75 295.25 357.385 295.32 355.915 295.46C354.515 295.53 353.22 295.6 352.03 295.67C350.84 295.74 350.14 295.775 349.93 295.775C349.44 295.985 348.95 296.09 348.46 296.09C347.97 296.09 347.725 295.985 347.725 295.775ZM371.141 308.69C371.141 308.55 371.316 307.78 371.666 306.38C372.086 304.91 372.506 302.88 372.926 300.29C373.346 298.4 373.766 296.3 374.186 293.99C374.676 291.61 375.131 289.125 375.551 286.535C376.041 283.875 376.496 281.18 376.916 278.45C377.406 275.72 377.861 272.99 378.281 270.26C378.981 265.85 379.646 261.65 380.276 257.66C380.906 253.67 381.396 250.205 381.746 247.265C381.816 246.635 381.886 245.935 381.956 245.165C382.026 244.325 382.096 243.555 382.166 242.855C382.236 242.085 382.306 241.28 382.376 240.44C382.446 240.23 382.551 240.125 382.691 240.125C382.831 240.055 383.006 239.985 383.216 239.915C383.496 239.845 383.846 239.775 384.266 239.705C384.686 239.565 385.246 239.285 385.946 238.865C386.016 238.795 386.051 238.76 386.051 238.76C386.121 238.69 386.226 238.69 386.366 238.76C386.576 238.76 386.891 238.795 387.311 238.865C387.731 238.865 388.396 238.865 389.306 238.865C389.866 238.795 390.496 238.725 391.196 238.655C391.966 238.515 392.736 238.41 393.506 238.34C394.276 238.27 394.976 238.27 395.606 238.34C396.306 238.34 396.866 238.375 397.286 238.445C398.126 238.445 398.826 238.585 399.386 238.865C399.946 239.075 400.541 239.18 401.171 239.18C401.451 239.32 401.591 239.635 401.591 240.125C401.661 240.615 401.626 241.175 401.486 241.805C401.416 242.435 401.311 243.1 401.171 243.8C401.031 244.5 400.961 245.06 400.961 245.48C400.891 246.04 400.751 247.02 400.541 248.42C400.331 249.75 400.086 251.15 399.806 252.62C399.526 254.09 399.281 255.455 399.071 256.715C398.861 257.975 398.721 258.71 398.651 258.92C398.581 259.13 398.441 259.725 398.231 260.705C398.091 261.685 397.951 262.77 397.811 263.96C397.671 265.08 397.496 266.13 397.286 267.11C397.146 268.02 397.041 268.58 396.971 268.79C397.111 268.72 397.531 268.615 398.231 268.475C399.001 268.335 399.771 268.195 400.541 268.055C401.451 267.915 402.431 267.775 403.481 267.635C403.551 267.635 403.691 266.97 403.901 265.64C404.181 264.31 404.496 262.665 404.846 260.705C405.196 258.675 405.581 256.47 406.001 254.09C406.421 251.64 406.806 249.365 407.156 247.265C407.506 245.165 407.821 243.38 408.101 241.91C408.381 240.37 408.591 239.46 408.731 239.18C408.661 238.83 408.836 238.69 409.256 238.76C409.676 238.76 409.991 238.655 410.201 238.445C410.551 238.235 411.006 238.025 411.566 237.815C412.126 237.605 412.581 237.5 412.931 237.5C413.141 237.5 413.596 237.535 414.296 237.605C414.996 237.605 415.766 237.605 416.606 237.605C417.516 237.605 418.391 237.57 419.231 237.5C420.071 237.43 420.736 237.29 421.226 237.08C422.486 236.87 423.641 236.835 424.691 236.975C425.741 237.115 426.546 237.29 427.106 237.5C427.946 237.99 428.366 238.655 428.366 239.495C428.366 239.915 428.296 240.37 428.156 240.86C428.156 241.07 427.876 242.435 427.316 244.955C426.756 247.475 426.091 250.695 425.321 254.615C425.111 256.015 424.831 257.52 424.481 259.13C424.131 260.67 423.816 262.245 423.536 263.855C423.186 265.115 422.871 266.375 422.591 267.635C422.381 268.825 422.171 270.085 421.961 271.415C421.191 275.825 420.421 280.2 419.651 284.54C418.951 288.81 418.286 292.695 417.656 296.195C417.096 299.625 416.606 302.46 416.186 304.7C415.836 306.94 415.626 308.165 415.556 308.375C415.696 308.935 415.521 309.215 415.031 309.215C414.611 309.145 414.191 309.11 413.771 309.11H407.366C406.946 309.11 406.351 309.145 405.581 309.215C404.811 309.215 404.041 309.25 403.271 309.32C402.361 309.39 401.381 309.46 400.331 309.53C399.911 309.53 399.386 309.6 398.756 309.74C398.196 309.88 397.881 309.81 397.811 309.53C397.461 308.97 397.286 308.34 397.286 307.64C397.216 307.29 397.216 306.94 397.286 306.59C397.496 306.38 397.741 305.47 398.021 303.86C398.301 302.18 398.581 300.29 398.861 298.19C399.071 296.79 399.281 295.425 399.491 294.095C399.771 292.765 399.981 291.575 400.121 290.525C400.331 289.265 400.506 288.075 400.646 286.955C400.506 286.955 400.051 286.99 399.281 287.06C398.511 287.06 397.671 287.095 396.761 287.165L393.191 287.375C393.121 287.935 393.016 288.565 392.876 289.265C392.736 289.825 392.561 290.49 392.351 291.26C392.211 292.03 392.071 292.835 391.931 293.675C391.581 295.355 391.301 297.035 391.091 298.715C390.951 300.325 390.706 301.97 390.356 303.65C389.866 305.12 389.516 306.415 389.306 307.535C389.166 308.655 389.096 309.32 389.096 309.53C389.026 309.74 388.781 309.88 388.361 309.95C387.941 310.02 387.451 310.09 386.891 310.16C386.331 310.16 385.701 310.16 385.001 310.16C384.371 310.09 383.811 310.055 383.321 310.055C382.201 309.775 381.326 309.635 380.696 309.635C380.066 309.635 379.261 309.775 378.281 310.055C377.721 310.125 377.301 310.195 377.021 310.265C376.811 310.265 376.601 310.3 376.391 310.37C376.251 310.37 376.111 310.37 375.971 310.37C375.831 310.37 375.621 310.37 375.341 310.37C374.781 310.37 374.151 310.44 373.451 310.58C373.171 310.65 372.856 310.72 372.506 310.79C371.736 310.79 371.281 310.44 371.141 309.74C371.071 309.46 371.071 309.11 371.141 308.69ZM426.014 310.475C425.314 309.775 425.244 308.165 425.804 305.645C426.434 303.055 427.134 299.87 427.904 296.09C428.534 292.66 429.269 289.02 430.109 285.17C430.949 281.25 431.754 277.645 432.524 274.355C433.294 271.065 433.924 268.3 434.414 266.06C434.974 263.75 435.289 262.49 435.359 262.28C435.429 262 435.604 261.3 435.884 260.18C436.164 258.99 436.409 257.695 436.619 256.295C436.899 254.895 437.109 253.53 437.249 252.2C437.459 250.87 437.529 249.89 437.459 249.26C437.389 248.63 437.389 247.86 437.459 246.95C437.529 246.04 437.634 245.2 437.774 244.43C437.914 243.52 438.019 242.575 438.089 241.595C438.719 240.475 439.174 239.495 439.454 238.655C439.734 237.745 440.189 237.29 440.819 237.29C441.029 237.29 441.379 237.29 441.869 237.29C442.429 237.22 443.024 237.185 443.654 237.185C444.284 237.115 444.914 237.08 445.544 237.08C446.174 237.01 446.699 236.975 447.119 236.975C448.939 236.835 450.304 236.8 451.214 236.87C452.194 236.87 452.964 236.905 453.524 236.975C454.084 237.045 454.469 237.15 454.679 237.29C454.749 237.92 454.854 238.305 454.994 238.445C455.204 238.515 455.379 238.585 455.519 238.655C455.659 238.725 455.729 238.935 455.729 239.285C455.799 239.565 455.729 240.195 455.519 241.175C455.519 241.595 455.449 241.945 455.309 242.225C455.169 242.435 455.099 242.645 455.099 242.855C455.099 243.135 455.099 243.45 455.099 243.8C455.169 244.15 455.134 244.57 454.994 245.06C454.644 247.3 453.944 250.065 452.894 253.355C452.474 255.525 452.019 257.835 451.529 260.285C451.109 262.665 450.514 265.185 449.744 267.845C448.694 272.465 447.644 277.12 446.594 281.81C445.544 286.43 444.599 290.595 443.759 294.305C442.919 298.015 442.254 301.095 441.764 303.545C441.274 305.995 441.029 307.325 441.029 307.535C441.099 308.095 440.959 308.69 440.609 309.32C440.329 309.88 440.119 310.265 439.979 310.475C439.979 310.545 439.944 310.615 439.874 310.685C439.804 310.755 439.524 310.79 439.034 310.79C437.704 310.58 436.374 310.475 435.044 310.475C433.714 310.475 432.489 310.51 431.369 310.58C430.319 310.58 429.374 310.615 428.534 310.685C427.764 310.755 427.239 310.79 426.959 310.79C426.539 310.93 426.259 310.93 426.119 310.79C426.049 310.72 426.014 310.615 426.014 310.475ZM453.275 309.11C453.275 308.83 453.345 307.71 453.485 305.75C453.695 303.72 453.975 301.165 454.325 298.085C454.675 295.005 455.06 291.54 455.48 287.69C455.97 283.84 456.495 279.85 457.055 275.72C457.755 271.45 458.455 267.25 459.155 263.12C459.925 258.92 460.625 255.175 461.255 251.885C461.885 248.595 462.41 245.9 462.83 243.8C463.25 241.7 463.53 240.58 463.67 240.44C463.6 240.02 463.67 239.74 463.88 239.6C464.16 239.39 464.475 239.285 464.825 239.285C465.245 239.215 465.7 239.145 466.19 239.075C466.75 239.005 467.275 238.865 467.765 238.655C467.905 238.445 468.395 238.305 469.235 238.235C470.075 238.165 470.985 238.06 471.965 237.92C472.595 237.78 473.33 237.535 474.17 237.185C475.01 236.765 475.745 236.73 476.375 237.08C476.655 237.29 476.9 238.235 477.11 239.915C477.39 241.595 477.6 243.485 477.74 245.585C477.95 247.615 478.125 249.61 478.265 251.57C478.405 253.46 478.51 254.72 478.58 255.35C478.58 255.7 478.65 256.4 478.79 257.45C479 258.5 479.21 259.795 479.42 261.335C479.63 262.805 479.875 264.45 480.155 266.27C480.435 268.09 480.715 269.91 480.995 271.73C481.695 276.07 482.465 280.865 483.305 286.115C483.305 285.975 483.375 285.17 483.515 283.7C483.725 282.16 484.04 280.165 484.46 277.715C484.81 273.515 485.335 269.14 486.035 264.59C486.735 260.04 487.47 255.875 488.24 252.095C489.08 247.685 490.025 243.345 491.075 239.075C491.215 238.515 491.53 238.305 492.02 238.445C492.51 238.515 493.07 238.445 493.7 238.235C493.84 238.235 494.155 238.2 494.645 238.13C495.205 238.06 495.8 238.095 496.43 238.235C497.06 238.235 497.76 238.165 498.53 238.025C499.37 237.885 500.21 237.745 501.05 237.605C501.4 237.605 501.68 237.71 501.89 237.92C502.17 238.06 502.38 238.2 502.52 238.34C502.66 238.62 502.73 238.865 502.73 239.075C502.52 240.265 502.17 241.56 501.68 242.96C501.26 244.29 500.84 245.97 500.42 248C499.79 251.22 499.125 254.93 498.425 259.13C497.725 263.26 497.025 267.53 496.325 271.94C495.695 276.28 495.065 280.62 494.435 284.96C493.805 289.23 493.245 293.15 492.755 296.72C492.335 300.22 491.985 303.16 491.705 305.54C491.425 307.92 491.285 309.425 491.285 310.055C491.145 310.685 490.76 311.07 490.13 311.21C489.57 311.42 489.115 311.525 488.765 311.525C488.415 311.455 487.82 311.42 486.98 311.42C486.14 311.49 485.265 311.525 484.355 311.525C483.515 311.525 482.71 311.455 481.94 311.315C481.17 311.245 480.75 311.07 480.68 310.79C480.61 310.44 480.26 310.3 479.63 310.37C479 310.37 478.51 310.37 478.16 310.37C477.74 310.37 477.425 310.3 477.215 310.16C477.075 309.95 476.83 309.6 476.48 309.11C476.34 308.76 476.13 307.92 475.85 306.59C475.57 305.19 475.255 303.51 474.905 301.55C474.555 299.52 474.17 297.315 473.75 294.935C473.4 292.485 473.015 290.035 472.595 287.585C471.685 281.775 470.67 275.3 469.55 268.16C469.41 268.65 469.165 269.77 468.815 271.52C468.465 273.2 468.08 275.23 467.66 277.61C467.24 279.92 466.82 282.475 466.4 285.275C465.98 288.075 465.595 290.77 465.245 293.36C465.035 295.32 464.86 297.175 464.72 298.925C464.65 300.675 464.545 302.25 464.405 303.65C464.335 304.98 464.265 306.1 464.195 307.01C464.195 307.85 464.195 308.34 464.195 308.48C464.125 308.62 464.055 308.83 463.985 309.11C463.915 309.39 463.81 309.635 463.67 309.845C463.6 310.055 463.425 310.23 463.145 310.37C462.935 310.51 462.62 310.51 462.2 310.37C461.92 310.51 461.43 310.615 460.73 310.685C460.1 310.755 459.435 310.79 458.735 310.79C457.895 310.86 456.985 310.86 456.005 310.79C455.235 310.93 454.64 310.93 454.22 310.79C453.87 310.65 453.625 310.44 453.485 310.16C453.275 309.88 453.205 309.53 453.275 309.11ZM524.708 295.775C524.848 295.635 524.813 295.39 524.603 295.04C524.463 294.69 524.358 294.375 524.288 294.095C524.218 293.885 524.183 293.675 524.183 293.465C524.183 293.185 524.183 292.975 524.183 292.835C524.183 292.625 524.218 292.415 524.288 292.205C524.988 289.265 525.758 286.255 526.598 283.175C527.438 280.095 528.243 277.33 529.013 274.88C530.483 270.47 531.393 266.585 531.743 263.225C532.093 259.795 532.163 256.925 531.953 254.615C531.743 252.235 531.393 250.415 530.903 249.155C530.483 247.825 530.273 247.09 530.273 246.95C530.203 246.6 530.098 246.355 529.958 246.215C529.888 246.145 529.783 246.11 529.643 246.11C528.243 251.22 527.088 255.91 526.178 260.18C525.268 264.38 524.323 268.16 523.343 271.52C521.243 279.36 519.703 285.52 518.723 290C517.743 294.48 517.078 297.875 516.728 300.185C516.378 302.425 516.238 303.86 516.308 304.49C516.378 305.05 516.413 305.4 516.413 305.54C516.413 305.75 516.658 306.1 517.148 306.59C517.708 307.08 518.373 307.325 519.143 307.325C521.453 306.975 523.833 306.765 526.283 306.695C528.803 306.555 531.113 306.485 533.213 306.485C535.313 306.485 537.098 306.52 538.568 306.59C540.038 306.59 540.948 306.59 541.298 306.59C542.208 306.59 542.418 306.905 541.928 307.535C541.858 307.605 541.823 307.71 541.823 307.85C541.823 308.13 541.963 308.305 542.243 308.375L542.453 309.32C542.173 309.6 542.138 310.02 542.348 310.58C542.068 310.44 541.403 310.37 540.353 310.37C539.303 310.3 538.148 310.265 536.888 310.265C535.698 310.265 534.543 310.3 533.423 310.37C532.303 310.37 531.603 310.37 531.323 310.37C529.713 310.37 528.453 310.405 527.543 310.475C526.633 310.475 525.863 310.51 525.233 310.58C524.673 310.58 524.113 310.615 523.553 310.685C523.063 310.685 522.363 310.72 521.453 310.79C520.613 310.79 519.458 310.825 517.988 310.895C516.518 310.895 514.523 310.895 512.003 310.895C509.973 310.895 508.363 310.825 507.173 310.685C505.983 310.545 505.038 310.405 504.338 310.265C503.568 310.055 503.008 309.845 502.658 309.635C502.308 309.355 501.818 308.69 501.188 307.64C500.628 306.59 500.243 304.735 500.033 302.075C500.033 301.375 500.173 300.115 500.453 298.295C500.803 296.405 501.223 294.2 501.713 291.68C502.273 289.16 502.903 286.395 503.603 283.385C504.303 280.375 505.038 277.365 505.808 274.355C507.558 267.285 509.518 259.48 511.688 250.94C511.688 250.66 511.758 250.205 511.898 249.575C512.038 248.875 512.178 248.175 512.318 247.475C512.528 246.775 512.703 246.145 512.843 245.585C513.053 244.955 513.193 244.5 513.263 244.22C513.473 244.01 513.648 243.625 513.788 243.065C513.998 242.505 514.173 241.945 514.313 241.385C514.453 240.755 514.593 240.195 514.733 239.705C514.873 239.215 515.013 238.97 515.153 238.97C515.013 238.76 515.013 238.515 515.153 238.235C515.363 237.885 516.098 237.71 517.358 237.71C519.738 237.85 521.733 237.885 523.343 237.815C525.023 237.675 526.423 237.57 527.543 237.5C528.733 237.36 529.713 237.22 530.483 237.08C531.323 236.94 532.093 236.87 532.793 236.87C536.083 237.15 538.743 238.06 540.773 239.6C542.803 241.07 544.378 242.89 545.498 245.06C546.618 247.23 547.353 249.575 547.703 252.095C548.053 254.545 548.193 256.855 548.123 259.025C548.123 261.195 547.983 263.12 547.703 264.8C547.493 266.41 547.318 267.425 547.178 267.845C547.108 268.335 546.898 269.35 546.548 270.89C546.198 272.36 545.778 274.075 545.288 276.035C544.798 277.995 544.238 280.06 543.608 282.23C542.978 284.4 542.383 286.43 541.823 288.32C541.333 290.21 540.878 291.82 540.458 293.15C540.038 294.41 539.758 295.145 539.618 295.355C539.198 295.285 538.323 295.25 536.993 295.25C535.733 295.25 534.368 295.32 532.898 295.46C531.498 295.53 530.203 295.6 529.013 295.67C527.823 295.74 527.123 295.775 526.913 295.775C526.423 295.985 525.933 296.09 525.443 296.09C524.953 296.09 524.708 295.985 524.708 295.775ZM548.124 308.69C548.124 308.55 548.299 307.78 548.649 306.38C549.069 304.91 549.489 302.88 549.909 300.29C550.329 298.4 550.749 296.3 551.169 293.99C551.659 291.61 552.114 289.125 552.534 286.535C553.024 283.875 553.479 281.18 553.899 278.45C554.389 275.72 554.844 272.99 555.264 270.26C555.964 265.85 556.629 261.65 557.259 257.66C557.889 253.67 558.379 250.205 558.729 247.265C558.799 246.635 558.869 245.935 558.939 245.165C559.009 244.325 559.079 243.555 559.149 242.855C559.219 242.085 559.289 241.28 559.359 240.44C559.429 240.23 559.534 240.125 559.674 240.125C559.814 240.055 559.989 239.985 560.199 239.915C560.479 239.845 560.829 239.775 561.249 239.705C561.669 239.565 562.229 239.285 562.929 238.865C562.999 238.795 563.034 238.76 563.034 238.76C563.104 238.69 563.209 238.69 563.349 238.76C563.559 238.76 563.874 238.795 564.294 238.865C564.714 238.865 565.379 238.865 566.289 238.865C566.849 238.795 567.479 238.725 568.179 238.655C568.949 238.515 569.719 238.41 570.489 238.34C571.259 238.27 571.959 238.27 572.589 238.34C573.289 238.34 573.849 238.375 574.269 238.445C575.109 238.445 575.809 238.585 576.369 238.865C576.929 239.075 577.524 239.18 578.154 239.18C578.434 239.32 578.574 239.635 578.574 240.125C578.644 240.615 578.609 241.175 578.469 241.805C578.399 242.435 578.294 243.1 578.154 243.8C578.014 244.5 577.944 245.06 577.944 245.48C577.874 246.04 577.734 247.02 577.524 248.42C577.314 249.75 577.069 251.15 576.789 252.62C576.509 254.09 576.264 255.455 576.054 256.715C575.844 257.975 575.704 258.71 575.634 258.92C575.564 259.13 575.424 259.725 575.214 260.705C575.074 261.685 574.934 262.77 574.794 263.96C574.654 265.08 574.479 266.13 574.269 267.11C574.129 268.02 574.024 268.58 573.954 268.79C574.094 268.72 574.514 268.615 575.214 268.475C575.984 268.335 576.754 268.195 577.524 268.055C578.434 267.915 579.414 267.775 580.464 267.635C580.534 267.635 580.674 266.97 580.884 265.64C581.164 264.31 581.479 262.665 581.829 260.705C582.179 258.675 582.564 256.47 582.984 254.09C583.404 251.64 583.789 249.365 584.139 247.265C584.489 245.165 584.804 243.38 585.084 241.91C585.364 240.37 585.574 239.46 585.714 239.18C585.644 238.83 585.819 238.69 586.239 238.76C586.659 238.76 586.974 238.655 587.184 238.445C587.534 238.235 587.989 238.025 588.549 237.815C589.109 237.605 589.564 237.5 589.914 237.5C590.124 237.5 590.579 237.535 591.279 237.605C591.979 237.605 592.749 237.605 593.589 237.605C594.499 237.605 595.374 237.57 596.214 237.5C597.054 237.43 597.719 237.29 598.209 237.08C599.469 236.87 600.624 236.835 601.674 236.975C602.724 237.115 603.529 237.29 604.089 237.5C604.929 237.99 605.349 238.655 605.349 239.495C605.349 239.915 605.279 240.37 605.139 240.86C605.139 241.07 604.859 242.435 604.299 244.955C603.739 247.475 603.074 250.695 602.304 254.615C602.094 256.015 601.814 257.52 601.464 259.13C601.114 260.67 600.799 262.245 600.519 263.855C600.169 265.115 599.854 266.375 599.574 267.635C599.364 268.825 599.154 270.085 598.944 271.415C598.174 275.825 597.404 280.2 596.634 284.54C595.934 288.81 595.269 292.695 594.639 296.195C594.079 299.625 593.589 302.46 593.169 304.7C592.819 306.94 592.609 308.165 592.539 308.375C592.679 308.935 592.504 309.215 592.014 309.215C591.594 309.145 591.174 309.11 590.754 309.11H584.349C583.929 309.11 583.334 309.145 582.564 309.215C581.794 309.215 581.024 309.25 580.254 309.32C579.344 309.39 578.364 309.46 577.314 309.53C576.894 309.53 576.369 309.6 575.739 309.74C575.179 309.88 574.864 309.81 574.794 309.53C574.444 308.97 574.269 308.34 574.269 307.64C574.199 307.29 574.199 306.94 574.269 306.59C574.479 306.38 574.724 305.47 575.004 303.86C575.284 302.18 575.564 300.29 575.844 298.19C576.054 296.79 576.264 295.425 576.474 294.095C576.754 292.765 576.964 291.575 577.104 290.525C577.314 289.265 577.489 288.075 577.629 286.955C577.489 286.955 577.034 286.99 576.264 287.06C575.494 287.06 574.654 287.095 573.744 287.165L570.174 287.375C570.104 287.935 569.999 288.565 569.859 289.265C569.719 289.825 569.544 290.49 569.334 291.26C569.194 292.03 569.054 292.835 568.914 293.675C568.564 295.355 568.284 297.035 568.074 298.715C567.934 300.325 567.689 301.97 567.339 303.65C566.849 305.12 566.499 306.415 566.289 307.535C566.149 308.655 566.079 309.32 566.079 309.53C566.009 309.74 565.764 309.88 565.344 309.95C564.924 310.02 564.434 310.09 563.874 310.16C563.314 310.16 562.684 310.16 561.984 310.16C561.354 310.09 560.794 310.055 560.304 310.055C559.184 309.775 558.309 309.635 557.679 309.635C557.049 309.635 556.244 309.775 555.264 310.055C554.704 310.125 554.284 310.195 554.004 310.265C553.794 310.265 553.584 310.3 553.374 310.37C553.234 310.37 553.094 310.37 552.954 310.37C552.814 310.37 552.604 310.37 552.324 310.37C551.764 310.37 551.134 310.44 550.434 310.58C550.154 310.65 549.839 310.72 549.489 310.79C548.719 310.79 548.264 310.44 548.124 309.74C548.054 309.46 548.054 309.11 548.124 308.69ZM652.137 241.28C652.697 241.56 652.907 241.77 652.767 241.91C652.697 241.98 652.557 242.05 652.347 242.12C652.277 242.19 652.207 242.225 652.137 242.225C651.997 242.365 651.927 242.47 651.927 242.54C652.487 242.96 652.662 243.45 652.452 244.01C652.312 244.5 652.172 244.92 652.032 245.27C651.682 246.32 651.542 247.02 651.612 247.37C651.752 247.65 651.612 248.14 651.192 248.84C651.192 249.26 650.982 249.54 650.562 249.68C650.352 249.75 650.177 249.785 650.037 249.785C650.107 249.995 650.247 251.15 650.457 253.25C650.667 255.35 650.912 257.975 651.192 261.125C651.472 264.275 651.752 267.775 652.032 271.625C652.312 275.405 652.557 279.15 652.767 282.86C652.907 286.15 652.977 289.335 652.977 292.415C653.047 295.495 653.047 298.225 652.977 300.605C652.907 302.915 652.802 304.805 652.662 306.275C652.592 307.745 652.522 308.515 652.452 308.585C652.382 309.985 652.242 310.79 652.032 311C651.822 311.28 651.647 311.42 651.507 311.42C651.297 311.42 650.842 311.35 650.142 311.21C649.512 311.14 649.092 311.21 648.882 311.42C648.742 311.42 648.497 311.385 648.147 311.315C647.867 311.315 647.167 311.21 646.047 311C645.347 310.93 644.577 310.93 643.737 311C642.967 311 642.232 311.035 641.532 311.105C640.692 311.175 639.852 311.28 639.012 311.42C638.382 311.42 637.997 311.35 637.857 311.21C637.787 311.14 637.682 310.825 637.542 310.265C637.192 309.845 636.982 309.53 636.912 309.32C636.912 309.04 636.877 308.795 636.807 308.585C636.807 308.445 636.807 308.27 636.807 308.06C636.807 307.85 636.877 307.465 637.017 306.905C636.947 306.835 636.912 306.66 636.912 306.38C636.912 306.1 636.912 305.785 636.912 305.435V304.175C635.722 304.175 634.497 304.14 633.237 304.07C632.187 304 630.997 303.965 629.667 303.965C628.337 303.895 627.077 303.86 625.887 303.86C624.907 303.72 624.067 303.685 623.367 303.755C622.737 303.755 622.177 303.755 621.687 303.755C621.127 303.825 620.637 303.86 620.217 303.86C619.797 303.86 619.517 304.035 619.377 304.385C619.307 304.665 619.097 305.4 618.747 306.59C618.537 307.22 618.362 307.78 618.222 308.27C618.082 308.76 617.942 309.18 617.802 309.53C617.662 309.95 617.557 310.335 617.487 310.685C617.137 311.035 616.752 311.105 616.332 310.895C615.912 310.685 615.107 310.475 613.917 310.265C612.727 310.265 611.747 310.195 610.977 310.055C610.207 309.915 609.122 309.845 607.722 309.845C607.162 309.705 606.567 309.635 605.937 309.635C605.377 309.635 604.887 309.6 604.467 309.53C603.907 309.53 603.417 309.495 602.997 309.425C602.647 309.425 602.507 309.355 602.577 309.215C602.647 309.005 602.647 308.795 602.577 308.585C602.367 308.375 602.262 308.025 602.262 307.535C602.262 307.325 602.297 307.115 602.367 306.905C602.367 306.835 602.647 305.75 603.207 303.65C603.837 301.48 604.642 298.715 605.622 295.355C606.672 291.995 607.792 288.215 608.982 284.015C610.242 279.815 611.502 275.545 612.762 271.205C613.882 267.355 614.932 263.61 615.912 259.97C616.962 256.26 617.872 252.935 618.642 249.995C619.412 247.055 620.007 244.64 620.427 242.75C620.917 240.79 621.162 239.6 621.162 239.18C621.442 238.2 621.722 237.71 622.002 237.71C622.282 237.71 622.737 237.71 623.367 237.71H626.097C626.027 237.64 626.062 237.535 626.202 237.395C626.272 237.395 626.342 237.36 626.412 237.29C627.602 237.08 628.932 236.975 630.402 236.975C631.942 236.905 633.412 236.87 634.812 236.87C635.792 236.73 636.772 236.73 637.752 236.87C638.732 237.01 639.922 237.22 641.322 237.5C641.672 237.57 641.987 237.605 642.267 237.605C642.547 237.605 643.352 237.745 644.682 238.025C645.452 238.235 646.187 238.41 646.887 238.55C647.587 238.62 648.217 238.69 648.777 238.76C649.407 238.83 650.002 238.865 650.562 238.865C650.912 238.865 651.087 239.005 651.087 239.285C651.087 239.425 651.052 239.53 650.982 239.6L650.772 240.125C651.122 240.265 651.332 240.37 651.402 240.44C651.472 240.51 651.542 240.545 651.612 240.545C651.612 240.615 651.647 240.685 651.717 240.755C651.787 240.825 651.822 240.895 651.822 240.965C651.892 241.035 651.997 241.14 652.137 241.28ZM635.442 289.685C635.302 284.855 635.127 280.655 634.917 277.085C634.777 273.445 634.567 270.26 634.287 267.53C634.077 264.73 633.797 262.28 633.447 260.18C633.097 258.08 632.712 256.085 632.292 254.195C632.222 254.055 632.187 254.195 632.187 254.615C632.187 254.825 632.152 255.07 632.082 255.35C631.662 257.17 631.172 259.025 630.612 260.915C630.122 262.525 629.562 264.38 628.932 266.48C628.372 268.58 627.777 270.68 627.147 272.78C626.587 274.95 625.992 277.015 625.362 278.975C624.802 280.935 624.277 282.685 623.787 284.225C623.227 286.045 622.667 287.725 622.107 289.265H622.527C623.997 289.405 625.467 289.51 626.937 289.58C628.197 289.72 629.562 289.825 631.032 289.895C632.572 289.895 633.972 289.965 635.232 290.105C635.512 290.315 635.582 290.175 635.442 289.685ZM715.43 295.775C715.57 295.635 715.535 295.39 715.325 295.04C715.185 294.69 715.08 294.375 715.01 294.095C714.94 293.885 714.905 293.675 714.905 293.465C714.905 293.185 714.905 292.975 714.905 292.835C714.905 292.625 714.94 292.415 715.01 292.205C715.71 289.265 716.48 286.255 717.32 283.175C718.16 280.095 718.965 277.33 719.735 274.88C721.205 270.47 722.115 266.585 722.465 263.225C722.815 259.795 722.885 256.925 722.675 254.615C722.465 252.235 722.115 250.415 721.625 249.155C721.205 247.825 720.995 247.09 720.995 246.95C720.925 246.6 720.82 246.355 720.68 246.215C720.61 246.145 720.505 246.11 720.365 246.11C718.965 251.22 717.81 255.91 716.9 260.18C715.99 264.38 715.045 268.16 714.065 271.52C711.965 279.36 710.425 285.52 709.445 290C708.465 294.48 707.8 297.875 707.45 300.185C707.1 302.425 706.96 303.86 707.03 304.49C707.1 305.05 707.135 305.4 707.135 305.54C707.135 305.75 707.38 306.1 707.87 306.59C708.43 307.08 709.095 307.325 709.865 307.325C712.175 306.975 714.555 306.765 717.005 306.695C719.525 306.555 721.835 306.485 723.935 306.485C726.035 306.485 727.82 306.52 729.29 306.59C730.76 306.59 731.67 306.59 732.02 306.59C732.93 306.59 733.14 306.905 732.65 307.535C732.58 307.605 732.545 307.71 732.545 307.85C732.545 308.13 732.685 308.305 732.965 308.375L733.175 309.32C732.895 309.6 732.86 310.02 733.07 310.58C732.79 310.44 732.125 310.37 731.075 310.37C730.025 310.3 728.87 310.265 727.61 310.265C726.42 310.265 725.265 310.3 724.145 310.37C723.025 310.37 722.325 310.37 722.045 310.37C720.435 310.37 719.175 310.405 718.265 310.475C717.355 310.475 716.585 310.51 715.955 310.58C715.395 310.58 714.835 310.615 714.275 310.685C713.785 310.685 713.085 310.72 712.175 310.79C711.335 310.79 710.18 310.825 708.71 310.895C707.24 310.895 705.245 310.895 702.725 310.895C700.695 310.895 699.085 310.825 697.895 310.685C696.705 310.545 695.76 310.405 695.06 310.265C694.29 310.055 693.73 309.845 693.38 309.635C693.03 309.355 692.54 308.69 691.91 307.64C691.35 306.59 690.965 304.735 690.755 302.075C690.755 301.375 690.895 300.115 691.175 298.295C691.525 296.405 691.945 294.2 692.435 291.68C692.995 289.16 693.625 286.395 694.325 283.385C695.025 280.375 695.76 277.365 696.53 274.355C698.28 267.285 700.24 259.48 702.41 250.94C702.41 250.66 702.48 250.205 702.62 249.575C702.76 248.875 702.9 248.175 703.04 247.475C703.25 246.775 703.425 246.145 703.565 245.585C703.775 244.955 703.915 244.5 703.985 244.22C704.195 244.01 704.37 243.625 704.51 243.065C704.72 242.505 704.895 241.945 705.035 241.385C705.175 240.755 705.315 240.195 705.455 239.705C705.595 239.215 705.735 238.97 705.875 238.97C705.735 238.76 705.735 238.515 705.875 238.235C706.085 237.885 706.82 237.71 708.08 237.71C710.46 237.85 712.455 237.885 714.065 237.815C715.745 237.675 717.145 237.57 718.265 237.5C719.455 237.36 720.435 237.22 721.205 237.08C722.045 236.94 722.815 236.87 723.515 236.87C726.805 237.15 729.465 238.06 731.495 239.6C733.525 241.07 735.1 242.89 736.22 245.06C737.34 247.23 738.075 249.575 738.425 252.095C738.775 254.545 738.915 256.855 738.845 259.025C738.845 261.195 738.705 263.12 738.425 264.8C738.215 266.41 738.04 267.425 737.9 267.845C737.83 268.335 737.62 269.35 737.27 270.89C736.92 272.36 736.5 274.075 736.01 276.035C735.52 277.995 734.96 280.06 734.33 282.23C733.7 284.4 733.105 286.43 732.545 288.32C732.055 290.21 731.6 291.82 731.18 293.15C730.76 294.41 730.48 295.145 730.34 295.355C729.92 295.285 729.045 295.25 727.715 295.25C726.455 295.25 725.09 295.32 723.62 295.46C722.22 295.53 720.925 295.6 719.735 295.67C718.545 295.74 717.845 295.775 717.635 295.775C717.145 295.985 716.655 296.09 716.165 296.09C715.675 296.09 715.43 295.985 715.43 295.775ZM738.846 308.69C738.846 308.55 739.021 307.78 739.371 306.38C739.791 304.91 740.211 302.88 740.631 300.29C741.051 298.4 741.471 296.3 741.891 293.99C742.381 291.61 742.836 289.125 743.256 286.535C743.746 283.875 744.201 281.18 744.621 278.45C745.111 275.72 745.566 272.99 745.986 270.26C746.686 265.85 747.351 261.65 747.981 257.66C748.611 253.67 749.101 250.205 749.451 247.265C749.521 246.635 749.591 245.935 749.661 245.165C749.731 244.325 749.801 243.555 749.871 242.855C749.941 242.085 750.011 241.28 750.081 240.44C750.151 240.23 750.256 240.125 750.396 240.125C750.536 240.055 750.711 239.985 750.921 239.915C751.201 239.845 751.551 239.775 751.971 239.705C752.391 239.565 752.951 239.285 753.651 238.865C753.721 238.795 753.756 238.76 753.756 238.76C753.826 238.69 753.931 238.69 754.071 238.76C754.281 238.76 754.596 238.795 755.016 238.865C755.436 238.865 756.101 238.865 757.011 238.865C757.571 238.795 758.201 238.725 758.901 238.655C759.671 238.515 760.441 238.41 761.211 238.34C761.981 238.27 762.681 238.27 763.311 238.34C764.011 238.34 764.571 238.375 764.991 238.445C765.831 238.445 766.531 238.585 767.091 238.865C767.651 239.075 768.246 239.18 768.876 239.18C769.156 239.32 769.296 239.635 769.296 240.125C769.366 240.615 769.331 241.175 769.191 241.805C769.121 242.435 769.016 243.1 768.876 243.8C768.736 244.5 768.666 245.06 768.666 245.48C768.596 246.04 768.456 247.02 768.246 248.42C768.036 249.75 767.791 251.15 767.511 252.62C767.231 254.09 766.986 255.455 766.776 256.715C766.566 257.975 766.426 258.71 766.356 258.92C766.286 259.13 766.146 259.725 765.936 260.705C765.796 261.685 765.656 262.77 765.516 263.96C765.376 265.08 765.201 266.13 764.991 267.11C764.851 268.02 764.746 268.58 764.676 268.79C764.816 268.72 765.236 268.615 765.936 268.475C766.706 268.335 767.476 268.195 768.246 268.055C769.156 267.915 770.136 267.775 771.186 267.635C771.256 267.635 771.396 266.97 771.606 265.64C771.886 264.31 772.201 262.665 772.551 260.705C772.901 258.675 773.286 256.47 773.706 254.09C774.126 251.64 774.511 249.365 774.861 247.265C775.211 245.165 775.526 243.38 775.806 241.91C776.086 240.37 776.296 239.46 776.436 239.18C776.366 238.83 776.541 238.69 776.961 238.76C777.381 238.76 777.696 238.655 777.906 238.445C778.256 238.235 778.711 238.025 779.271 237.815C779.831 237.605 780.286 237.5 780.636 237.5C780.846 237.5 781.301 237.535 782.001 237.605C782.701 237.605 783.471 237.605 784.311 237.605C785.221 237.605 786.096 237.57 786.936 237.5C787.776 237.43 788.441 237.29 788.931 237.08C790.191 236.87 791.346 236.835 792.396 236.975C793.446 237.115 794.251 237.29 794.811 237.5C795.651 237.99 796.071 238.655 796.071 239.495C796.071 239.915 796.001 240.37 795.861 240.86C795.861 241.07 795.581 242.435 795.021 244.955C794.461 247.475 793.796 250.695 793.026 254.615C792.816 256.015 792.536 257.52 792.186 259.13C791.836 260.67 791.521 262.245 791.241 263.855C790.891 265.115 790.576 266.375 790.296 267.635C790.086 268.825 789.876 270.085 789.666 271.415C788.896 275.825 788.126 280.2 787.356 284.54C786.656 288.81 785.991 292.695 785.361 296.195C784.801 299.625 784.311 302.46 783.891 304.7C783.541 306.94 783.331 308.165 783.261 308.375C783.401 308.935 783.226 309.215 782.736 309.215C782.316 309.145 781.896 309.11 781.476 309.11H775.071C774.651 309.11 774.056 309.145 773.286 309.215C772.516 309.215 771.746 309.25 770.976 309.32C770.066 309.39 769.086 309.46 768.036 309.53C767.616 309.53 767.091 309.6 766.461 309.74C765.901 309.88 765.586 309.81 765.516 309.53C765.166 308.97 764.991 308.34 764.991 307.64C764.921 307.29 764.921 306.94 764.991 306.59C765.201 306.38 765.446 305.47 765.726 303.86C766.006 302.18 766.286 300.29 766.566 298.19C766.776 296.79 766.986 295.425 767.196 294.095C767.476 292.765 767.686 291.575 767.826 290.525C768.036 289.265 768.211 288.075 768.351 286.955C768.211 286.955 767.756 286.99 766.986 287.06C766.216 287.06 765.376 287.095 764.466 287.165L760.896 287.375C760.826 287.935 760.721 288.565 760.581 289.265C760.441 289.825 760.266 290.49 760.056 291.26C759.916 292.03 759.776 292.835 759.636 293.675C759.286 295.355 759.006 297.035 758.796 298.715C758.656 300.325 758.411 301.97 758.061 303.65C757.571 305.12 757.221 306.415 757.011 307.535C756.871 308.655 756.801 309.32 756.801 309.53C756.731 309.74 756.486 309.88 756.066 309.95C755.646 310.02 755.156 310.09 754.596 310.16C754.036 310.16 753.406 310.16 752.706 310.16C752.076 310.09 751.516 310.055 751.026 310.055C749.906 309.775 749.031 309.635 748.401 309.635C747.771 309.635 746.966 309.775 745.986 310.055C745.426 310.125 745.006 310.195 744.726 310.265C744.516 310.265 744.306 310.3 744.096 310.37C743.956 310.37 743.816 310.37 743.676 310.37C743.536 310.37 743.326 310.37 743.046 310.37C742.486 310.37 741.856 310.44 741.156 310.58C740.876 310.65 740.561 310.72 740.211 310.79C739.441 310.79 738.986 310.44 738.846 309.74C738.776 309.46 738.776 309.11 738.846 308.69ZM808.104 238.97C808.594 238.9 809.084 238.83 809.574 238.76C810.274 238.69 811.079 238.515 811.989 238.235C812.619 237.885 813.844 237.605 815.664 237.395C817.484 237.185 819.619 237.045 822.069 236.975C824.519 236.835 827.109 236.765 829.839 236.765C832.639 236.695 835.299 236.695 837.819 236.765C840.409 236.835 842.719 236.94 844.749 237.08C846.849 237.22 848.389 237.395 849.369 237.605C849.439 237.745 849.474 237.99 849.474 238.34C849.474 238.69 849.404 239.145 849.264 239.705C849.194 240.195 849.089 240.895 848.949 241.805C848.739 242.785 848.564 243.52 848.424 244.01C848.354 244.5 848.284 244.885 848.214 245.165C848.144 245.445 848.074 245.69 848.004 245.9C847.934 246.04 847.794 246.25 847.584 246.53C847.444 246.53 847.374 246.67 847.374 246.95C847.444 247.16 847.479 247.405 847.479 247.685C847.479 248.035 847.514 248.42 847.584 248.84V249.26C847.584 249.4 847.549 249.54 847.479 249.68C847.409 249.82 847.339 249.96 847.269 250.1C846.919 250.1 846.709 250.135 846.639 250.205C846.639 250.205 846.639 250.31 846.639 250.52C846.499 250.73 846.359 250.905 846.219 251.045C846.149 251.185 845.624 251.29 844.644 251.36C843.664 251.36 842.054 251.36 839.814 251.36C837.574 251.29 834.284 251.15 829.944 250.94C829.174 250.94 828.264 250.94 827.214 250.94C826.164 250.94 825.114 250.975 824.064 251.045C823.014 251.045 822.104 251.08 821.334 251.15C820.564 251.15 820.144 251.185 820.074 251.255C820.074 251.395 819.969 252.165 819.759 253.565C819.549 254.965 819.304 256.47 819.024 258.08L817.974 264.59L822.804 264.38C823.364 264.52 824.239 264.59 825.429 264.59C826.619 264.52 827.844 264.485 829.104 264.485C830.364 264.485 831.554 264.52 832.674 264.59C833.864 264.59 834.704 264.695 835.194 264.905C836.594 265.255 837.399 265.605 837.609 265.955C837.819 266.235 837.924 266.48 837.924 266.69C837.784 266.83 837.679 267.145 837.609 267.635C837.609 268.055 837.574 268.58 837.504 269.21C837.434 269.77 837.399 270.33 837.399 270.89C837.399 271.38 837.399 271.73 837.399 271.94C837.399 272.29 837.259 272.605 836.979 272.885C836.769 273.165 836.559 273.445 836.349 273.725C836.139 273.725 835.999 273.9 835.929 274.25C835.929 274.6 835.929 274.985 835.929 275.405C835.929 275.825 835.754 276.455 835.404 277.295C835.124 278.135 834.459 278.625 833.409 278.765C832.989 278.905 832.219 279.01 831.099 279.08C830.049 279.15 828.824 279.185 827.424 279.185C826.024 279.185 824.589 279.185 823.119 279.185C821.649 279.115 820.284 279.115 819.024 279.185C817.764 279.185 816.714 279.22 815.874 279.29C815.034 279.36 814.579 279.5 814.509 279.71C814.369 280.06 814.089 281.11 813.669 282.86C813.319 284.54 812.899 286.36 812.409 288.32C811.849 290.63 811.254 293.185 810.624 295.985C810.694 295.985 811.114 296.02 811.884 296.09C812.654 296.09 813.564 296.125 814.614 296.195C815.664 296.265 816.749 296.335 817.869 296.405C819.059 296.405 820.074 296.405 820.914 296.405C821.684 296.545 822.804 296.65 824.274 296.72C825.814 296.79 827.319 296.895 828.789 297.035C830.329 297.105 831.694 297.175 832.884 297.245C834.144 297.245 834.879 297.245 835.089 297.245C835.299 297.245 835.194 297.525 834.774 298.085C834.424 298.575 834.249 299.03 834.249 299.45C834.249 299.8 834.179 300.5 834.039 301.55C833.899 302.6 833.689 303.475 833.409 304.175C833.199 304.805 833.059 305.295 832.989 305.645C832.919 305.995 832.779 306.52 832.569 307.22C832.219 307.85 832.044 308.41 832.044 308.9C832.044 309.39 831.904 309.81 831.624 310.16C831.414 310.51 830.924 310.79 830.154 311C829.454 311.14 828.229 311.14 826.479 311C824.589 311 822.629 310.965 820.599 310.895C818.849 310.825 816.889 310.79 814.719 310.79C812.619 310.72 810.554 310.685 808.524 310.685C805.304 310.405 802.574 310.335 800.334 310.475C798.164 310.615 796.904 310.685 796.554 310.685C796.274 310.685 795.994 310.615 795.714 310.475C795.504 310.335 795.294 310.195 795.084 310.055C794.944 309.915 794.874 309.67 794.874 309.32C795.014 309.11 794.944 308.9 794.664 308.69C794.384 308.48 794.104 308.375 793.824 308.375C793.684 308.375 793.544 308.13 793.404 307.64C793.264 307.15 793.299 306.555 793.509 305.855C793.719 305.575 793.824 305.295 793.824 305.015V304.175C793.824 303.965 793.894 303.825 794.034 303.755C794.244 303.615 794.349 303.3 794.349 302.81C794.979 300.43 795.609 297.63 796.239 294.41C796.939 291.12 797.639 287.655 798.339 284.015C798.899 281.635 799.459 279.185 800.019 276.665C800.649 274.145 801.209 271.59 801.699 269C802.119 266.62 802.504 264.205 802.854 261.755C803.274 259.305 803.764 256.995 804.324 254.825C804.604 252.445 804.884 250.275 805.164 248.315C805.444 246.285 805.724 244.57 806.004 243.17C806.284 241.77 806.599 240.72 806.949 240.02C807.299 239.25 807.684 238.9 808.104 238.97ZM846.617 297.035C846.407 292.625 846.757 288.285 847.667 284.015C848.647 279.745 849.907 275.685 851.447 271.835C852.987 267.985 854.667 264.45 856.487 261.23C858.377 258.01 860.127 255.21 861.737 252.83C863.347 250.45 864.677 248.56 865.727 247.16C866.847 245.76 867.442 245.025 867.512 244.955C867.722 244.675 868.037 244.325 868.457 243.905C868.877 243.415 869.297 242.925 869.717 242.435C870.137 241.945 870.522 241.49 870.872 241.07C871.222 240.58 871.467 240.23 871.607 240.02C871.467 239.46 871.642 239.005 872.132 238.655C872.692 238.305 873.357 238.06 874.127 237.92C874.967 237.71 875.947 237.605 877.067 237.605C877.067 237.535 877.102 237.465 877.172 237.395C877.312 237.255 877.557 237.185 877.907 237.185H881.267C882.177 236.975 882.982 236.87 883.682 236.87C884.452 236.87 885.082 236.905 885.572 236.975C886.132 237.045 886.587 237.15 886.937 237.29C887.287 237.36 887.532 237.325 887.672 237.185C887.812 236.975 888.652 236.87 890.192 236.87C891.802 236.87 893.867 236.975 896.387 237.185C897.577 237.185 898.557 237.22 899.327 237.29C900.097 237.29 900.762 237.325 901.322 237.395C901.952 237.465 902.477 237.535 902.897 237.605C905.277 238.305 906.992 239.565 908.042 241.385C909.092 243.205 909.687 245.305 909.827 247.685C909.967 250.065 909.757 252.585 909.197 255.245C908.707 257.905 908.077 260.495 907.307 263.015C906.537 265.465 905.802 267.705 905.102 269.735C904.402 271.765 903.947 273.305 903.737 274.355C902.687 274.215 901.917 274.18 901.427 274.25C901.007 274.32 900.657 274.355 900.377 274.355C899.607 274.215 898.312 274.215 896.492 274.355C894.672 274.425 892.922 274.6 891.242 274.88C890.472 275.02 889.807 275.02 889.247 274.88C888.757 274.67 888.337 274.425 887.987 274.145C887.637 273.865 887.357 273.48 887.147 272.99C887.287 272.57 887.672 271.345 888.302 269.315C889.002 267.215 889.667 264.765 890.297 261.965C890.997 259.165 891.522 256.26 891.872 253.25C892.222 250.17 892.187 247.405 891.767 244.955C891.627 244.115 891.382 243.45 891.032 242.96C890.752 242.47 890.437 242.12 890.087 241.91C889.737 241.63 889.317 241.49 888.827 241.49C884.417 246.25 880.672 250.73 877.592 254.93C874.582 259.06 872.097 262.945 870.137 266.585C868.177 270.225 866.672 273.585 865.622 276.665C864.572 279.675 863.837 282.44 863.417 284.96C862.437 290.84 862.787 295.915 864.467 300.185C864.957 301.445 865.552 302.46 866.252 303.23C867.022 304 867.862 304.595 868.772 305.015C869.752 305.365 870.802 305.61 871.922 305.75C873.112 305.82 874.372 305.855 875.702 305.855C877.102 305.855 878.432 305.82 879.692 305.75C881.022 305.61 882.212 305.47 883.262 305.33C884.522 305.19 885.712 305.015 886.832 304.805C887.112 303.755 887.532 302.25 888.092 300.29C888.722 298.33 889.317 296.335 889.877 294.305C890.577 291.995 891.312 289.545 892.082 286.955C891.032 286.885 889.422 286.92 887.252 287.06C885.152 287.13 882.982 287.235 880.742 287.375C878.572 287.445 876.577 287.48 874.757 287.48C873.007 287.48 871.992 287.305 871.712 286.955C871.432 286.745 871.222 286.535 871.082 286.325C871.012 286.045 870.837 285.765 870.557 285.485C870.277 285.485 869.962 285.415 869.612 285.275C869.332 285.065 869.472 284.96 870.032 284.96C870.452 284.82 870.767 284.645 870.977 284.435L871.292 284.12C871.292 284.19 871.327 284.26 871.397 284.33C871.467 284.4 871.607 284.33 871.817 284.12C872.027 284.12 872.447 283.945 873.077 283.595C873.707 283.245 874.267 283.07 874.757 283.07C874.897 283.07 875.212 283.07 875.702 283.07C876.262 283.07 876.892 283.07 877.592 283.07C878.292 283 878.957 282.965 879.587 282.965C880.287 282.895 880.812 282.825 881.162 282.755C882.142 282.545 882.912 282.475 883.472 282.545C883.822 282.615 884.137 282.685 884.417 282.755C885.047 282.825 886.202 282.86 887.882 282.86C889.562 282.79 891.382 282.72 893.342 282.65C895.372 282.51 897.437 282.405 899.537 282.335C901.637 282.265 903.422 282.23 904.892 282.23C906.992 282.23 908.427 282.545 909.197 283.175C910.037 283.735 910.177 284.505 909.617 285.485C909.477 285.975 909.162 287.165 908.672 289.055C908.182 290.875 907.657 292.835 907.097 294.935C906.537 297.035 906.012 298.96 905.522 300.71C905.102 302.39 904.892 303.3 904.892 303.44C904.542 304.14 904.297 304.84 904.157 305.54C904.087 306.17 903.982 306.73 903.842 307.22C903.772 307.71 903.597 308.13 903.317 308.48C903.037 308.76 902.582 308.9 901.952 308.9C901.252 308.76 899.677 308.725 897.227 308.795C894.847 308.865 891.907 309.005 888.407 309.215C884.977 309.425 881.127 309.67 876.857 309.95C872.657 310.23 868.422 310.51 864.152 310.79C859.742 311.14 856.347 310.615 853.967 309.215C851.587 307.815 849.837 306.205 848.717 304.385C847.457 302.285 846.757 299.835 846.617 297.035ZM955.163 237.605C956.843 238.515 958.103 239.81 958.943 241.49C959.853 243.1 960.448 244.99 960.728 247.16C961.078 249.26 961.183 251.57 961.043 254.09C960.903 256.54 960.693 259.06 960.413 261.65C960.063 265.85 959.398 270.365 958.418 275.195C957.508 279.955 956.143 284.54 954.323 288.95C952.573 293.36 950.333 297.42 947.603 301.13C944.873 304.77 941.618 307.57 937.838 309.53C936.998 309.95 935.948 310.3 934.688 310.58C933.498 310.79 932.273 310.93 931.013 311C929.823 311.14 928.703 311.21 927.653 311.21C926.673 311.21 926.008 311.21 925.658 311.21C925.448 311.35 925.168 311.42 924.818 311.42C924.468 311.49 924.223 311.525 924.083 311.525C923.173 311.525 922.333 311.35 921.563 311C920.863 310.58 920.268 310.09 919.778 309.53C917.328 307.64 915.613 305.085 914.633 301.865C913.653 298.575 913.198 294.97 913.268 291.05C913.338 287.13 913.828 283.035 914.738 278.765C915.718 274.495 916.943 270.4 918.413 266.48C919.323 263.26 920.478 260.145 921.878 257.135C923.348 254.055 924.923 251.255 926.603 248.735C928.283 246.215 929.998 244.045 931.748 242.225C933.568 240.405 935.283 239.145 936.893 238.445H937.628C938.048 238.445 938.678 238.375 939.518 238.235C940.358 238.025 941.163 237.815 941.933 237.605C942.773 237.605 943.543 237.605 944.243 237.605C945.013 237.535 945.678 237.43 946.238 237.29H948.233C948.863 237.29 949.388 237.22 949.808 237.08C950.298 236.94 950.718 236.87 951.068 236.87C952.328 236.87 953.273 236.975 953.903 237.185C954.533 237.325 954.953 237.465 955.163 237.605ZM929.648 303.86C931.118 302.39 932.553 300.64 933.953 298.61C935.143 296.86 936.403 294.69 937.733 292.1C939.133 289.51 940.393 286.465 941.513 282.965C943.123 278.135 944.453 273.375 945.503 268.685C945.923 266.725 946.308 264.66 946.658 262.49C947.008 260.32 947.253 258.185 947.393 256.085C947.603 253.985 947.638 251.955 947.498 249.995C947.428 248.035 947.148 246.215 946.658 244.535C946.448 244.605 946.238 244.71 946.028 244.85C945.888 244.99 945.713 245.095 945.503 245.165C945.363 245.235 945.258 245.305 945.188 245.375C944.208 246.145 942.843 247.65 941.093 249.89C939.413 252.13 937.663 254.895 935.843 258.185C934.023 261.405 932.308 265.01 930.698 269C929.088 272.92 927.863 276.945 927.023 281.075C926.253 285.135 926.008 289.16 926.288 293.15C926.568 297.07 927.688 300.64 929.648 303.86ZM1008.34 238.025C1008.9 238.515 1009.15 239.495 1009.08 240.965C1009.08 242.435 1008.9 244.115 1008.55 246.005C1008.27 247.825 1007.92 249.715 1007.5 251.675C1007.15 253.635 1006.91 255.28 1006.77 256.61C1006.14 261.93 1005.4 267.425 1004.56 273.095C1003.79 278.765 1002.74 284.085 1001.41 289.055C1000.08 293.955 998.404 298.19 996.374 301.76C994.344 305.33 991.824 307.64 988.814 308.69C987.694 309.74 985.454 310.265 982.094 310.265H980.834C980.484 310.475 979.854 310.615 978.944 310.685C978.034 310.685 977.264 310.685 976.634 310.685H977.579C976.319 310.685 975.129 310.405 974.009 309.845C972.889 309.285 971.839 308.585 970.859 307.745C969.949 306.835 969.144 305.82 968.444 304.7C967.744 303.58 967.184 302.425 966.764 301.235C965.434 298.155 964.559 294.655 964.139 290.735C963.719 286.745 963.579 282.685 963.719 278.555C963.859 274.355 964.209 270.225 964.769 266.165C965.329 262.105 965.924 258.43 966.554 255.14C967.254 251.78 967.884 248.98 968.444 246.74C969.074 244.5 969.494 243.1 969.704 242.54C970.124 241.14 970.614 240.16 971.174 239.6C971.804 239.04 972.504 238.69 973.274 238.55C974.114 238.34 975.024 238.235 976.004 238.235C976.984 238.165 978.069 237.955 979.259 237.605H980.099C980.309 237.395 980.519 237.29 980.729 237.29C980.939 237.22 981.254 237.185 981.674 237.185C982.094 237.185 982.479 237.29 982.829 237.5C983.179 237.64 983.354 237.815 983.354 238.025C983.774 238.585 983.984 239.25 983.984 240.02C983.984 240.72 983.774 241.7 983.354 242.96C980.554 253.32 978.769 262.07 977.999 269.21C977.229 276.35 976.984 282.23 977.264 286.85C977.544 291.47 978.104 295.005 978.944 297.455C979.854 299.835 980.624 301.48 981.254 302.39C982.654 301.13 983.879 299.38 984.929 297.14C986.049 294.9 987.029 292.345 987.869 289.475C988.709 286.605 989.444 283.525 990.074 280.235C990.704 276.945 991.229 273.69 991.649 270.47C992.139 267.18 992.559 263.995 992.909 260.915C993.259 257.835 993.574 255.035 993.854 252.515C993.994 249.575 994.169 247.09 994.379 245.06C994.589 242.96 994.799 241.28 995.009 240.02C995.219 238.83 995.919 238.13 997.109 237.92C998.299 237.71 999.454 237.605 1000.57 237.605C1000.92 237.605 1001.38 237.605 1001.94 237.605C1002.57 237.535 1003.2 237.395 1003.83 237.185C1004.18 237.185 1004.53 237.115 1004.88 236.975C1005.3 236.835 1005.65 236.765 1005.93 236.765C1007.12 236.765 1007.92 237.185 1008.34 238.025ZM1008.16 304.91C1008.51 304.14 1008.72 303.475 1008.79 302.915C1008.93 302.355 1009.03 301.9 1009.1 301.55C1009.17 301.2 1009.28 300.99 1009.42 300.92C1009.56 300.78 1009.84 300.78 1010.26 300.92C1010.61 300.92 1011.1 300.885 1011.73 300.815C1012.43 300.745 1013.16 300.71 1013.93 300.71C1014.77 300.64 1015.54 300.57 1016.24 300.5C1017.01 300.43 1017.68 300.395 1018.24 300.395C1018.73 300.395 1019.04 300.5 1019.18 300.71C1019.32 300.92 1019.36 301.2 1019.29 301.55C1019.29 301.9 1019.22 302.285 1019.08 302.705C1018.94 303.125 1018.8 303.51 1018.66 303.86C1018.1 304.84 1017.68 305.89 1017.4 307.01C1017.12 308.13 1016.84 309.075 1016.56 309.845C1016.35 310.195 1016.1 310.405 1015.82 310.475C1015.61 310.545 1015.3 310.545 1014.88 310.475C1014.53 310.405 1014 310.335 1013.3 310.265C1012.67 310.195 1011.8 310.23 1010.68 310.37C1009.56 310.37 1008.72 310.335 1008.16 310.265C1007.6 310.125 1007.18 309.985 1006.9 309.845C1006.69 309.635 1006.58 309.46 1006.58 309.32C1006.58 309.18 1006.58 309.04 1006.58 308.9C1006.72 308.76 1006.86 308.48 1007 308.06C1007.21 307.64 1007.39 307.185 1007.53 306.695C1007.74 306.135 1007.95 305.54 1008.16 304.91ZM1010.68 294.41C1010.82 294.27 1010.99 293.64 1011.2 292.52C1011.41 291.33 1011.66 289.965 1011.94 288.425C1012.22 286.815 1012.5 285.17 1012.78 283.49C1013.06 281.74 1013.34 280.235 1013.62 278.975C1013.76 278.205 1013.97 277.12 1014.25 275.72C1014.6 274.25 1014.95 272.605 1015.3 270.785C1015.72 268.965 1016.14 267.075 1016.56 265.115C1017.05 263.155 1017.47 261.335 1017.82 259.655C1018.24 257.905 1018.59 256.365 1018.87 255.035C1019.22 253.635 1019.46 252.655 1019.6 252.095C1019.74 251.185 1019.95 250.065 1020.23 248.735C1020.58 247.405 1020.93 246.075 1021.28 244.745C1021.7 243.415 1022.05 242.19 1022.33 241.07C1022.68 239.88 1022.93 239.04 1023.07 238.55C1023.35 237.78 1023.7 237.43 1024.12 237.5C1024.54 237.5 1025.03 237.5 1025.59 237.5C1025.94 237.5 1026.64 237.5 1027.69 237.5C1028.81 237.43 1030.28 237.29 1032.1 237.08C1033.08 237.08 1033.74 237.185 1034.09 237.395C1034.51 237.605 1034.76 237.85 1034.83 238.13C1034.9 238.41 1034.83 238.725 1034.62 239.075C1033.78 240.825 1032.83 243.38 1031.78 246.74C1030.8 250.1 1029.79 253.81 1028.74 257.87C1027.69 261.93 1026.67 266.13 1025.69 270.47C1024.71 274.74 1023.84 278.66 1023.07 282.23C1022.3 285.8 1021.67 288.81 1021.18 291.26C1020.76 293.64 1020.55 295.005 1020.55 295.355C1020.34 296.335 1020.02 296.93 1019.6 297.14C1019.25 297.28 1018.94 297.35 1018.66 297.35C1018.1 297.14 1017.15 297.035 1015.82 297.035C1014.56 296.965 1013.34 296.93 1012.15 296.93C1011.66 296.93 1011.31 296.825 1011.1 296.615C1010.89 296.405 1010.75 296.16 1010.68 295.88C1010.61 295.6 1010.57 295.32 1010.57 295.04C1010.64 294.76 1010.68 294.55 1010.68 294.41Z" fill="#D92622"/>
<g filter="url(#filter1_d_916_3)">
<path d="M84.1538 35.9653C81.7045 27.5844 88.0493 19.2198 96.7802 19.3195L1034.25 30.0197C1038.3 30.0659 1042.09 31.9927 1044.51 35.2322L1135.31 156.613C1141.64 165.078 1135.75 177.16 1125.19 177.396L141.948 199.378C136.066 199.51 130.829 195.675 129.179 190.028L84.1538 35.9653Z" fill="#D92622"/>
</g>
<path d="M271.2 80.3854C272.101 79.8428 273.456 79.3221 275.264 78.8235C277.126 78.3243 278.99 78.065 280.856 78.0458C283.523 78.0183 285.873 78.3941 287.908 79.1732C289.996 79.8984 291.341 81.0846 291.945 82.7318C292.934 85.4951 294.007 88.7108 295.165 92.3791C296.323 96.0474 297.482 99.849 298.642 103.784C299.803 107.665 300.936 111.521 302.042 115.349C303.147 119.125 304.115 122.475 304.946 125.4C304.313 126.153 303.359 126.75 302.084 127.19C300.809 127.683 299.291 127.938 297.531 127.957C296.252 127.97 295.157 127.874 294.248 127.67C293.393 127.466 292.67 127.153 292.079 126.733C291.541 126.312 291.082 125.756 290.701 125.067C290.374 124.377 290.073 123.58 289.797 122.676L288.3 117.171L273.821 117.32C273.41 118.925 273.001 120.582 272.592 122.293C272.183 124.004 271.773 125.662 271.363 127.266C270.619 127.541 269.821 127.762 268.97 127.931C268.172 128.153 267.186 128.269 266.013 128.281C263.293 128.309 261.262 127.877 259.919 126.984C258.63 126.037 257.976 124.737 257.959 123.084C257.951 122.338 258.05 121.59 258.256 120.841C258.462 120.092 258.693 119.21 258.949 118.194C259.307 116.75 259.796 114.958 260.414 112.818C261.085 110.678 261.808 108.377 262.582 105.916C263.357 103.401 264.184 100.832 265.063 98.2096C265.943 95.5871 266.771 93.1251 267.547 90.8236C268.323 88.4688 269.022 86.3815 269.643 84.5617C270.317 82.7413 270.836 81.3492 271.2 80.3854ZM280.906 90.606C280.182 92.8535 279.355 95.3689 278.423 98.1519C277.545 100.881 276.747 103.663 276.029 106.497L285.949 106.395C285.172 103.523 284.37 100.731 283.542 98.0192C282.767 95.2537 282.048 92.781 281.386 90.601L280.906 90.606ZM371.37 118.475C371.387 120.128 371.106 121.358 370.528 122.164C369.949 122.97 369.024 123.753 367.752 124.513C367.009 124.947 366.08 125.383 364.965 125.822C363.849 126.206 362.626 126.539 361.295 126.819C359.965 127.153 358.554 127.408 357.063 127.583C355.624 127.758 354.185 127.853 352.745 127.868C348.906 127.907 345.301 127.438 341.93 126.459C338.559 125.427 335.61 123.884 333.082 121.83C330.607 119.722 328.633 117.102 327.161 113.971C325.688 110.839 324.931 107.193 324.888 103.033C324.843 98.6603 325.577 94.8392 327.09 91.5701C328.656 88.3004 330.708 85.5858 333.246 83.4262C335.837 81.2127 338.78 79.5556 342.076 78.4549C345.424 77.3537 348.859 76.785 352.379 76.7487C357.445 76.6965 361.453 77.4819 364.403 79.1049C367.406 80.674 368.921 82.7652 368.948 85.3784C368.963 86.765 368.628 87.9685 367.946 88.9889C367.263 90.0093 366.471 90.8175 365.57 91.4135C364.229 90.6273 362.541 89.8713 360.507 89.1456C358.525 88.366 356.281 87.9891 353.775 88.0149C349.295 88.0611 345.735 89.3778 343.095 91.9652C340.508 94.552 339.238 98.1119 339.285 102.645C339.31 105.098 339.679 107.228 340.391 109.034C341.155 110.786 342.157 112.243 343.396 113.403C344.634 114.51 346.056 115.349 347.662 115.919C349.267 116.436 350.977 116.685 352.79 116.667C353.963 116.654 355.002 116.537 355.906 116.314C356.811 116.092 357.502 115.845 357.979 115.573L357.901 108.053L349.342 108.142C349.016 107.558 348.688 106.788 348.358 105.832C348.082 104.874 347.938 103.863 347.927 102.796C347.907 100.876 348.319 99.485 349.164 98.623C350.062 97.7603 351.204 97.3219 352.59 97.3076L366.11 97.1683C367.71 97.1518 368.941 97.5924 369.804 98.4903C370.719 99.3342 371.185 100.556 371.201 102.156L371.37 118.475ZM394.413 110.477L394.572 125.836C393.987 126.003 393.055 126.172 391.777 126.345C390.552 126.518 389.326 126.611 388.099 126.623C386.873 126.636 385.778 126.54 384.816 126.337C383.908 126.186 383.131 125.874 382.487 125.401C381.895 124.927 381.435 124.265 381.106 123.415C380.777 122.565 380.606 121.447 380.591 120.06L380.203 82.3822C380.192 81.2623 380.476 80.406 381.057 79.8133C381.69 79.1667 382.538 78.6513 383.601 78.267C385.408 77.6084 387.509 77.1333 389.907 76.8419C392.303 76.4972 394.861 76.3109 397.581 76.2828C404.941 76.207 410.503 77.6964 414.268 80.7511C418.033 83.8058 419.943 87.973 419.997 93.2527C420.031 96.5592 419.207 99.3945 417.525 101.759C415.842 104.123 413.834 105.957 411.501 107.261C413.448 109.854 415.366 112.288 417.257 114.562C419.147 116.836 420.635 118.901 421.721 120.756C421.207 122.628 420.235 124.079 418.805 125.107C417.429 126.081 415.86 126.577 414.101 126.595C412.927 126.607 411.913 126.484 411.057 126.227C410.201 125.969 409.45 125.603 408.805 125.13C408.16 124.656 407.568 124.076 407.027 123.388C406.487 122.7 405.972 121.959 405.484 121.164L398.653 110.434L394.413 110.477ZM399.343 99.7859C401.37 99.765 402.965 99.2419 404.128 98.2165C405.29 97.1378 405.861 95.5852 405.84 93.5586C405.819 91.5321 405.136 90.019 403.793 89.0195C402.502 87.9661 400.443 87.4539 397.617 87.4831C396.817 87.4913 396.177 87.5246 395.698 87.5828C395.218 87.6411 394.686 87.7266 394.1 87.8393L394.224 99.8387L399.343 99.7859ZM439.863 78.6472C440.764 78.1046 442.119 77.5839 443.927 77.0853C445.789 76.5861 447.653 76.3268 449.519 76.3076C452.186 76.2801 454.536 76.6559 456.571 77.435C458.659 78.1602 460.004 79.3464 460.608 80.9936C461.597 83.7569 462.67 86.9726 463.828 90.6409C464.986 94.3092 466.145 98.1108 467.305 102.046C468.465 105.927 469.599 109.782 470.705 113.611C471.81 117.387 472.778 120.737 473.608 123.662C472.976 124.415 472.022 125.012 470.747 125.451C469.472 125.945 467.954 126.2 466.194 126.218C464.914 126.232 463.82 126.136 462.911 125.932C462.056 125.728 461.333 125.415 460.742 124.995C460.204 124.573 459.745 124.018 459.364 123.329C459.037 122.639 458.736 121.842 458.46 120.938L456.963 115.433L442.484 115.582C442.073 117.186 441.664 118.844 441.255 120.555C440.846 122.266 440.436 123.924 440.026 125.528C439.282 125.802 438.484 126.024 437.633 126.193C436.835 126.414 435.849 126.531 434.676 126.543C431.956 126.571 429.925 126.139 428.582 125.246C427.293 124.299 426.639 122.999 426.622 121.346C426.614 120.599 426.713 119.852 426.919 119.103C427.125 118.354 427.356 117.472 427.612 116.455C427.97 115.012 428.458 113.22 429.076 111.08C429.748 108.94 430.471 106.639 431.245 104.177C432.02 101.663 432.846 99.094 433.726 96.4714C434.606 93.8489 435.434 91.3869 436.21 89.0854C436.986 86.7306 437.684 84.6433 438.306 82.8235C438.98 81.0031 439.499 79.611 439.863 78.6472ZM449.569 88.8678C448.845 91.1153 448.018 93.6307 447.086 96.4137C446.208 99.1429 445.41 101.925 444.692 104.759L454.612 104.657C453.835 101.784 453.033 98.9926 452.205 96.281C451.43 93.5155 450.711 91.0428 450.049 88.8628L449.569 88.8678ZM524.082 123.142C523.343 123.896 522.256 124.467 520.82 124.855C519.437 125.296 517.76 125.527 515.786 125.547C513.813 125.568 511.944 125.294 510.178 124.725C508.412 124.157 506.957 122.758 505.814 120.53L497.728 104.452C496.911 102.807 496.175 101.268 495.52 99.8348C494.865 98.3481 494.154 96.6487 493.388 94.7365L492.909 94.8214C493.152 97.6991 493.288 100.631 493.319 103.618C493.403 106.604 493.46 109.537 493.49 112.416L493.618 124.816C493.033 124.982 492.128 125.151 490.903 125.324C489.731 125.496 488.559 125.588 487.385 125.6C486.212 125.612 485.171 125.543 484.263 125.392C483.355 125.242 482.605 124.929 482.013 124.455C481.422 123.981 480.962 123.346 480.634 122.549C480.305 121.699 480.134 120.608 480.12 119.275L479.708 79.2767C480.443 78.2023 481.582 77.3906 483.123 76.8413C484.664 76.2921 486.314 76.0084 488.074 75.9903C490.047 75.9699 491.917 76.2707 493.684 76.8925C495.503 77.4605 496.957 78.8322 498.046 81.0078L506.213 97.0845C507.03 98.7295 507.766 100.295 508.421 101.782C509.076 103.215 509.786 104.888 510.553 106.8L510.952 106.716C510.709 103.838 510.546 100.96 510.463 98.0807C510.38 95.2014 510.324 92.3218 510.294 89.442L510.16 76.4827C510.745 76.3166 511.624 76.1476 512.795 75.9755C514.02 75.8029 515.219 75.7105 516.393 75.6984C518.739 75.6742 520.53 76.0825 521.766 76.9231C523 77.7104 523.631 79.4107 523.658 82.0239L524.082 123.142ZM544.31 77.5708C545.211 77.0282 546.566 76.5075 548.374 76.0089C550.236 75.5096 552.1 75.2504 553.967 75.2312C556.633 75.2037 558.984 75.5795 561.019 76.3586C563.106 77.0838 564.452 78.27 565.056 79.9172C566.044 82.6805 567.117 85.8962 568.275 89.5645C569.433 93.2328 570.592 97.0343 571.753 100.969C572.913 104.851 574.046 108.706 575.152 112.535C576.258 116.31 577.226 119.661 578.056 122.585C577.424 123.339 576.47 123.935 575.194 124.375C573.919 124.868 572.402 125.124 570.642 125.142C569.362 125.155 568.268 125.06 567.359 124.856C566.503 124.651 565.78 124.339 565.189 123.918C564.651 123.497 564.192 122.942 563.812 122.252C563.485 121.562 563.183 120.765 562.907 119.861L561.41 114.357L546.931 114.506C546.521 116.11 546.111 117.768 545.702 119.479C545.293 121.19 544.884 122.847 544.473 124.452C543.73 124.726 542.932 124.948 542.08 125.116C541.282 125.338 540.297 125.455 539.124 125.467C536.404 125.495 534.373 125.062 533.03 124.17C531.74 123.223 531.087 121.923 531.07 120.27C531.062 119.523 531.161 118.775 531.367 118.026C531.572 117.278 531.803 116.395 532.059 115.379C532.418 113.935 532.906 112.144 533.524 110.004C534.195 107.863 534.918 105.562 535.693 103.101C536.467 100.586 537.294 98.0175 538.174 95.395C539.053 92.7725 539.881 90.3105 540.658 88.009C541.434 85.6542 542.132 83.5669 542.753 81.7471C543.428 79.9267 543.947 78.5346 544.31 77.5708ZM554.016 87.7913C553.293 90.0389 552.465 92.5542 551.534 95.3373C550.655 98.0665 549.857 100.848 549.14 103.682L559.059 103.58C558.283 100.708 557.481 97.9162 556.653 95.2046C555.878 92.4391 555.159 89.9663 554.496 87.7864L554.016 87.7913ZM610.479 76.8889C611.38 76.3463 612.735 75.8256 614.543 75.3269C616.404 74.8277 618.269 74.5685 620.135 74.5493C622.802 74.5218 625.152 74.8976 627.187 75.6767C629.275 76.4018 630.62 77.588 631.224 79.2352C632.213 81.9985 633.286 85.2143 634.444 88.8826C635.601 92.5508 636.761 96.3524 637.921 100.287C639.081 104.169 640.214 108.024 641.321 111.853C642.426 115.628 643.394 118.979 644.224 121.904C643.592 122.657 642.638 123.253 641.363 123.693C640.088 124.186 638.57 124.442 636.81 124.46C635.53 124.473 634.436 124.378 633.527 124.174C632.672 123.969 631.948 123.657 631.357 123.236C630.82 122.815 630.361 122.26 629.98 121.57C629.653 120.88 629.352 120.083 629.076 119.18L627.579 113.675L613.099 113.824C612.689 115.428 612.28 117.086 611.871 118.797C611.462 120.508 611.052 122.165 610.642 123.77C609.898 124.044 609.1 124.266 608.249 124.434C607.451 124.656 606.465 124.773 605.292 124.785C602.572 124.813 600.541 124.381 599.198 123.488C597.909 122.541 597.255 121.241 597.238 119.588C597.23 118.841 597.329 118.093 597.535 117.344C597.741 116.596 597.971 115.713 598.228 114.697C598.586 113.253 599.074 111.462 599.692 109.322C600.364 107.181 601.087 104.881 601.861 102.419C602.635 99.9043 603.462 97.3356 604.342 94.7131C605.222 92.0906 606.05 89.6286 606.826 87.3271C607.602 84.9723 608.3 82.885 608.922 81.0652C609.596 79.2448 610.115 77.8527 610.479 76.8889ZM620.185 87.1094C619.461 89.357 618.634 91.8723 617.702 94.6554C616.824 97.3846 616.026 100.166 615.308 103.001L625.228 102.898C624.451 100.026 623.649 97.2343 622.821 94.5226C622.046 91.7572 621.327 89.2844 620.665 87.1045L620.185 87.1094ZM668.689 97.3301C670.929 97.307 672.63 96.7828 673.793 95.7574C675.008 94.6782 675.605 93.072 675.583 90.9387C675.562 88.9122 674.906 87.3722 673.615 86.3188C672.377 85.2115 670.558 84.6702 668.158 84.6949C667.305 84.7037 666.585 84.7378 665.999 84.7972C665.466 84.8027 664.907 84.8618 664.321 84.9745L664.449 97.3738L668.689 97.3301ZM664.794 123.052C664.209 123.218 663.277 123.387 661.999 123.56C660.774 123.733 659.548 123.826 658.321 123.838C657.095 123.851 656 123.756 655.038 123.552C654.13 123.402 653.353 123.09 652.708 122.616C652.064 122.143 651.577 121.481 651.248 120.631C650.919 119.781 650.748 118.663 650.733 117.276L650.345 79.5982C650.333 78.4783 650.618 77.622 651.199 77.0293C651.832 76.3827 652.68 75.8673 653.743 75.483C655.549 74.8243 657.598 74.3499 659.888 74.0596C662.232 73.7154 664.577 73.5312 666.923 73.5071C674.283 73.4312 679.925 74.9465 683.851 78.0528C687.776 81.1592 689.767 85.4056 689.822 90.792C689.849 93.4052 689.447 95.7828 688.616 97.9248C687.837 100.013 686.629 101.839 684.992 103.402C683.408 104.912 681.366 106.107 678.869 106.986C676.424 107.811 673.575 108.24 670.322 108.274L664.642 108.332L664.794 123.052ZM696.857 81.999C696.833 79.7058 697.481 77.8857 698.8 76.5387C700.12 75.1917 701.926 74.5064 704.22 74.4828L730.618 74.2107C730.997 74.7935 731.325 75.5635 731.602 76.5207C731.932 77.4773 732.102 78.489 732.113 79.5556C732.134 81.5821 731.696 83.0267 730.798 83.8894C729.953 84.7514 728.811 85.1899 727.371 85.2047L710.492 85.3787L710.569 92.8183L728.568 92.6328C728.947 93.2156 729.275 93.9856 729.552 94.9428C729.881 95.8461 730.051 96.8311 730.062 97.8977C730.083 99.9242 729.671 101.369 728.827 102.231C727.982 103.093 726.84 103.531 725.4 103.546L710.681 103.698L710.767 112.097L731.326 111.885C731.706 112.468 732.034 113.238 732.31 114.195C732.64 115.152 732.811 116.164 732.822 117.23C732.842 119.257 732.404 120.728 731.507 121.644C730.662 122.506 729.52 122.945 728.08 122.959L704.722 123.2C702.428 123.224 700.608 122.576 699.261 121.256C697.914 119.937 697.229 118.13 697.205 115.837L696.857 81.999ZM754.863 106.763L755.021 122.122C754.436 122.288 753.505 122.457 752.226 122.631C751.001 122.803 749.776 122.896 748.549 122.909C747.322 122.921 746.228 122.826 745.266 122.622C744.358 122.472 743.581 122.16 742.936 121.686C742.345 121.212 741.884 120.55 741.556 119.7C741.227 118.85 741.055 117.732 741.041 116.346L740.653 78.6675C740.641 77.5476 740.926 76.6913 741.506 76.0986C742.14 75.452 742.988 74.9366 744.05 74.5523C745.857 73.8936 747.959 73.4186 750.356 73.1272C752.753 72.7825 755.311 72.5961 758.031 72.5681C765.39 72.4923 770.953 73.9817 774.718 77.0364C778.483 80.0911 780.392 84.2583 780.447 89.538C780.481 92.8445 779.657 95.6798 777.974 98.0439C776.292 100.408 774.284 102.242 771.951 103.546C773.898 106.14 775.816 108.573 777.706 110.847C779.596 113.121 781.085 115.186 782.17 117.042C781.656 118.914 780.685 120.364 779.255 121.392C777.878 122.366 776.31 122.862 774.55 122.881C773.377 122.893 772.362 122.77 771.506 122.512C770.65 122.254 769.9 121.888 769.255 121.415C768.61 120.942 768.017 120.361 767.477 119.673C766.936 118.985 766.422 118.244 765.934 117.449L759.103 106.719L754.863 106.763ZM759.793 96.0712C761.82 96.0503 763.414 95.5272 764.577 94.5018C765.739 93.4231 766.31 91.8705 766.289 89.8439C766.268 87.8174 765.586 86.3043 764.242 85.3048C762.951 84.2514 760.893 83.7392 758.066 83.7683C757.266 83.7766 756.627 83.8098 756.147 83.8681C755.668 83.9264 755.135 84.0119 754.55 84.1246L754.673 96.124L759.793 96.0712ZM786.057 84.84C785.677 84.2572 785.323 83.4608 784.992 82.4508C784.662 81.4408 784.491 80.3759 784.479 79.2559C784.458 77.176 784.896 75.6781 785.793 74.7621C786.744 73.8456 787.966 73.3797 789.459 73.3643L824.337 73.0048C824.716 73.5876 825.071 74.384 825.402 75.394C825.732 76.404 825.903 77.4689 825.915 78.5889C825.936 80.6688 825.471 82.167 824.521 83.0835C823.624 83.9994 822.428 84.4651 820.935 84.4805L812.055 84.572L812.436 121.53C811.851 121.696 810.92 121.866 809.641 122.039C808.416 122.212 807.191 122.304 805.964 122.317C804.738 122.329 803.643 122.234 802.681 122.031C801.773 121.88 800.996 121.568 800.351 121.095C799.706 120.621 799.219 119.96 798.891 119.11C798.562 118.26 798.39 117.141 798.376 115.755L798.056 84.7163L786.057 84.84ZM828.372 97.3645C828.329 93.2048 828.931 89.5184 830.178 86.3053C831.478 83.0918 833.237 80.4068 835.455 78.2505C837.726 76.0404 840.375 74.3596 843.404 73.2084C846.485 72.0565 849.813 71.4622 853.386 71.4254C856.959 71.3886 860.271 71.9145 863.323 73.0031C866.427 74.0911 869.138 75.7166 871.453 77.8795C873.769 79.9891 875.583 82.6372 876.896 85.8239C878.262 89.01 878.966 92.6829 879.009 96.8427C879.052 101.002 878.45 104.716 877.204 107.982C875.957 111.195 874.198 113.907 871.927 116.117C869.71 118.273 867.06 119.927 863.978 121.079C860.897 122.231 857.543 122.825 853.916 122.863C850.29 122.9 846.924 122.375 843.819 121.287C840.714 120.145 838.03 118.493 835.768 116.329C833.505 114.166 831.718 111.491 830.405 108.304C829.092 105.118 828.414 101.471 828.372 97.3645ZM842.771 97.2162C842.821 102.069 843.845 105.686 845.843 108.065C847.841 110.445 850.493 111.617 853.8 111.583C857.16 111.549 859.814 110.321 861.762 107.901C863.711 105.481 864.66 101.844 864.61 96.9911C864.561 92.1913 863.537 88.6017 861.539 86.2222C859.594 83.8421 856.942 82.6693 853.582 82.704C850.276 82.738 847.622 83.9655 845.62 86.3862C843.671 88.7531 842.721 92.3631 842.771 97.2162ZM930.042 102.717C930.072 105.597 929.593 108.242 928.604 110.652C927.668 113.009 926.276 115.05 924.427 116.776C922.578 118.448 920.324 119.751 917.667 120.686C915.01 121.62 912.001 122.104 908.641 122.139C905.282 122.173 902.264 121.751 899.588 120.872C896.912 119.993 894.632 118.736 892.749 117.102C890.865 115.415 889.404 113.403 888.366 111.067C887.382 108.677 886.874 106.042 886.845 103.162L886.53 72.6039C887.115 72.4912 888.047 72.3483 889.326 72.1751C890.603 71.9486 891.829 71.8293 893.002 71.8172C894.229 71.8045 895.296 71.9002 896.205 72.1042C897.167 72.2543 897.97 72.566 898.615 73.0394C899.26 73.5128 899.747 74.1745 900.076 75.0244C900.404 75.8744 900.576 76.9927 900.59 78.3793L900.842 102.778C900.868 105.338 901.582 107.331 902.983 108.756C904.438 110.181 906.285 110.882 908.525 110.859C910.818 110.836 912.651 110.097 914.023 108.642C915.394 107.188 916.067 105.181 916.041 102.621L915.728 72.303C916.314 72.1903 917.246 72.0473 918.524 71.8742C919.802 71.6476 921.027 71.5283 922.201 71.5163C923.427 71.5036 924.495 71.5993 925.404 71.8033C926.365 71.9534 927.169 72.2651 927.813 72.7385C928.458 73.2119 928.945 73.8735 929.274 74.7235C929.603 75.5735 929.774 76.6918 929.789 78.0784L930.042 102.717ZM943.368 114.34C943.345 112.154 943.994 110.36 945.313 108.96C946.684 107.506 948.57 106.766 950.97 106.742C953.37 106.717 955.244 107.418 956.592 108.844C957.993 110.216 958.705 111.996 958.727 114.182C958.75 116.369 958.075 118.189 956.703 119.643C955.384 121.044 953.525 121.756 951.125 121.781C948.725 121.806 946.825 121.132 945.424 119.759C944.076 118.333 943.39 116.527 943.368 114.34ZM945.9 103.834C944.988 103.363 944.126 102.519 943.314 101.3C942.5 100.029 942.085 98.5394 942.067 96.8329C942.05 95.1796 942.464 93.9486 943.309 93.1399C944.207 92.2772 945.507 91.6238 947.209 91.1796L953.433 89.5953C956.093 88.8746 957.413 87.5809 957.394 85.7143C957.383 84.7011 956.868 83.8263 955.847 83.0901C954.879 82.3534 953.195 81.9974 950.795 82.0221C948.609 82.0447 946.559 82.3591 944.645 82.9656C942.73 83.5187 941.19 84.1746 940.025 84.9333C939.111 84.2493 938.329 83.4307 937.679 82.4773C937.029 81.4706 936.697 80.274 936.682 78.8874C936.668 77.5008 937.056 76.2968 937.845 75.2752C938.634 74.2004 939.719 73.3358 941.099 72.6816C942.531 71.9734 944.206 71.4495 946.123 71.1097C948.093 70.7694 950.251 70.5871 952.597 70.563C958.89 70.4981 963.651 71.8624 966.88 74.656C970.162 77.3956 971.826 81.032 971.873 85.5651C971.961 94.098 965.991 99.6265 953.963 102.151L945.9 103.834Z" fill="#FAF7E0"/>
<defs>
<filter id="filter0_d_916_3" x="0.0234375" y="150.76" width="1249.57" height="236.576" filterUnits="userSpaceOnUse" color-interpolation-filters="sRGB">
<feFlood flood-opacity="0" result="BackgroundImageFix"/>
<feColorMatrix in="SourceAlpha" type="matrix" values="0 0 0 0 0 0 0 0 0 0 0 0 0 0 0 0 0 0 127 0" result="hardAlpha"/>
<feOffset dy="4"/>
<feGaussianBlur stdDeviation="2"/>
<feComposite in2="hardAlpha" operator="out"/>
<feColorMatrix type="matrix" values="0 0 0 0 0 0 0 0 0 0 0 0 0 0 0 0 0 0 0.25 0"/>
<feBlend mode="normal" in2="BackgroundImageFix" result="effect1_dropShadow_916_3"/>
<feBlend mode="normal" in="SourceGraphic" in2="effect1_dropShadow_916_3" result="shape"/>
</filter>
<filter id="filter1_d_916_3" x="79.625" y="19.3184" width="1062.29" height="188.062" filterUnits="userSpaceOnUse" color-interpolation-filters="sRGB">
<feFlood flood-opacity="0" result="BackgroundImageFix"/>
<feColorMatrix in="SourceAlpha" type="matrix" values="0 0 0 0 0 0 0 0 0 0 0 0 0 0 0 0 0 0 127 0" result="hardAlpha"/>
<feOffset dy="4"/>
<feGaussianBlur stdDeviation="2"/>
<feComposite in2="hardAlpha" operator="out"/>
<feColorMatrix type="matrix" values="0 0 0 0 0 0 0 0 0 0 0 0 0 0 0 0 0 0 0.25 0"/>
<feBlend mode="normal" in2="BackgroundImageFix" result="effect1_dropShadow_916_3"/>
<feBlend mode="normal" in="SourceGraphic" in2="effect1_dropShadow_916_3" result="shape"/>
</filter>
</defs>
</svg>
