<svg width="12088" height="8235" viewBox="0 0 12088 8235" fill="none" xmlns="http://www.w3.org/2000/svg">
<path fill-rule="evenodd" clip-rule="evenodd" d="M5274.84 8235H7408.5L7923 6235.03C11751.5 6661.23 14233.2 411.58 9421.1 411.58C9421.1 411.58 8194.47 411.58 7408.5 411.58C6651.88 411.578 6349.24 381.316 6243.31 759.624C6137.38 1137.93 6379.5 1440.58 6379.5 1440.58L7198.02 1183.33L5274.84 8235ZM9249.81 1077.4L8093.64 5571.7C10692.2 5571.7 11569.9 971.477 9249.81 1077.4Z" fill="#FFDD41"/>
<path d="M108.639 415.332H1567.51L2064.14 1589.01H8452.14V1894.49L6977.69 6171.19H2064.14L1583.03 1894.49L1148.47 785.122H0L108.639 415.332Z" fill="url(#paint0_linear_1776_10)"/>
<path d="M1567.51 415.332H108.639L0 794.76H1148.47L1583.03 1933.05H8244.47L8389.84 1589.41H2061.8L1567.51 415.332Z" fill="url(#paint1_linear_1776_10)"/>
<ellipse cx="2877.96" cy="7603.04" rx="644.312" ry="629.994" fill="url(#paint2_linear_1776_10)"/>
<path fill-rule="evenodd" clip-rule="evenodd" d="M5286 7824H7419.66L7934.16 5824.02C11762.6 6250.23 14244.3 0.576484 9432.26 0.576484C9432.26 0.576484 8205.63 0.576484 7419.66 0.576484C6663.04 0.573977 6360.4 -29.6877 6254.47 348.62C6148.54 726.927 6390.66 1029.58 6390.66 1029.58L7209.18 772.326L5286 7824ZM9260.97 666.399L8104.8 5160.7C10703.4 5160.7 11581 560.473 9260.97 666.399Z" fill="url(#paint3_linear_1776_10)"/>
<defs>
<linearGradient id="paint0_linear_1776_10" x1="9441.75" y1="3305.66" x2="1803.02" y2="3305.66" gradientUnits="userSpaceOnUse">
<stop stop-color="#CE9C1A"/>
<stop offset="1" stop-color="#F8C238"/>
</linearGradient>
<linearGradient id="paint1_linear_1776_10" x1="10019.8" y1="1186.09" x2="-8.0108e-06" y2="1186.09" gradientUnits="userSpaceOnUse">
<stop stop-color="#FF0D26"/>
<stop offset="1" stop-color="#BD100F"/>
</linearGradient>
<linearGradient id="paint2_linear_1776_10" x1="3523.48" y1="7599.91" x2="2229.72" y2="7599.91" gradientUnits="userSpaceOnUse">
<stop stop-color="#12308A"/>
<stop offset="1" stop-color="#020659"/>
</linearGradient>
<linearGradient id="paint3_linear_1776_10" x1="8866.02" y1="482.562" x2="8866.01" y2="7226.99" gradientUnits="userSpaceOnUse">
<stop stop-color="#FF0D26"/>
<stop offset="1" stop-color="#BD100F"/>
</linearGradient>
</defs>
</svg>
