<svg width="1250" height="388" viewBox="0 0 1250 388" fill="none" xmlns="http://www.w3.org/2000/svg">
<g filter="url(#filter0_d_1741_3)">
<path d="M4.44366 168.554C2.19853 159.396 9.23212 150.593 18.6602 150.762L1231.48 172.472C1240.36 172.631 1246.98 180.735 1245.35 189.472L1213.25 361.979C1211.98 368.759 1206.08 373.688 1199.19 373.722L67.4614 379.335C60.8153 379.368 55.0133 374.84 53.4309 368.385L4.44366 168.554Z" fill="#FFDD41"/>
</g>
<path d="M69.9233 35.9653C67.474 27.5844 73.8188 19.2198 82.5497 19.3195L1020.02 30.0197C1024.07 30.0659 1027.86 31.9927 1030.28 35.2322L1121.07 156.613C1127.41 165.078 1121.52 177.16 1110.96 177.396L127.717 199.378C121.836 199.51 116.599 195.675 114.949 190.028L69.9233 35.9653Z" fill="#D92622"/>
<defs>
<filter id="filter0_d_1741_3" x="0.0234375" y="150.76" width="1249.57" height="236.576" filterUnits="userSpaceOnUse" color-interpolation-filters="sRGB">
<feFlood flood-opacity="0" result="BackgroundImageFix"/>
<feColorMatrix in="SourceAlpha" type="matrix" values="0 0 0 0 0 0 0 0 0 0 0 0 0 0 0 0 0 0 127 0" result="hardAlpha"/>
<feOffset dy="4"/>
<feGaussianBlur stdDeviation="2"/>
<feComposite in2="hardAlpha" operator="out"/>
<feColorMatrix type="matrix" values="0 0 0 0 0 0 0 0 0 0 0 0 0 0 0 0 0 0 0.25 0"/>
<feBlend mode="normal" in2="BackgroundImageFix" result="effect1_dropShadow_1741_3"/>
<feBlend mode="normal" in="SourceGraphic" in2="effect1_dropShadow_1741_3" result="shape"/>
</filter>
</defs>
</svg>
