<svg width="384" height="52" viewBox="0 0 384 52" fill="none" xmlns="http://www.w3.org/2000/svg">
<path fill-rule="evenodd" clip-rule="evenodd" d="M63.832 52.0005H77.2337L80.4653 39.4385C104.512 42.1155 120.1 2.86104 89.875 2.86104C89.875 2.86104 82.1704 2.86104 77.2337 2.86104C72.4813 2.86103 70.5804 2.67095 69.9151 5.04713C69.2497 7.4233 70.7705 9.32426 70.7705 9.32426L75.9117 7.70845L63.832 52.0005ZM88.7991 7.04312L81.5371 35.2721C97.8589 35.2721 103.372 6.37779 88.7991 7.04312Z" fill="#FFDD41"/>
<path d="M145.859 2.86133H127.42L124.559 13.9819H142.999L145.859 2.86133Z" fill="#FFDD41"/>
<path d="M119.056 2.86133C116.3 2.86133 103.088 52.0008 105.94 52.0008C108.791 52.0008 114.779 52.0008 114.779 52.0008L117.64 40.8802L119.963 31.8507L121.87 24.4371L124.559 13.9819L127.42 2.86133C127.42 2.86133 121.812 2.86133 119.056 2.86133Z" fill="#FFDD41"/>
<path d="M121.87 24.4371L119.963 31.8507H138.402L140.309 24.4371H121.87Z" fill="#FFDD41"/>
<path d="M117.64 40.8802L114.779 52.0008H133.218L136.079 40.8802H117.64Z" fill="#FFDD41"/>
<path d="M160.496 2.86133C150.516 2.86131 140.536 40.5951 148.33 52.0007H153.747C153.747 52.0007 154.327 47.4351 154.698 45.7276C152.66 44.5786 161.066 14.4571 163.405 14.4571C164.107 12.271 165.224 7.38975 166.388 2.86133C161.452 2.86133 170.476 2.86135 160.496 2.86133Z" fill="#FFDD41"/>
<path d="M153.747 52.0007H169.145C169.145 52.0007 169.873 47.4351 170.095 45.7276C164.231 45.7276 160.562 45.7276 154.698 45.7276C154.327 47.4351 153.747 52.0007 153.747 52.0007Z" fill="#FFDD41"/>
<path d="M165.058 35.7477H173.326L173.334 35.7162C177.938 17.8298 181.863 9.68083 181.004 5.96824C180.285 2.86133 176.215 2.86133 166.388 2.86133C165.224 7.38975 164.107 12.271 163.405 14.4571C174.182 14.4571 170.666 16.0729 165.058 35.7477Z" fill="#FFDD41"/>
<path d="M194.235 51.8113H207.636L220.278 2.67188H207.636L199.02 34.2669L197.319 40.5007L194.235 51.8113Z" fill="#FFDD41"/>
<path d="M199.02 34.2669H192.714L191.11 40.5007H197.319L199.02 34.2669Z" fill="#FFDD41"/>
<path d="M188.152 2.86197L174.75 52.0014H188.152L191.11 40.5007L192.714 34.2669L200.793 2.86197H188.152Z" fill="#FFDD41"/>
<path d="M217.332 52.0008L230.734 2.86133H243.375L230.734 52.0008H217.332Z" fill="#FFDD41"/>
<path d="M250.503 2.86133L237.102 52.0008H241.759H246.416C246.416 52.0008 251.942 30.6829 255.482 17.0234C256.915 11.4927 257.719 8.39195 259.153 2.86133C255.775 2.86133 250.503 2.86133 250.503 2.86133Z" fill="#FFDD41"/>
<path d="M256.586 52.0008C256.586 52.0008 258.15 46.2658 259.153 42.5911C259.153 42.5911 255.482 42.401 259.153 2.86133C257.719 8.39195 256.915 11.4927 255.482 17.0234C248.032 37.5536 256.586 52.0008 256.586 52.0008Z" fill="#FFDD41"/>
<path d="M265.901 52.0008L278.637 2.86133H269.988C269.988 2.86133 263.384 27.0756 259.153 42.5911C258.15 46.2658 256.586 52.0008 256.586 52.0008H261.244H265.901Z" fill="#FFDD41"/>
<path d="M291.218 2.86133C281.238 2.86131 271.258 40.5951 279.052 52.0007H284.47C284.47 52.0007 285.049 47.4351 285.42 45.7276C283.383 44.5786 291.789 14.4571 294.128 14.4571C294.83 12.271 295.946 7.38975 297.111 2.86133C292.174 2.86133 301.198 2.86135 291.218 2.86133Z" fill="#FFDD41"/>
<path d="M284.47 52.0007H299.868C299.868 52.0007 300.595 47.4351 300.818 45.7276C294.953 45.7276 291.285 45.7276 285.42 45.7276C285.049 47.4351 284.47 52.0007 284.47 52.0007Z" fill="#FFDD41"/>
<path d="M295.78 35.7477H304.049L304.057 35.7162C308.66 17.8298 312.585 9.68083 311.726 5.96824C311.007 2.86133 306.938 2.86133 297.111 2.86133C295.946 7.38975 294.83 12.271 294.128 14.4571C304.905 14.4571 301.388 16.0729 295.78 35.7477Z" fill="#FFDD41"/>
<path d="M324.961 51.8113H338.363L351.004 2.67188H338.363L329.746 34.2669L328.046 40.5007L324.961 51.8113Z" fill="#FFDD41"/>
<path d="M329.746 34.2669H323.44L321.837 40.5007H328.046L329.746 34.2669Z" fill="#FFDD41"/>
<path d="M318.878 2.86197L305.477 52.0014H318.878L321.837 40.5007L323.44 34.2669L331.52 2.86197H318.878Z" fill="#FFDD41"/>
<path d="M368.965 34.2662H362.659L361.056 40.5H367.265L368.965 34.2662Z" fill="#FFDD41"/>
<path d="M358.097 2.86133L344.695 52.0008H358.097L361.056 40.5L362.659 34.2662L370.738 2.86133H358.097Z" fill="#FFDD41"/>
<path d="M370.454 2.86133L383.855 52.0008H370.454L367.495 40.5L365.892 34.2662L357.813 2.86133H370.454Z" fill="#FFDD41"/>
<path fill-rule="evenodd" clip-rule="evenodd" d="M63.8984 49.4185H77.3001L80.5317 36.8565C104.579 39.5335 120.166 0.279012 89.9414 0.279012C89.9414 0.279012 82.2368 0.279012 77.3001 0.279012C72.5477 0.278996 70.6468 0.0889201 69.9815 2.4651C69.3161 4.84127 70.8369 6.74222 70.8369 6.74222L75.9781 5.12642L63.8984 49.4185ZM88.8655 4.46109L81.6035 32.6901C97.9253 32.6901 103.438 3.79576 88.8655 4.46109Z" fill="url(#paint0_linear_916_24)"/>
<path d="M145.926 0.279297H127.487L124.626 11.3998H143.065L145.926 0.279297Z" fill="url(#paint1_linear_916_24)"/>
<path d="M119.122 0.279297C116.366 0.279295 103.155 49.4187 106.006 49.4187C108.857 49.4187 114.845 49.4187 114.845 49.4187L117.706 38.2982L120.029 29.2687L121.936 21.855L124.626 11.3998L127.487 0.279297C127.487 0.279297 121.879 0.279299 119.122 0.279297Z" fill="url(#paint2_linear_916_24)"/>
<path d="M121.936 21.855L120.029 29.2687H138.468L140.375 21.855H121.936Z" fill="url(#paint3_linear_916_24)"/>
<path d="M117.706 38.2982L114.845 49.4187H133.284L136.145 38.2982H117.706Z" fill="url(#paint4_linear_916_24)"/>
<path d="M160.562 0.279297C150.582 0.279279 140.602 38.0131 148.396 49.4187H153.814C153.814 49.4187 154.393 44.853 154.764 43.1456C152.726 41.9965 161.132 11.8751 163.472 11.8751C164.174 9.68897 165.29 4.80772 166.455 0.279297C161.518 0.279297 170.542 0.279315 160.562 0.279297Z" fill="url(#paint5_linear_916_24)"/>
<path d="M153.814 49.4187H169.211C169.211 49.4187 169.939 44.853 170.162 43.1456C164.297 43.1456 160.629 43.1456 154.764 43.1456C154.393 44.853 153.814 49.4187 153.814 49.4187Z" fill="url(#paint6_linear_916_24)"/>
<path d="M165.124 33.1657H173.392L173.401 33.1341C178.004 15.2477 181.929 7.0988 181.07 3.38621C180.351 0.279297 176.281 0.279297 166.455 0.279297C165.29 4.80772 164.174 9.68897 163.472 11.8751C174.249 11.8751 170.732 13.4909 165.124 33.1657Z" fill="url(#paint7_linear_916_24)"/>
<path d="M194.301 49.2293H207.703L220.344 0.0898438H207.703L199.086 31.6848L197.386 37.9186L194.301 49.2293Z" fill="url(#paint8_linear_916_24)"/>
<path d="M199.086 31.6848H192.78L191.177 37.9186H197.386L199.086 31.6848Z" fill="url(#paint9_linear_916_24)"/>
<path d="M188.218 0.279938L174.816 49.4194H188.218L191.177 37.9186L192.78 31.6848L200.859 0.279938H188.218Z" fill="url(#paint10_linear_916_24)"/>
<path d="M217.398 49.4187L230.8 0.279297H243.441L230.8 49.4187H217.398Z" fill="url(#paint11_linear_916_24)"/>
<path d="M250.57 0.279297L237.168 49.4187H241.825H246.483C246.483 49.4187 252.008 28.1009 255.548 14.4413C256.982 8.91072 257.785 5.80992 259.219 0.279297C255.841 0.279297 250.57 0.279297 250.57 0.279297Z" fill="url(#paint12_linear_916_24)"/>
<path d="M256.653 49.4187C256.653 49.4187 258.217 43.6838 259.219 40.009C259.219 40.009 255.548 39.819 259.219 0.279297C257.785 5.80992 256.982 8.91072 255.548 14.4413C248.098 34.9715 256.653 49.4187 256.653 49.4187Z" fill="url(#paint13_linear_916_24)"/>
<path d="M265.967 49.4187L278.704 0.279297H270.054C270.054 0.279297 263.45 24.4936 259.219 40.009C258.217 43.6838 256.653 49.4187 256.653 49.4187H261.31H265.967Z" fill="url(#paint14_linear_916_24)"/>
<path d="M291.285 0.279297C281.305 0.279279 271.325 38.0131 279.119 49.4187H284.536C284.536 49.4187 285.116 44.853 285.487 43.1456C283.449 41.9965 291.855 11.8751 294.194 11.8751C294.896 9.68897 296.013 4.80772 297.178 0.279297C292.241 0.279297 301.265 0.279315 291.285 0.279297Z" fill="url(#paint15_linear_916_24)"/>
<path d="M284.536 49.4187H299.934C299.934 49.4187 300.662 44.853 300.884 43.1456C295.02 43.1456 291.352 43.1456 285.487 43.1456C285.116 44.853 284.536 49.4187 284.536 49.4187Z" fill="url(#paint16_linear_916_24)"/>
<path d="M295.847 33.1657H304.115L304.123 33.1341C308.727 15.2477 312.652 7.0988 311.793 3.38621C311.074 0.279297 307.004 0.279297 297.178 0.279297C296.013 4.80772 294.896 9.68897 294.194 11.8751C304.971 11.8751 301.455 13.4909 295.847 33.1657Z" fill="url(#paint17_linear_916_24)"/>
<path d="M325.028 49.2293H338.429L351.071 0.0898438H338.429L329.812 31.6848L328.112 37.9186L325.028 49.2293Z" fill="url(#paint18_linear_916_24)"/>
<path d="M329.812 31.6848H323.507L321.903 37.9186H328.112L329.812 31.6848Z" fill="url(#paint19_linear_916_24)"/>
<path d="M318.945 0.279938L305.543 49.4194H318.945L321.903 37.9186L323.507 31.6848L331.586 0.279938H318.945Z" fill="url(#paint20_linear_916_24)"/>
<path d="M369.035 31.6842H362.73L361.126 37.918H367.335L369.035 31.6842Z" fill="url(#paint21_linear_916_24)"/>
<path d="M358.167 0.279297L344.766 49.4187H358.167L361.126 37.918L362.73 31.6842L370.809 0.279297H358.167Z" fill="url(#paint22_linear_916_24)"/>
<path d="M370.524 0.279297L383.926 49.4187H370.524L367.566 37.918L365.962 31.6842L357.883 0.279297H370.524Z" fill="url(#paint23_linear_916_24)"/>
<path d="M1.6394 0H10.8027L13.9221 7.37197H63.9099L63.1502 9.2907L55.0066 36.153H13.9221L10.9001 9.2907L8.17066 2.32268H0.957031L1.6394 0Z" fill="url(#paint24_linear_916_24)"/>
<path d="M10.8027 0H1.6394L0.957031 2.38322H8.17066L10.9001 9.53287H63.1005L63.9099 7.37448H13.9073L10.8027 0Z" fill="url(#paint25_linear_916_24)"/>
<ellipse cx="19.0313" cy="45.1465" rx="4.04697" ry="3.95704" fill="url(#paint26_linear_916_24)"/>
<ellipse cx="46.3751" cy="45.1465" rx="4.04697" ry="3.95704" fill="url(#paint27_linear_916_24)"/>
<defs>
<linearGradient id="paint0_linear_916_24" x1="86.2281" y1="-0.462026" x2="86.2281" y2="52.6857" gradientUnits="userSpaceOnUse">
<stop stop-color="#FF0D26"/>
<stop offset="1" stop-color="#BD100F"/>
</linearGradient>
<linearGradient id="paint1_linear_916_24" x1="126.682" y1="-0.458065" x2="126.682" y2="52.6857" gradientUnits="userSpaceOnUse">
<stop stop-color="#FF0D26"/>
<stop offset="1" stop-color="#BD100F"/>
</linearGradient>
<linearGradient id="paint2_linear_916_24" x1="126.682" y1="-0.458065" x2="126.682" y2="52.6857" gradientUnits="userSpaceOnUse">
<stop stop-color="#FF0D26"/>
<stop offset="1" stop-color="#BD100F"/>
</linearGradient>
<linearGradient id="paint3_linear_916_24" x1="126.682" y1="-0.458065" x2="126.682" y2="52.6857" gradientUnits="userSpaceOnUse">
<stop stop-color="#FF0D26"/>
<stop offset="1" stop-color="#BD100F"/>
</linearGradient>
<linearGradient id="paint4_linear_916_24" x1="126.682" y1="-0.458065" x2="126.682" y2="52.6857" gradientUnits="userSpaceOnUse">
<stop stop-color="#FF0D26"/>
<stop offset="1" stop-color="#BD100F"/>
</linearGradient>
<linearGradient id="paint5_linear_916_24" x1="164.206" y1="-0.458064" x2="164.206" y2="52.6857" gradientUnits="userSpaceOnUse">
<stop stop-color="#FF0D26"/>
<stop offset="1" stop-color="#BD100F"/>
</linearGradient>
<linearGradient id="paint6_linear_916_24" x1="164.206" y1="-0.458064" x2="164.206" y2="52.6857" gradientUnits="userSpaceOnUse">
<stop stop-color="#FF0D26"/>
<stop offset="1" stop-color="#BD100F"/>
</linearGradient>
<linearGradient id="paint7_linear_916_24" x1="164.206" y1="-0.458064" x2="164.206" y2="52.6857" gradientUnits="userSpaceOnUse">
<stop stop-color="#FF0D26"/>
<stop offset="1" stop-color="#BD100F"/>
</linearGradient>
<linearGradient id="paint8_linear_916_24" x1="198.615" y1="-0.65037" x2="198.615" y2="52.699" gradientUnits="userSpaceOnUse">
<stop stop-color="#FF0D26"/>
<stop offset="1" stop-color="#BD100F"/>
</linearGradient>
<linearGradient id="paint9_linear_916_24" x1="198.615" y1="-0.65037" x2="198.615" y2="52.699" gradientUnits="userSpaceOnUse">
<stop stop-color="#FF0D26"/>
<stop offset="1" stop-color="#BD100F"/>
</linearGradient>
<linearGradient id="paint10_linear_916_24" x1="198.615" y1="-0.65037" x2="198.615" y2="52.699" gradientUnits="userSpaceOnUse">
<stop stop-color="#FF0D26"/>
<stop offset="1" stop-color="#BD100F"/>
</linearGradient>
<linearGradient id="paint11_linear_916_24" x1="231.012" y1="-0.458065" x2="231.012" y2="52.6857" gradientUnits="userSpaceOnUse">
<stop stop-color="#FF0D26"/>
<stop offset="1" stop-color="#BD100F"/>
</linearGradient>
<linearGradient id="paint12_linear_916_24" x1="258.879" y1="-0.458065" x2="258.879" y2="52.6857" gradientUnits="userSpaceOnUse">
<stop stop-color="#FF0D26"/>
<stop offset="1" stop-color="#BD100F"/>
</linearGradient>
<linearGradient id="paint13_linear_916_24" x1="258.879" y1="-0.458065" x2="258.879" y2="52.6857" gradientUnits="userSpaceOnUse">
<stop stop-color="#FF0D26"/>
<stop offset="1" stop-color="#BD100F"/>
</linearGradient>
<linearGradient id="paint14_linear_916_24" x1="258.879" y1="-0.458065" x2="258.879" y2="52.6857" gradientUnits="userSpaceOnUse">
<stop stop-color="#FF0D26"/>
<stop offset="1" stop-color="#BD100F"/>
</linearGradient>
<linearGradient id="paint15_linear_916_24" x1="294.928" y1="-0.458064" x2="294.928" y2="52.6857" gradientUnits="userSpaceOnUse">
<stop stop-color="#FF0D26"/>
<stop offset="1" stop-color="#BD100F"/>
</linearGradient>
<linearGradient id="paint16_linear_916_24" x1="294.928" y1="-0.458064" x2="294.928" y2="52.6857" gradientUnits="userSpaceOnUse">
<stop stop-color="#FF0D26"/>
<stop offset="1" stop-color="#BD100F"/>
</linearGradient>
<linearGradient id="paint17_linear_916_24" x1="294.928" y1="-0.458064" x2="294.928" y2="52.6857" gradientUnits="userSpaceOnUse">
<stop stop-color="#FF0D26"/>
<stop offset="1" stop-color="#BD100F"/>
</linearGradient>
<linearGradient id="paint18_linear_916_24" x1="329.341" y1="-0.65037" x2="329.341" y2="52.699" gradientUnits="userSpaceOnUse">
<stop stop-color="#FF0D26"/>
<stop offset="1" stop-color="#BD100F"/>
</linearGradient>
<linearGradient id="paint19_linear_916_24" x1="329.341" y1="-0.65037" x2="329.341" y2="52.699" gradientUnits="userSpaceOnUse">
<stop stop-color="#FF0D26"/>
<stop offset="1" stop-color="#BD100F"/>
</linearGradient>
<linearGradient id="paint20_linear_916_24" x1="329.341" y1="-0.65037" x2="329.341" y2="52.699" gradientUnits="userSpaceOnUse">
<stop stop-color="#FF0D26"/>
<stop offset="1" stop-color="#BD100F"/>
</linearGradient>
<linearGradient id="paint21_linear_916_24" x1="358.379" y1="-0.458065" x2="358.379" y2="52.6857" gradientUnits="userSpaceOnUse">
<stop stop-color="#FF0D26"/>
<stop offset="1" stop-color="#BD100F"/>
</linearGradient>
<linearGradient id="paint22_linear_916_24" x1="358.379" y1="-0.458065" x2="358.379" y2="52.6857" gradientUnits="userSpaceOnUse">
<stop stop-color="#FF0D26"/>
<stop offset="1" stop-color="#BD100F"/>
</linearGradient>
<linearGradient id="paint23_linear_916_24" x1="370.313" y1="-0.458065" x2="370.313" y2="52.6857" gradientUnits="userSpaceOnUse">
<stop stop-color="#FF0D26"/>
<stop offset="1" stop-color="#BD100F"/>
</linearGradient>
<linearGradient id="paint24_linear_916_24" x1="60.2613" y1="18.1544" x2="12.2819" y2="18.1544" gradientUnits="userSpaceOnUse">
<stop stop-color="#F9C339"/>
<stop offset="1" stop-color="#CE9C1A"/>
</linearGradient>
<linearGradient id="paint25_linear_916_24" x1="63.8922" y1="4.84117" x2="0.957031" y2="4.84117" gradientUnits="userSpaceOnUse">
<stop stop-color="#C91E2D"/>
<stop offset="1" stop-color="#961722"/>
</linearGradient>
<linearGradient id="paint26_linear_916_24" x1="23.0859" y1="45.1268" x2="14.9597" y2="45.1268" gradientUnits="userSpaceOnUse">
<stop stop-color="#12308A"/>
<stop offset="1" stop-color="#020659"/>
</linearGradient>
<linearGradient id="paint27_linear_916_24" x1="50.4081" y1="45.1268" x2="42.2819" y2="45.1268" gradientUnits="userSpaceOnUse">
<stop stop-color="#12308A"/>
<stop offset="1" stop-color="#020659"/>
</linearGradient>
</defs>
</svg>
