<svg width="61" height="49" viewBox="0 0 61 49" fill="none" xmlns="http://www.w3.org/2000/svg">
<path fill-rule="evenodd" clip-rule="evenodd" d="M0 48.3565H12.6273L15.6722 36.4959C38.3298 39.0234 53.0169 1.96045 24.5382 1.96045C24.5382 1.96045 17.2788 1.96045 12.6273 1.96045C8.14956 1.96044 6.35845 1.78097 5.73156 4.02449C5.10467 6.26801 6.53756 8.06283 6.53756 8.06283L11.3817 6.53724L0 48.3565ZM23.5245 5.90905L16.6821 32.5621C32.0609 32.5621 37.2551 5.28086 23.5245 5.90905Z" fill="url(#paint0_linear_1037_1229)"/>
<path d="M60.9998 6.99609L60.2418 8.91056L52.1163 35.7131H11.123L15.6479 6.99609H23.782L18.8135 24.2504L16.5855 31.988L21.0858 31.7314L22.2109 31.5151L26.3726 29.718L29.683 26.8805L31.3938 24.4854L32.4963 22.4889L34.1284 18.5571L34.7905 14.1117L34.1284 9.09882L33.1826 7.20715L43.2606 6.99609H60.9998Z" fill="url(#paint1_linear_1037_1229)"/>
<path d="M61.0003 6.99805L60.1927 9.15164H34.154L33.11 6.99805H29.3524H23.4357L22.9155 9.15164H12.1855L12.8476 6.99805H23.4357H29.3524H33.11H33.183H61.0003Z" fill="url(#paint2_linear_1037_1229)"/>
<ellipse cx="43.5018" cy="44.6865" rx="4.03798" ry="3.94825" fill="url(#paint3_linear_1037_1229)"/>
<path fill-rule="evenodd" clip-rule="evenodd" d="M1.39746 46.3995H14.0248L17.0697 34.5388C39.7273 37.0664 54.4144 0.00341879 25.9357 0.00341879C25.9357 0.00341879 18.6763 0.00341879 14.0248 0.00341879C9.54702 0.00340392 7.75591 -0.17606 7.12902 2.06746C6.50213 4.31098 7.93502 6.1058 7.93502 6.1058L12.7792 4.58021L11.9985 7.4485L9.70264 15.8841L1.39746 46.3995ZM24.922 3.95202L24.0244 7.4485L21.8588 15.8841L18.0796 30.6051C33.4584 30.6051 38.6526 3.32383 24.922 3.95202Z" fill="url(#paint4_linear_1037_1229)"/>
<defs>
<linearGradient id="paint0_linear_1037_1229" x1="20.1251" y1="1.95703" x2="20.1251" y2="48.3565" gradientUnits="userSpaceOnUse">
<stop stop-color="#FFDD41"/>
<stop offset="1" stop-color="#CF9C1A"/>
</linearGradient>
<linearGradient id="paint1_linear_1037_1229" x1="57.3592" y1="17.7545" x2="9.48645" y2="17.7545" gradientUnits="userSpaceOnUse">
<stop stop-color="#F9C339"/>
<stop offset="1" stop-color="#CE9C1A"/>
</linearGradient>
<linearGradient id="paint2_linear_1037_1229" x1="60.9827" y1="4.47036" x2="-1.81259" y2="4.47036" gradientUnits="userSpaceOnUse">
<stop stop-color="#FF0D26"/>
<stop offset="0.704" stop-color="#E40F25"/>
<stop offset="1" stop-color="#961722"/>
</linearGradient>
<linearGradient id="paint3_linear_1037_1229" x1="47.5259" y1="44.6669" x2="39.4177" y2="44.6669" gradientUnits="userSpaceOnUse">
<stop stop-color="#12308A"/>
<stop offset="1" stop-color="#020659"/>
</linearGradient>
<linearGradient id="paint4_linear_1037_1229" x1="21.5225" y1="0" x2="21.5225" y2="46.3995" gradientUnits="userSpaceOnUse">
<stop stop-color="#FF0D26"/>
<stop offset="1" stop-color="#BD100F"/>
</linearGradient>
</defs>
</svg>
