<svg width="409" height="640" viewBox="0 0 409 640" fill="none" xmlns="http://www.w3.org/2000/svg">
<path d="M86.5 0L123.493 149.463L218.079 27.968L191.082 179.556L326.907 107.036L240.588 234.538L394.167 223.533L263.45 304.902L408.228 357.315L255.717 378.482L366.659 485.25L218.724 442.555L276.649 585.217L158.869 486.043L153.759 639.931L86.5 501.425L19.2406 639.931L14.1314 486.043L-103.649 585.217L-45.724 442.555L-193.659 485.25L-82.7167 378.482L-235.228 357.315L-90.4503 304.902L-221.167 223.533L-67.5876 234.538L-153.907 107.036L-18.0817 179.556L-45.0793 27.968L49.5073 149.463L86.5 0Z" fill="#D92622"/>
</svg>
