<svg width="364" height="640" viewBox="0 0 364 640" fill="none" xmlns="http://www.w3.org/2000/svg">
<path d="M322.5 0L359.493 149.463L454.079 27.968L427.082 179.556L562.907 107.036L476.588 234.538L630.167 223.533L499.45 304.902L644.228 357.315L491.717 378.482L602.659 485.25L454.724 442.555L512.649 585.217L394.869 486.043L389.759 639.931L322.5 501.425L255.241 639.931L250.131 486.043L132.351 585.217L190.276 442.555L42.3408 485.25L153.283 378.482L0.772156 357.315L145.55 304.902L14.8332 223.533L168.412 234.538L82.0927 107.036L217.918 179.556L190.921 27.968L285.507 149.463L322.5 0Z" fill="#FFDD41"/>
</svg>
